<svg width="24" height="24" viewBox="0 0 24 24" fill="none" xmlns="http://www.w3.org/2000/svg">
<g clip-path="url(#clip0_2034_919)">
<path d="M11.1393 13.98L15.2834 9.04114L14.43 8.32499L10.2858 13.2639L11.1393 13.98Z" fill="black" style="fill:black;fill-opacity:1;"/>
<path d="M15.2834 9.04109L19.4276 4.10223L18.5741 3.38609L14.43 8.32495L15.2834 9.04109Z" fill="#0019FF" style="fill:#0019FF;fill:color(display-p3 0.0000 0.0980 1.0000);fill-opacity:1;"/>
<path d="M15.3383 9.1004L19.5681 4.23462L18.7272 3.50369L14.4975 8.36947L15.3383 9.1004Z" fill="#0015FF" style="fill:#0015FF;fill:color(display-p3 0.0000 0.0824 1.0000);fill-opacity:1;"/>
<path d="M15.3921 9.16061L19.7062 4.36938L18.8782 3.62389L14.5642 8.41511L15.3921 9.16061Z" fill="#0011FF" style="fill:#0011FF;fill:color(display-p3 0.0000 0.0667 1.0000);fill-opacity:1;"/>
<path d="M15.4449 9.22179L19.8419 4.50659L19.0271 3.74676L14.6301 8.46196L15.4449 9.22179Z" fill="#000CFF" style="fill:#000CFF;fill:color(display-p3 0.0000 0.0471 1.0000);fill-opacity:1;"/>
<path d="M15.4966 9.28386L19.9752 4.64612L19.1738 3.87218L14.6952 8.50993L15.4966 9.28386Z" fill="#0008FF" style="fill:#0008FF;fill:color(display-p3 0.0000 0.0314 1.0000);fill-opacity:1;"/>
<path d="M15.5472 9.34684L20.1061 4.78796L19.3183 4.00016L14.7594 8.55904L15.5472 9.34684Z" fill="#0004FF" style="fill:#0004FF;fill:color(display-p3 0.0000 0.0157 1.0000);fill-opacity:1;"/>
<path d="M15.5968 9.41069L20.2345 4.93207L19.4606 4.13064L14.8228 8.60925L15.5968 9.41069Z" fill="#0000FF" style="fill:#0000FF;fill:color(display-p3 0.0000 0.0000 1.0000);fill-opacity:1;"/>
<path d="M15.6451 9.47537L20.3603 5.07837L19.6005 4.26355L14.8853 8.66055L15.6451 9.47537Z" fill="#0500FF" style="fill:#0500FF;fill:color(display-p3 0.0196 0.0000 1.0000);fill-opacity:1;"/>
<path d="M15.6924 9.5409L20.4836 5.22687L19.7381 4.39891L14.9469 8.71295L15.6924 9.5409Z" fill="#0900FF" style="fill:#0900FF;fill:color(display-p3 0.0353 0.0000 1.0000);fill-opacity:1;"/>
<path d="M15.7385 9.60726L20.6042 5.3775L19.8733 4.53666L15.0075 8.76642L15.7385 9.60726Z" fill="#0D00FF" style="fill:#0D00FF;fill:color(display-p3 0.0510 0.0000 1.0000);fill-opacity:1;"/>
<path d="M15.7834 9.67441L20.7222 5.53021L20.0061 4.67675L15.0672 8.82094L15.7834 9.67441Z" fill="#1100FF" style="fill:#1100FF;fill:color(display-p3 0.0667 0.0000 1.0000);fill-opacity:1;"/>
<path d="M15.8272 9.74231L20.8376 5.68494L20.1364 4.8191L15.126 8.87647L15.8272 9.74231Z" fill="#1600FF" style="fill:#1600FF;fill:color(display-p3 0.0863 0.0000 1.0000);fill-opacity:1;"/>
<path d="M15.8697 9.81098L20.9502 5.84167L20.2643 4.96374L15.1838 8.93304L15.8697 9.81098Z" fill="#1A00FF" style="fill:#1A00FF;fill:color(display-p3 0.1020 0.0000 1.0000);fill-opacity:1;"/>
<path d="M15.911 9.8804L21.06 6.00037L20.3895 5.11059L15.2405 8.99063L15.911 9.8804Z" fill="#1E00FF" style="fill:#1E00FF;fill:color(display-p3 0.1176 0.0000 1.0000);fill-opacity:1;"/>
<path d="M15.9512 9.95047L21.1671 6.16089L20.5123 5.25955L15.2963 9.04913L15.9512 9.95047Z" fill="#2200FF" style="fill:#2200FF;fill:color(display-p3 0.1333 0.0000 1.0000);fill-opacity:1;"/>
<path d="M15.9901 10.0213L21.2714 6.3233L20.6323 5.41067L15.3511 9.10864L15.9901 10.0213Z" fill="#2700FF" style="fill:#2700FF;fill:color(display-p3 0.1529 0.0000 1.0000);fill-opacity:1;"/>
<path d="M16.0278 10.0927L21.3727 6.48749L20.7497 5.56384L15.4047 9.16908L16.0278 10.0927Z" fill="#2B00FF" style="fill:#2B00FF;fill:color(display-p3 0.1686 0.0000 1.0000);fill-opacity:1;"/>
<path d="M16.0642 10.1649L21.4713 6.65344L20.8645 5.71906L15.4574 9.23047L16.0642 10.1649Z" fill="#2F00FF" style="fill:#2F00FF;fill:color(display-p3 0.1843 0.0000 1.0000);fill-opacity:1;"/>
<path d="M16.0993 10.2376L21.5669 6.82111L20.9765 5.87628L15.5089 9.29279L16.0993 10.2376Z" fill="#3300FF" style="fill:#3300FF;fill:color(display-p3 0.2000 0.0000 1.0000);fill-opacity:1;"/>
<path d="M16.1332 10.3109L21.6595 6.99036L21.0857 6.03537L15.5594 9.35593L16.1332 10.3109Z" fill="#3800FF" style="fill:#3800FF;fill:color(display-p3 0.2196 0.0000 1.0000);fill-opacity:1;"/>
<path d="M16.1657 10.3849L21.7492 7.16125L21.1921 6.1964L15.6087 9.42001L16.1657 10.3849Z" fill="#3C00FF" style="fill:#3C00FF;fill:color(display-p3 0.2353 0.0000 1.0000);fill-opacity:1;"/>
<path d="M16.1971 10.4594L21.8359 7.33368L21.2958 6.35925L15.6569 9.48492L16.1971 10.4594Z" fill="#4000FF" style="fill:#4000FF;fill:color(display-p3 0.2510 0.0000 1.0000);fill-opacity:1;"/>
<path d="M16.2271 10.5344L21.9196 7.50757L21.3966 6.52386L15.704 9.55065L16.2271 10.5344Z" fill="#4400FF" style="fill:#4400FF;fill:color(display-p3 0.2667 0.0000 1.0000);fill-opacity:1;"/>
<path d="M16.2557 10.6099L22.0002 7.68292L21.4944 6.69023L15.7499 9.61721L16.2557 10.6099Z" fill="#4800FF" style="fill:#4800FF;fill:color(display-p3 0.2824 0.0000 1.0000);fill-opacity:1;"/>
<path d="M16.2831 10.6859L22.0778 7.85962L21.5894 6.85825L15.7947 9.68453L16.2831 10.6859Z" fill="#4D00FF" style="fill:#4D00FF;fill:color(display-p3 0.3020 0.0000 1.0000);fill-opacity:1;"/>
<path d="M16.3091 10.7624L22.1523 8.03766L21.6814 7.02792L15.8383 9.75264L16.3091 10.7624Z" fill="#5100FF" style="fill:#5100FF;fill:color(display-p3 0.3176 0.0000 1.0000);fill-opacity:1;"/>
<path d="M16.3338 10.8393L22.2236 8.21698L21.7705 7.19918L15.8806 9.8215L16.3338 10.8393Z" fill="#5500FF" style="fill:#5500FF;fill:color(display-p3 0.3333 0.0000 1.0000);fill-opacity:1;"/>
<path d="M16.3571 10.9167L22.2918 8.39752L21.8565 7.37197L15.9218 9.8911L16.3571 10.9167Z" fill="#5900FF" style="fill:#5900FF;fill:color(display-p3 0.3490 0.0000 1.0000);fill-opacity:1;"/>
<path d="M16.3791 10.9944L22.3569 8.57922L21.9395 7.54623L15.9618 9.9614L16.3791 10.9944Z" fill="#5E00FF" style="fill:#5E00FF;fill:color(display-p3 0.3686 0.0000 1.0000);fill-opacity:1;"/>
<path d="M16.3997 11.0725L22.4187 8.76202L22.0194 7.7219L16.0004 10.0324L16.3997 11.0725Z" fill="#6200FF" style="fill:#6200FF;fill:color(display-p3 0.3843 0.0000 1.0000);fill-opacity:1;"/>
<path d="M16.4189 11.1509L22.4774 8.94586L22.0963 7.89893L16.0379 10.104L16.4189 11.1509Z" fill="#6600FF" style="fill:#6600FF;fill:color(display-p3 0.4000 0.0000 1.0000);fill-opacity:1;"/>
<path d="M16.4369 11.2297L22.5328 9.13074L22.1701 8.07732L16.0741 10.1763L16.4369 11.2297Z" fill="#6A00FF" style="fill:#6A00FF;fill:color(display-p3 0.4157 0.0000 1.0000);fill-opacity:1;"/>
<path d="M16.4533 11.3088L22.585 9.31653L22.2407 8.25694L16.1091 10.2492L16.4533 11.3088Z" fill="#6F00FF" style="fill:#6F00FF;fill:color(display-p3 0.4353 0.0000 1.0000);fill-opacity:1;"/>
<path d="M16.4685 11.3882L22.634 9.50317L22.3082 8.43773L16.1427 10.3227L16.4685 11.3882Z" fill="#7300FF" style="fill:#7300FF;fill:color(display-p3 0.4510 0.0000 1.0000);fill-opacity:1;"/>
<path d="M16.4822 11.4678L22.6797 9.69067L22.3726 8.61971L16.1751 10.3968L16.4822 11.4678Z" fill="#7700FF" style="fill:#7700FF;fill:color(display-p3 0.4667 0.0000 1.0000);fill-opacity:1;"/>
<path d="M16.4946 11.5476L22.7221 9.87897L22.4338 8.80281L16.2062 10.4715L16.4946 11.5476Z" fill="#7B00FF" style="fill:#7B00FF;fill:color(display-p3 0.4824 0.0000 1.0000);fill-opacity:1;"/>
<path d="M16.5055 11.6277L22.7612 10.0679L22.4917 8.98691L16.236 10.5466L16.5055 11.6277Z" fill="#8000FF" style="fill:#8000FF;fill:color(display-p3 0.5020 0.0000 1.0000);fill-opacity:1;"/>
<path d="M16.5151 11.7079L22.7971 10.2576L22.5464 9.172L16.2645 10.6223L16.5151 11.7079Z" fill="#8400FF" style="fill:#8400FF;fill:color(display-p3 0.5176 0.0000 1.0000);fill-opacity:1;"/>
<path d="M16.5232 11.7883L22.8295 10.4478L22.5979 9.35804L16.2916 10.6985L16.5232 11.7883Z" fill="#8800FF" style="fill:#8800FF;fill:color(display-p3 0.5333 0.0000 1.0000);fill-opacity:1;"/>
<path d="M16.5299 11.8687L22.8587 10.6385L22.6461 9.5449L16.3173 10.7751L16.5299 11.8687Z" fill="#8C00FF" style="fill:#8C00FF;fill:color(display-p3 0.5490 0.0000 1.0000);fill-opacity:1;"/>
<path d="M16.5353 11.9494L22.8846 10.8298L22.6911 9.73264L16.3418 10.8522L16.5353 11.9494Z" fill="#9100FF" style="fill:#9100FF;fill:color(display-p3 0.5686 0.0000 1.0000);fill-opacity:1;"/>
<path d="M16.5393 12.0301L22.9071 11.0215L22.7328 9.92108L16.365 10.9296L16.5393 12.0301Z" fill="#9500FF" style="fill:#9500FF;fill:color(display-p3 0.5843 0.0000 1.0000);fill-opacity:1;"/>
<path d="M16.5417 12.1108L22.9262 11.2135L22.7712 10.1102L16.3867 11.0075L16.5417 12.1108Z" fill="#9900FF" style="fill:#9900FF;fill:color(display-p3 0.6000 0.0000 1.0000);fill-opacity:1;"/>
<path d="M16.5428 12.1916L22.942 11.4059L22.8062 10.3001L16.4071 11.0858L16.5428 12.1916Z" fill="#9D00FF" style="fill:#9D00FF;fill:color(display-p3 0.6157 0.0000 1.0000);fill-opacity:1;"/>
<path d="M16.5426 12.2724L22.9545 11.5984L22.838 10.4904L16.4261 11.1644L16.5426 12.2724Z" fill="#A100FF" style="fill:#A100FF;fill:color(display-p3 0.6314 0.0000 1.0000);fill-opacity:1;"/>
<path d="M16.5409 12.3531L22.9636 11.7912L22.8665 10.6813L16.4438 11.2432L16.5409 12.3531Z" fill="#A600FF" style="fill:#A600FF;fill:color(display-p3 0.6510 0.0000 1.0000);fill-opacity:1;"/>
<path d="M16.5378 12.4339L22.9693 11.9841L22.8916 10.8727L16.4601 11.3225L16.5378 12.4339Z" fill="#AA00FF" style="fill:#AA00FF;fill:color(display-p3 0.6667 0.0000 1.0000);fill-opacity:1;"/>
<path d="M16.5332 12.5145L22.9716 12.1771L22.9133 11.0645L16.4749 11.4019L16.5332 12.5145Z" fill="#AE00FF" style="fill:#AE00FF;fill:color(display-p3 0.6824 0.0000 1.0000);fill-opacity:1;"/>
<path d="M16.5273 12.5951L22.9706 12.3701L22.9317 11.2566L16.4884 11.4816L16.5273 12.5951Z" fill="#B200FF" style="fill:#B200FF;fill:color(display-p3 0.6980 0.0000 1.0000);fill-opacity:1;"/>
<path d="M16.5199 12.6755L22.9662 12.563L22.9467 11.449L16.5005 11.5616L16.5199 12.6755Z" fill="#B700FF" style="fill:#B700FF;fill:color(display-p3 0.7176 0.0000 1.0000);fill-opacity:1;"/>
<path d="M16.5112 12.7559H22.9584V11.6417H16.5112V12.7559Z" fill="#BB00FF" style="fill:#BB00FF;fill:color(display-p3 0.7333 0.0000 1.0000);fill-opacity:1;"/>
<path d="M16.5011 12.836L22.9473 12.9485L22.9668 11.8345L16.5205 11.722L16.5011 12.836Z" fill="#BF00FF" style="fill:#BF00FF;fill:color(display-p3 0.7490 0.0000 1.0000);fill-opacity:1;"/>
<path d="M16.4896 12.9159L22.9329 13.1409L22.9717 12.0275L16.5284 11.8025L16.4896 12.9159Z" fill="#C300FF" style="fill:#C300FF;fill:color(display-p3 0.7647 0.0000 1.0000);fill-opacity:1;"/>
<path d="M16.4766 12.9957L22.915 13.3331L22.9733 12.2205L16.5349 11.8831L16.4766 12.9957Z" fill="#C800FF" style="fill:#C800FF;fill:color(display-p3 0.7843 0.0000 1.0000);fill-opacity:1;"/>
<path d="M16.4623 13.0752L22.8938 13.525L22.9715 12.4136L16.54 11.9638L16.4623 13.0752Z" fill="#CC00FF" style="fill:#CC00FF;fill:color(display-p3 0.8000 0.0000 1.0000);fill-opacity:1;"/>
<path d="M16.4466 13.1545L22.8693 13.7164L22.9664 12.6065L16.5437 12.0446L16.4466 13.1545Z" fill="#D000FF" style="fill:#D000FF;fill:color(display-p3 0.8157 0.0000 1.0000);fill-opacity:1;"/>
<path d="M16.4295 13.2334L22.8414 13.9073L22.9579 12.7993L16.546 12.1254L16.4295 13.2334Z" fill="#D400FF" style="fill:#D400FF;fill:color(display-p3 0.8314 0.0000 1.0000);fill-opacity:1;"/>
<path d="M16.411 13.3121L22.8102 14.0978L22.946 12.992L16.5468 12.2062L16.411 13.3121Z" fill="#D900FF" style="fill:#D900FF;fill:color(display-p3 0.8510 0.0000 1.0000);fill-opacity:1;"/>
<path d="M16.3912 13.3904L22.7757 14.2877L22.9308 13.1844L16.5463 12.2871L16.3912 13.3904Z" fill="#DD00FF" style="fill:#DD00FF;fill:color(display-p3 0.8667 0.0000 1.0000);fill-opacity:1;"/>
<path d="M16.37 13.4683L22.7379 14.4769L22.9121 13.3765L16.5443 12.3679L16.37 13.4683Z" fill="#E100FF" style="fill:#E100FF;fill:color(display-p3 0.8824 0.0000 1.0000);fill-opacity:1;"/>
<path d="M16.3474 13.5459L22.6967 14.6655L22.8902 13.5683L16.5409 12.4487L16.3474 13.5459Z" fill="#E500FF" style="fill:#E500FF;fill:color(display-p3 0.8980 0.0000 1.0000);fill-opacity:1;"/>
<path d="M16.3236 13.6231L22.6523 14.8533L22.8649 13.7596L16.5362 12.5294L16.3236 13.6231Z" fill="#EA00FF" style="fill:#EA00FF;fill:color(display-p3 0.9176 0.0000 1.0000);fill-opacity:1;"/>
<path d="M16.2983 13.6998L22.6047 15.0403L22.8363 13.9505L16.53 12.6101L16.2983 13.6998Z" fill="#EE00FF" style="fill:#EE00FF;fill:color(display-p3 0.9333 0.0000 1.0000);fill-opacity:1;"/>
<path d="M16.2717 13.7761L22.5537 15.2264L22.8043 14.1408L16.5224 12.6905L16.2717 13.7761Z" fill="#F200FF" style="fill:#F200FF;fill:color(display-p3 0.9490 0.0000 1.0000);fill-opacity:1;"/>
<path d="M16.2438 13.8519L22.4995 15.4116L22.769 14.3306L16.5133 12.7709L16.2438 13.8519Z" fill="#F600FF" style="fill:#F600FF;fill:color(display-p3 0.9647 0.0000 1.0000);fill-opacity:1;"/>
<path d="M16.2146 13.9272L22.4421 15.5959L22.7305 14.5197L16.503 12.8511L16.2146 13.9272Z" fill="#FA00FF" style="fill:#FA00FF;fill:color(display-p3 0.9804 0.0000 1.0000);fill-opacity:1;"/>
<path d="M16.1841 14.002L22.3815 15.7791L22.6886 14.7082L16.4912 12.9311L16.1841 14.002Z" fill="#FF00FF" style="fill:#FF00FF;fill:color(display-p3 1.0000 0.0000 1.0000);fill-opacity:1;"/>
<path d="M16.1522 14.0763L22.3177 15.9612L22.6435 14.8958L16.478 13.0108L16.1522 14.0763Z" fill="#FF00FB" style="fill:#FF00FB;fill:color(display-p3 1.0000 0.0000 0.9843);fill-opacity:1;"/>
<path d="M16.1191 14.1499L22.2507 16.1422L22.595 15.0826L16.4633 13.0903L16.1191 14.1499Z" fill="#FF00F7" style="fill:#FF00F7;fill:color(display-p3 1.0000 0.0000 0.9686);fill-opacity:1;"/>
<path d="M16.0847 14.223L22.1807 16.322L22.5434 15.2686L16.4474 13.1696L16.0847 14.223Z" fill="#FF00F3" style="fill:#FF00F3;fill:color(display-p3 1.0000 0.0000 0.9529);fill-opacity:1;"/>
<path d="M16.049 14.2955L22.1074 16.5006L22.4885 15.4537L16.4301 13.2486L16.049 14.2955Z" fill="#FF00EE" style="fill:#FF00EE;fill:color(display-p3 1.0000 0.0000 0.9333);fill-opacity:1;"/>
<path d="M16.0121 14.3673L22.0311 16.6778L22.4303 15.6377L16.4113 13.3272L16.0121 14.3673Z" fill="#FF00EA" style="fill:#FF00EA;fill:color(display-p3 1.0000 0.0000 0.9176);fill-opacity:1;"/>
<path d="M15.9739 14.4385L21.9517 16.8537L22.369 15.8207L16.3913 13.4055L15.9739 14.4385Z" fill="#FF00E6" style="fill:#FF00E6;fill:color(display-p3 1.0000 0.0000 0.9020);fill-opacity:1;"/>
<path d="M15.9344 14.5091L21.8691 17.0282L22.3045 16.0026L16.3698 13.4835L15.9344 14.5091Z" fill="#FF00E2" style="fill:#FF00E2;fill:color(display-p3 1.0000 0.0000 0.8863);fill-opacity:1;"/>
<path d="M15.8938 14.5788L21.7836 17.2012L22.2368 16.1834L16.347 13.561L15.8938 14.5788Z" fill="#FF00DD" style="fill:#FF00DD;fill:color(display-p3 1.0000 0.0000 0.8667);fill-opacity:1;"/>
<path d="M15.852 14.648L21.6951 17.3727L22.166 16.3629L16.3228 13.6382L15.852 14.648Z" fill="#FF00D9" style="fill:#FF00D9;fill:color(display-p3 1.0000 0.0000 0.8510);fill-opacity:1;"/>
<path d="M15.8089 14.7163L21.6036 17.5426L22.092 16.5412L16.2972 13.715L15.8089 14.7163Z" fill="#FF00D5" style="fill:#FF00D5;fill:color(display-p3 1.0000 0.0000 0.8353);fill-opacity:1;"/>
<path d="M15.7646 14.7839L21.5092 17.7109L22.015 16.7182L16.2704 13.7912L15.7646 14.7839Z" fill="#FF00D1" style="fill:#FF00D1;fill:color(display-p3 1.0000 0.0000 0.8196);fill-opacity:1;"/>
<path d="M15.7192 14.8507L21.4117 17.8775L21.9348 16.8938L16.2422 13.867L15.7192 14.8507Z" fill="#FF00CC" style="fill:#FF00CC;fill:color(display-p3 1.0000 0.0000 0.8000);fill-opacity:1;"/>
<path d="M15.6727 14.9167L21.3115 18.0424L21.8517 17.0679L16.2128 13.9423L15.6727 14.9167Z" fill="#FF00C8" style="fill:#FF00C8;fill:color(display-p3 1.0000 0.0000 0.7843);fill-opacity:1;"/>
<path d="M15.6249 14.9819L21.2084 18.2055L21.7654 17.2406L16.182 14.017L15.6249 14.9819Z" fill="#FF00C4" style="fill:#FF00C4;fill:color(display-p3 1.0000 0.0000 0.7686);fill-opacity:1;"/>
<path d="M15.5761 15.0463L21.1024 18.3668L21.6762 17.4118L16.1499 14.0913L15.5761 15.0463Z" fill="#FF00C0" style="fill:#FF00C0;fill:color(display-p3 1.0000 0.0000 0.7529);fill-opacity:1;"/>
<path d="M15.5261 15.1097L20.9937 18.5262L21.584 17.5814L16.1165 14.1649L15.5261 15.1097Z" fill="#FF00BB" style="fill:#FF00BB;fill:color(display-p3 1.0000 0.0000 0.7333);fill-opacity:1;"/>
<path d="M15.475 15.1723L20.8821 18.6837L21.4889 17.7493L16.0818 14.2379L15.475 15.1723Z" fill="#FF00B7" style="fill:#FF00B7;fill:color(display-p3 1.0000 0.0000 0.7176);fill-opacity:1;"/>
<path d="M15.4228 15.234L20.7678 18.8392L21.3908 17.9156L16.0458 14.3103L15.4228 15.234Z" fill="#FF00B3" style="fill:#FF00B3;fill:color(display-p3 1.0000 0.0000 0.7020);fill-opacity:1;"/>
<path d="M15.3696 15.2948L20.6509 18.9927L21.2899 18.0801L16.0087 14.3821L15.3696 15.2948Z" fill="#FF00AF" style="fill:#FF00AF;fill:color(display-p3 1.0000 0.0000 0.6863);fill-opacity:1;"/>
<path d="M15.3153 15.3546L20.5312 19.1442L21.1861 18.2428L15.9702 14.4532L15.3153 15.3546Z" fill="#FF00AB" style="fill:#FF00AB;fill:color(display-p3 1.0000 0.0000 0.6706);fill-opacity:1;"/>
<path d="M15.26 15.4135L20.409 19.2935L21.0795 18.4037L15.9305 14.5237L15.26 15.4135Z" fill="#FF00A6" style="fill:#FF00A6;fill:color(display-p3 1.0000 0.0000 0.6510);fill-opacity:1;"/>
<path d="M15.2037 15.4714L20.2842 19.4407L20.9701 18.5628L15.8896 14.5935L15.2037 15.4714Z" fill="#FF00A2" style="fill:#FF00A2;fill:color(display-p3 1.0000 0.0000 0.6353);fill-opacity:1;"/>
<path d="M15.1464 15.5283L20.1568 19.5857L20.8579 18.7199L15.8475 14.6625L15.1464 15.5283Z" fill="#FF009E" style="fill:#FF009E;fill:color(display-p3 1.0000 0.0000 0.6196);fill-opacity:1;"/>
<path d="M15.0881 15.5842L20.0269 19.7284L20.7431 18.8749L15.8042 14.7307L15.0881 15.5842Z" fill="#FF009A" style="fill:#FF009A;fill:color(display-p3 1.0000 0.0000 0.6039);fill-opacity:1;"/>
<path d="M15.0287 15.6391L19.8945 19.8688L20.6255 19.028L15.7597 14.7982L15.0287 15.6391Z" fill="#FF0095" style="fill:#FF0095;fill:color(display-p3 1.0000 0.0000 0.5843);fill-opacity:1;"/>
<path d="M14.9685 15.6929L19.7598 20.007L20.5053 19.179L15.714 14.865L14.9685 15.6929Z" fill="#FF0091" style="fill:#FF0091;fill:color(display-p3 1.0000 0.0000 0.5686);fill-opacity:1;"/>
<path d="M14.9074 15.7457L19.6226 20.1427L20.3824 19.3279L15.6672 14.9309L14.9074 15.7457Z" fill="#FF008D" style="fill:#FF008D;fill:color(display-p3 1.0000 0.0000 0.5529);fill-opacity:1;"/>
<path d="M14.8453 15.7974L19.483 20.276L20.257 19.4746L15.6192 14.996L14.8453 15.7974Z" fill="#FF0089" style="fill:#FF0089;fill:color(display-p3 1.0000 0.0000 0.5373);fill-opacity:1;"/>
<path d="M14.7823 15.848L19.3412 20.4069L20.129 19.6191L15.5701 15.0602L14.7823 15.848Z" fill="#FF0084" style="fill:#FF0084;fill:color(display-p3 1.0000 0.0000 0.5176);fill-opacity:1;"/>
<path d="M14.7185 15.8975L19.1971 20.5353L19.9985 19.7613L15.5199 15.1236L14.7185 15.8975Z" fill="#FF0080" style="fill:#FF0080;fill:color(display-p3 1.0000 0.0000 0.5020);fill-opacity:1;"/>
<path d="M14.6538 15.9459L19.0508 20.6611L19.8656 19.9012L15.4686 15.186L14.6538 15.9459Z" fill="#FF007C" style="fill:#FF007C;fill:color(display-p3 1.0000 0.0000 0.4863);fill-opacity:1;"/>
<path d="M14.5882 15.9931L18.9023 20.7844L19.7302 20.0389L15.4162 15.2476L14.5882 15.9931Z" fill="#FF0078" style="fill:#FF0078;fill:color(display-p3 1.0000 0.0000 0.4706);fill-opacity:1;"/>
<path d="M14.5219 16.0392L18.7516 20.905L19.5925 20.1741L15.3627 15.3083L14.5219 16.0392Z" fill="#FF0073" style="fill:#FF0073;fill:color(display-p3 1.0000 0.0000 0.4510);fill-opacity:1;"/>
<path d="M14.4548 16.0842L18.599 21.023L19.4525 20.3069L15.3083 15.368L14.4548 16.0842Z" fill="#FF006F" style="fill:#FF006F;fill:color(display-p3 1.0000 0.0000 0.4353);fill-opacity:1;"/>
<path d="M14.3868 16.1279L18.4442 21.1384L19.31 20.4372L15.2527 15.4268L14.3868 16.1279Z" fill="#FF006B" style="fill:#FF006B;fill:color(display-p3 1.0000 0.0000 0.4196);fill-opacity:1;"/>
<path d="M14.3182 16.1705L18.2875 21.251L19.1654 20.5651L15.1961 15.4846L14.3182 16.1705Z" fill="#FF0067" style="fill:#FF0067;fill:color(display-p3 1.0000 0.0000 0.4039);fill-opacity:1;"/>
<path d="M14.2488 16.2118L18.1288 21.3608L19.0186 20.6903L15.1386 15.5413L14.2488 16.2118Z" fill="#FF0062" style="fill:#FF0062;fill:color(display-p3 1.0000 0.0000 0.3843);fill-opacity:1;"/>
<path d="M14.1787 16.252L17.9683 21.4679L18.8696 20.813L15.08 15.5971L14.1787 16.252Z" fill="#FF005E" style="fill:#FF005E;fill:color(display-p3 1.0000 0.0000 0.3686);fill-opacity:1;"/>
<path d="M14.1079 16.2909L17.8058 21.5721L18.7185 20.9331L15.0205 15.6519L14.1079 16.2909Z" fill="#FF005A" style="fill:#FF005A;fill:color(display-p3 1.0000 0.0000 0.3529);fill-opacity:1;"/>
<path d="M14.0364 16.3285L17.6417 21.6735L18.5653 21.0505L14.9601 15.7055L14.0364 16.3285Z" fill="#FF0056" style="fill:#FF0056;fill:color(display-p3 1.0000 0.0000 0.3373);fill-opacity:1;"/>
<path d="M13.9643 16.3649L17.4757 21.772L18.4101 21.1652L14.8987 15.7581L13.9643 16.3649Z" fill="#FF0052" style="fill:#FF0052;fill:color(display-p3 1.0000 0.0000 0.3216);fill-opacity:1;"/>
<path d="M13.8916 16.4001L17.3081 21.8677L18.2529 21.2773L14.8364 15.8097L13.8916 16.4001Z" fill="#FF004D" style="fill:#FF004D;fill:color(display-p3 1.0000 0.0000 0.3020);fill-opacity:1;"/>
<path d="M13.8182 16.434L17.1388 21.9603L18.0938 21.3865L14.7732 15.8602L13.8182 16.434Z" fill="#FF0049" style="fill:#FF0049;fill:color(display-p3 1.0000 0.0000 0.2863);fill-opacity:1;"/>
<path d="M13.7443 16.4665L16.9679 22.05L17.9328 21.4929L14.7091 15.9095L13.7443 16.4665Z" fill="#FF0045" style="fill:#FF0045;fill:color(display-p3 1.0000 0.0000 0.2706);fill-opacity:1;"/>
<path d="M13.6699 16.4978L16.7955 22.1367L17.77 21.5966L14.6443 15.9577L13.6699 16.4978Z" fill="#FF0041" style="fill:#FF0041;fill:color(display-p3 1.0000 0.0000 0.2549);fill-opacity:1;"/>
<path d="M13.5948 16.5278L16.6216 22.2204L17.6053 21.6973L14.5785 16.0048L13.5948 16.5278Z" fill="#FF003C" style="fill:#FF003C;fill:color(display-p3 1.0000 0.0000 0.2353);fill-opacity:1;"/>
<path d="M13.5193 16.5565L16.4463 22.301L17.439 21.7952L14.512 16.0507L13.5193 16.5565Z" fill="#FF0038" style="fill:#FF0038;fill:color(display-p3 1.0000 0.0000 0.2196);fill-opacity:1;"/>
<path d="M13.4433 16.5839L16.2695 22.3786L17.2709 21.8902L14.4446 16.0955L13.4433 16.5839Z" fill="#FF0034" style="fill:#FF0034;fill:color(display-p3 1.0000 0.0000 0.2039);fill-opacity:1;"/>
<path d="M13.3668 16.6099L16.0915 22.4531L17.1012 21.9822L14.3765 16.139L13.3668 16.6099Z" fill="#FF0030" style="fill:#FF0030;fill:color(display-p3 1.0000 0.0000 0.1882);fill-opacity:1;"/>
<path d="M13.2898 16.6346L15.9122 22.5244L16.93 22.0713L14.3076 16.1814L13.2898 16.6346Z" fill="#FF002B" style="fill:#FF002B;fill:color(display-p3 1.0000 0.0000 0.1686);fill-opacity:1;"/>
<path d="M13.2125 16.6579L15.7316 22.5926L16.7572 22.1573L14.2381 16.2226L13.2125 16.6579Z" fill="#FF0027" style="fill:#FF0027;fill:color(display-p3 1.0000 0.0000 0.1529);fill-opacity:1;"/>
<path d="M13.1348 16.6799L15.55 22.6577L16.583 22.2403L14.1678 16.2625L13.1348 16.6799Z" fill="#FF0023" style="fill:#FF0023;fill:color(display-p3 1.0000 0.0000 0.1373);fill-opacity:1;"/>
<path d="M13.0567 16.7005L15.3672 22.7195L16.4073 22.3202L14.0968 16.3012L13.0567 16.7005Z" fill="#FF001F" style="fill:#FF001F;fill:color(display-p3 1.0000 0.0000 0.1216);fill-opacity:1;"/>
<path d="M12.9782 16.7197L15.1833 22.7781L16.2302 22.3971L14.0251 16.3387L12.9782 16.7197Z" fill="#FF001A" style="fill:#FF001A;fill:color(display-p3 1.0000 0.0000 0.1020);fill-opacity:1;"/>
<path d="M12.8995 16.7376L14.9985 22.8336L16.0519 22.4709L13.9529 16.3749L12.8995 16.7376Z" fill="#FF0016" style="fill:#FF0016;fill:color(display-p3 1.0000 0.0000 0.0863);fill-opacity:1;"/>
<path d="M12.8204 16.7541L14.8127 22.8858L15.8723 22.5415L13.88 16.4098L12.8204 16.7541Z" fill="#FF0012" style="fill:#FF0012;fill:color(display-p3 1.0000 0.0000 0.0706);fill-opacity:1;"/>
<path d="M12.741 16.7692L14.626 22.9348L15.6914 22.609L13.8064 16.4435L12.741 16.7692Z" fill="#FF000E" style="fill:#FF000E;fill:color(display-p3 1.0000 0.0000 0.0549);fill-opacity:1;"/>
<path d="M12.6614 16.783L14.4385 22.9805L15.5094 22.6734L13.7323 16.4759L12.6614 16.783Z" fill="#FF0009" style="fill:#FF0009;fill:color(display-p3 1.0000 0.0000 0.0353);fill-opacity:1;"/>
<path d="M12.5816 16.7953L14.2502 23.0229L15.3264 22.7345L13.6577 16.507L12.5816 16.7953Z" fill="#FF0005" style="fill:#FF0005;fill:color(display-p3 1.0000 0.0000 0.0196);fill-opacity:1;"/>
<path d="M12.5015 16.8063L14.0612 23.062L15.1422 22.7925L13.5825 16.5368L12.5015 16.8063Z" fill="#FF0001" style="fill:#FF0001;fill:color(display-p3 1.0000 0.0000 0.0039);fill-opacity:1;"/>
<path d="M12.4213 16.8159L13.8716 23.0978L14.9571 22.8472L13.5068 16.5652L12.4213 16.8159Z" fill="#FF0300" style="fill:#FF0300;fill:color(display-p3 1.0000 0.0118 0.0000);fill-opacity:1;"/>
<path d="M12.3409 16.824L13.6814 23.1303L14.7712 22.8987L13.4307 16.5923L12.3409 16.824Z" fill="#FF0700" style="fill:#FF0700;fill:color(display-p3 1.0000 0.0275 0.0000);fill-opacity:1;"/>
<path d="M12.2604 16.8307L13.4906 23.1595L14.5843 22.9469L13.3541 16.6181L12.2604 16.8307Z" fill="#FF0C00" style="fill:#FF0C00;fill:color(display-p3 1.0000 0.0471 0.0000);fill-opacity:1;"/>
<path d="M12.1798 16.8361L13.2994 23.1854L14.3966 22.9919L13.277 16.6426L12.1798 16.8361Z" fill="#FF1000" style="fill:#FF1000;fill:color(display-p3 1.0000 0.0627 0.0000);fill-opacity:1;"/>
<path d="M12.0991 16.84L13.1077 23.2079L14.2081 23.0336L13.1995 16.6658L12.0991 16.84Z" fill="#FF1400" style="fill:#FF1400;fill:color(display-p3 1.0000 0.0784 0.0000);fill-opacity:1;"/>
<path d="M12.0184 16.8425L12.9156 23.227L14.0189 23.0719L13.1216 16.6875L12.0184 16.8425Z" fill="#FF1800" style="fill:#FF1800;fill:color(display-p3 1.0000 0.0941 0.0000);fill-opacity:1;"/>
<path d="M11.9376 16.8436L12.7233 23.2428L13.8291 23.107L13.0434 16.7079L11.9376 16.8436Z" fill="#FF1D00" style="fill:#FF1D00;fill:color(display-p3 1.0000 0.1137 0.0000);fill-opacity:1;"/>
<path d="M11.8568 16.8433L12.5307 23.2552L13.6387 23.1388L12.9648 16.7269L11.8568 16.8433Z" fill="#FF2100" style="fill:#FF2100;fill:color(display-p3 1.0000 0.1294 0.0000);fill-opacity:1;"/>
<path d="M11.776 16.8417L12.338 23.2643L13.4478 23.1672L12.8859 16.7446L11.776 16.8417Z" fill="#FF2500" style="fill:#FF2500;fill:color(display-p3 1.0000 0.1451 0.0000);fill-opacity:1;"/>
<path d="M11.6953 16.8386L12.1451 23.2701L13.2565 23.1924L12.8068 16.7608L11.6953 16.8386Z" fill="#FF2900" style="fill:#FF2900;fill:color(display-p3 1.0000 0.1608 0.0000);fill-opacity:1;"/>
<path d="M11.6147 16.834L11.9521 23.2724L13.0647 23.2141L12.7273 16.7757L11.6147 16.834Z" fill="#FF2E00" style="fill:#FF2E00;fill:color(display-p3 1.0000 0.1804 0.0000);fill-opacity:1;"/>
<path d="M11.5341 16.8281L11.7591 23.2714L12.8725 23.2325L12.6475 16.7892L11.5341 16.8281Z" fill="#FF3200" style="fill:#FF3200;fill:color(display-p3 1.0000 0.1961 0.0000);fill-opacity:1;"/>
<path d="M11.4536 16.8207L11.5662 23.267L12.6801 23.2475L12.5676 16.8013L11.4536 16.8207Z" fill="#FF3600" style="fill:#FF3600;fill:color(display-p3 1.0000 0.2118 0.0000);fill-opacity:1;"/>
<path d="M11.3734 16.812V23.2592H12.4875V16.812H11.3734Z" fill="#FF3A00" style="fill:#FF3A00;fill:color(display-p3 1.0000 0.2275 0.0000);fill-opacity:1;"/>
<path d="M11.2932 16.8019L11.1807 23.2481L12.2946 23.2676L12.4071 16.8213L11.2932 16.8019Z" fill="#FF3F00" style="fill:#FF3F00;fill:color(display-p3 1.0000 0.2471 0.0000);fill-opacity:1;"/>
<path d="M11.2132 16.7903L10.9882 23.2336L12.1017 23.2725L12.3267 16.8292L11.2132 16.7903Z" fill="#FF4300" style="fill:#FF4300;fill:color(display-p3 1.0000 0.2627 0.0000);fill-opacity:1;"/>
<path d="M11.1335 16.7774L10.7961 23.2158L11.9087 23.2741L12.2461 16.8357L11.1335 16.7774Z" fill="#FF4700" style="fill:#FF4700;fill:color(display-p3 1.0000 0.2784 0.0000);fill-opacity:1;"/>
<path d="M11.054 16.7631L10.6042 23.1946L11.7157 23.2723L12.1654 16.8408L11.054 16.7631Z" fill="#FF4B00" style="fill:#FF4B00;fill:color(display-p3 1.0000 0.2941 0.0000);fill-opacity:1;"/>
<path d="M10.9748 16.7474L10.4128 23.17L11.5227 23.2671L12.0846 16.8445L10.9748 16.7474Z" fill="#FF5000" style="fill:#FF5000;fill:color(display-p3 1.0000 0.3137 0.0000);fill-opacity:1;"/>
<path d="M10.8958 16.7303L10.2219 23.1422L11.3299 23.2587L12.0038 16.8468L10.8958 16.7303Z" fill="#FF5400" style="fill:#FF5400;fill:color(display-p3 1.0000 0.3294 0.0000);fill-opacity:1;"/>
<path d="M10.8172 16.7118L10.0314 23.111L11.1372 23.2467L11.923 16.8476L10.8172 16.7118Z" fill="#FF5800" style="fill:#FF5800;fill:color(display-p3 1.0000 0.3451 0.0000);fill-opacity:1;"/>
<path d="M10.7388 16.692L9.84155 23.0765L10.9448 23.2315L11.8421 16.8471L10.7388 16.692Z" fill="#FF5C00" style="fill:#FF5C00;fill:color(display-p3 1.0000 0.3608 0.0000);fill-opacity:1;"/>
<path d="M10.6609 16.6708L9.65228 23.0386L10.7527 23.2129L11.7613 16.8451L10.6609 16.6708Z" fill="#FF6000" style="fill:#FF6000;fill:color(display-p3 1.0000 0.3765 0.0000);fill-opacity:1;"/>
<path d="M10.5833 16.6482L9.46375 22.9975L10.5609 23.191L11.6805 16.8417L10.5833 16.6482Z" fill="#FF6500" style="fill:#FF6500;fill:color(display-p3 1.0000 0.3961 0.0000);fill-opacity:1;"/>
<path d="M10.5061 16.6244L9.27594 22.9531L10.3696 23.1657L11.5998 16.8369L10.5061 16.6244Z" fill="#FF6900" style="fill:#FF6900;fill:color(display-p3 1.0000 0.4118 0.0000);fill-opacity:1;"/>
<path d="M10.4294 16.5991L9.08893 22.9055L10.1787 23.1371L11.5192 16.8308L10.4294 16.5991Z" fill="#FF6D00" style="fill:#FF6D00;fill:color(display-p3 1.0000 0.4275 0.0000);fill-opacity:1;"/>
<path d="M10.3531 16.5725L8.90277 22.8545L9.98834 23.1051L11.4386 16.8231L10.3531 16.5725Z" fill="#FF7100" style="fill:#FF7100;fill:color(display-p3 1.0000 0.4431 0.0000);fill-opacity:1;"/>
<path d="M10.2773 16.5446L8.71753 22.8003L9.79856 23.0698L11.3583 16.8141L10.2773 16.5446Z" fill="#FF7600" style="fill:#FF7600;fill:color(display-p3 1.0000 0.4627 0.0000);fill-opacity:1;"/>
<path d="M10.202 16.5154L8.53333 22.7429L9.60948 23.0313L11.2781 16.8037L10.202 16.5154Z" fill="#FF7A00" style="fill:#FF7A00;fill:color(display-p3 1.0000 0.4784 0.0000);fill-opacity:1;"/>
<path d="M10.1272 16.4848L8.3501 22.6823L9.42106 22.9894L11.1982 16.7919L10.1272 16.4848Z" fill="#FF7E00" style="fill:#FF7E00;fill:color(display-p3 1.0000 0.4941 0.0000);fill-opacity:1;"/>
<path d="M10.0529 16.453L8.16791 22.6185L9.23335 22.9443L11.1183 16.7788L10.0529 16.453Z" fill="#FF8200" style="fill:#FF8200;fill:color(display-p3 1.0000 0.5098 0.0000);fill-opacity:1;"/>
<path d="M9.97924 16.4199L7.98694 22.5516L9.04653 22.8959L11.0388 16.7642L9.97924 16.4199Z" fill="#FF8700" style="fill:#FF8700;fill:color(display-p3 1.0000 0.5294 0.0000);fill-opacity:1;"/>
<path d="M9.90614 16.3855L7.80713 22.4814L8.86055 22.8442L10.9596 16.7482L9.90614 16.3855Z" fill="#FF8B00" style="fill:#FF8B00;fill:color(display-p3 1.0000 0.5451 0.0000);fill-opacity:1;"/>
<path d="M9.83368 16.3498L7.6286 22.4082L8.67553 22.7893L10.8806 16.7308L9.83368 16.3498Z" fill="#FF8F00" style="fill:#FF8F00;fill:color(display-p3 1.0000 0.5608 0.0000);fill-opacity:1;"/>
<path d="M9.76183 16.3128L7.45135 22.3318L8.49148 22.7311L10.802 16.7121L9.76183 16.3128Z" fill="#FF9300" style="fill:#FF9300;fill:color(display-p3 1.0000 0.5765 0.0000);fill-opacity:1;"/>
<path d="M9.69062 16.2747L7.27545 22.2524L8.30845 22.6698L10.7236 16.692L9.69062 16.2747Z" fill="#FF9800" style="fill:#FF9800;fill:color(display-p3 1.0000 0.5961 0.0000);fill-opacity:1;"/>
<path d="M9.62014 16.2352L7.10101 22.1699L8.12657 22.6052L10.6457 16.6705L9.62014 16.2352Z" fill="#FF9C00" style="fill:#FF9C00;fill:color(display-p3 1.0000 0.6118 0.0000);fill-opacity:1;"/>
<path d="M9.5503 16.1946L6.92798 22.0844L7.94578 22.5376L10.5681 16.6477L9.5503 16.1946Z" fill="#FFA000" style="fill:#FFA000;fill:color(display-p3 1.0000 0.6275 0.0000);fill-opacity:1;"/>
<path d="M9.48125 16.1527L6.75653 21.9959L7.76627 22.4668L10.491 16.6236L9.48125 16.1527Z" fill="#FFA400" style="fill:#FFA400;fill:color(display-p3 1.0000 0.6431 0.0000);fill-opacity:1;"/>
<path d="M9.41289 16.1096L6.58661 21.9044L7.58797 22.3928L10.4143 16.598L9.41289 16.1096Z" fill="#FFA900" style="fill:#FFA900;fill:color(display-p3 1.0000 0.6627 0.0000);fill-opacity:1;"/>
<path d="M9.34525 16.0654L6.41827 21.8099L7.41096 22.3157L10.3379 16.5712L9.34525 16.0654Z" fill="#FFAD00" style="fill:#FFAD00;fill:color(display-p3 1.0000 0.6784 0.0000);fill-opacity:1;"/>
<path d="M9.2785 16.02L6.25171 21.7125L7.23542 22.2356L10.2622 16.543L9.2785 16.02Z" fill="#FFB100" style="fill:#FFB100;fill:color(display-p3 1.0000 0.6941 0.0000);fill-opacity:1;"/>
<path d="M9.21247 15.9734L6.08679 21.6123L7.06122 22.1524L10.1869 16.5136L9.21247 15.9734Z" fill="#FFB500" style="fill:#FFB500;fill:color(display-p3 1.0000 0.7098 0.0000);fill-opacity:1;"/>
<path d="M9.14726 15.9257L5.92365 21.5092L6.8885 22.0662L10.1121 16.4828L9.14726 15.9257Z" fill="#FFB900" style="fill:#FFB900;fill:color(display-p3 1.0000 0.7255 0.0000);fill-opacity:1;"/>
<path d="M9.08296 15.8768L5.76239 21.4032L6.71738 21.977L10.0379 16.4507L9.08296 15.8768Z" fill="#FFBE00" style="fill:#FFBE00;fill:color(display-p3 1.0000 0.7451 0.0000);fill-opacity:1;"/>
<path d="M9.01947 15.8269L5.60297 21.2944L6.54779 21.8848L9.9643 16.4173L9.01947 15.8269Z" fill="#FFC200" style="fill:#FFC200;fill:color(display-p3 1.0000 0.7608 0.0000);fill-opacity:1;"/>
<path d="M8.95684 15.7758L5.44543 21.1829L6.37981 21.7897L9.89122 16.3826L8.95684 15.7758Z" fill="#FFC600" style="fill:#FFC600;fill:color(display-p3 1.0000 0.7765 0.0000);fill-opacity:1;"/>
<path d="M8.89516 15.7236L5.28992 21.0686L6.21356 21.6916L9.81881 16.3466L8.89516 15.7236Z" fill="#FFCA00" style="fill:#FFCA00;fill:color(display-p3 1.0000 0.7922 0.0000);fill-opacity:1;"/>
<path d="M8.83439 15.6704L5.13641 20.9517L6.04905 21.5907L9.74702 16.3094L8.83439 15.6704Z" fill="#FFCF00" style="fill:#FFCF00;fill:color(display-p3 1.0000 0.8118 0.0000);fill-opacity:1;"/>
<path d="M8.77457 15.6161L4.98499 20.832L5.88633 21.4869L9.67591 16.271L8.77457 15.6161Z" fill="#FFD300" style="fill:#FFD300;fill:color(display-p3 1.0000 0.8275 0.0000);fill-opacity:1;"/>
<path d="M8.71567 15.5608L4.83563 20.7098L5.72541 21.3803L9.60544 16.2313L8.71567 15.5608Z" fill="#FFD700" style="fill:#FFD700;fill:color(display-p3 1.0000 0.8431 0.0000);fill-opacity:1;"/>
<path d="M8.65778 15.5045L4.68848 20.585L5.56642 21.2709L9.53572 16.1904L8.65778 15.5045Z" fill="#FFDB00" style="fill:#FFDB00;fill:color(display-p3 1.0000 0.8588 0.0000);fill-opacity:1;"/>
<path d="M8.60089 15.4471L4.54352 20.4576L5.40935 21.1587L9.46672 16.1483L8.60089 15.4471Z" fill="#FFE000" style="fill:#FFE000;fill:color(display-p3 1.0000 0.8784 0.0000);fill-opacity:1;"/>
<path d="M8.54495 15.3888L4.40076 20.3277L5.25422 21.0438L9.39842 16.105L8.54495 15.3888Z" fill="#FFE400" style="fill:#FFE400;fill:color(display-p3 1.0000 0.8941 0.0000);fill-opacity:1;"/>
<path d="M8.49007 15.3295L4.26031 20.1953L5.10115 20.9262L9.33091 16.0605L8.49007 15.3295Z" fill="#FFE800" style="fill:#FFE800;fill:color(display-p3 1.0000 0.9098 0.0000);fill-opacity:1;"/>
<path d="M8.43623 15.2693L4.12219 20.0605L4.95015 20.806L9.26418 16.0148L8.43623 15.2693Z" fill="#FFEC00" style="fill:#FFEC00;fill:color(display-p3 1.0000 0.9255 0.0000);fill-opacity:1;"/>
<path d="M8.38345 15.2081L3.98645 19.9233L4.80127 20.6832L9.19826 15.968L8.38345 15.2081Z" fill="#FFF100" style="fill:#FFF100;fill:color(display-p3 1.0000 0.9451 0.0000);fill-opacity:1;"/>
<path d="M8.33177 15.1461L3.85315 19.7838L4.65458 20.5577L9.1332 15.92L8.33177 15.1461Z" fill="#FFF500" style="fill:#FFF500;fill:color(display-p3 1.0000 0.9608 0.0000);fill-opacity:1;"/>
<path d="M8.28117 15.0831L3.72229 19.642L4.51009 20.4298L9.06897 15.8709L8.28117 15.0831Z" fill="#FFF900" style="fill:#FFF900;fill:color(display-p3 1.0000 0.9765 0.0000);fill-opacity:1;"/>
<path d="M8.23168 15.0192L3.59393 19.4979L4.36787 20.2993L9.00561 15.8207L8.23168 15.0192Z" fill="#FFFD00" style="fill:#FFFD00;fill:color(display-p3 1.0000 0.9922 0.0000);fill-opacity:1;"/>
<path d="M8.18328 14.9546L3.46808 19.3516L4.22791 20.1664L8.94311 15.7694L8.18328 14.9546Z" fill="#FCFF00" style="fill:#FCFF00;fill:color(display-p3 0.9882 1.0000 0.0000);fill-opacity:1;"/>
<path d="M8.13601 14.889L3.34479 19.2031L4.09028 20.031L8.8815 15.717L8.13601 14.889Z" fill="#F8FF00" style="fill:#F8FF00;fill:color(display-p3 0.9725 1.0000 0.0000);fill-opacity:1;"/>
<path d="M8.08996 14.8227L3.22418 19.0525L3.95511 19.8933L8.82089 15.6636L8.08996 14.8227Z" fill="#F4FF00" style="fill:#F4FF00;fill:color(display-p3 0.9569 1.0000 0.0000);fill-opacity:1;"/>
<path d="M8.045 14.7556L3.10614 18.8998L3.82228 19.7532L8.76114 15.6091L8.045 14.7556Z" fill="#F0FF00" style="fill:#F0FF00;fill:color(display-p3 0.9412 1.0000 0.0000);fill-opacity:1;"/>
<path d="M8.00128 14.6876L2.99084 18.745L3.69198 19.6108L8.70242 15.5535L8.00128 14.6876Z" fill="#ECFF00" style="fill:#ECFF00;fill:color(display-p3 0.9255 1.0000 0.0000);fill-opacity:1;"/>
<path d="M7.95872 14.619L2.87823 18.5883L3.56416 19.4663L8.64464 15.4969L7.95872 14.619Z" fill="#E7FF00" style="fill:#E7FF00;fill:color(display-p3 0.9059 1.0000 0.0000);fill-opacity:1;"/>
<path d="M7.91735 14.5496L2.76837 18.4296L3.43887 19.3194L8.58785 15.4394L7.91735 14.5496Z" fill="#E3FF00" style="fill:#E3FF00;fill:color(display-p3 0.8902 1.0000 0.0000);fill-opacity:1;"/>
<path d="M7.87723 14.4795L2.66132 18.269L3.31618 19.1704L8.53209 15.3808L7.87723 14.4795Z" fill="#DFFF00" style="fill:#DFFF00;fill:color(display-p3 0.8745 1.0000 0.0000);fill-opacity:1;"/>
<path d="M7.83832 14.4087L2.55707 18.1066L3.1961 19.0193L8.47736 15.3213L7.83832 14.4087Z" fill="#DBFF00" style="fill:#DBFF00;fill:color(display-p3 0.8588 1.0000 0.0000);fill-opacity:1;"/>
<path d="M7.80062 14.3372L2.45563 17.9424L3.07864 18.8661L8.42363 15.2609L7.80062 14.3372Z" fill="#D6FF00" style="fill:#D6FF00;fill:color(display-p3 0.8392 1.0000 0.0000);fill-opacity:1;"/>
<path d="M7.76421 14.2651L2.35712 17.7765L2.96391 18.7109L8.37101 15.1995L7.76421 14.2651Z" fill="#D2FF00" style="fill:#D2FF00;fill:color(display-p3 0.8235 1.0000 0.0000);fill-opacity:1;"/>
<path d="M7.72909 14.1923L2.26154 17.6088L2.85193 18.5537L8.31949 15.1371L7.72909 14.1923Z" fill="#CEFF00" style="fill:#CEFF00;fill:color(display-p3 0.8078 1.0000 0.0000);fill-opacity:1;"/>
<path d="M7.69523 14.119L2.16888 17.4396L2.7427 18.3946L8.26905 15.074L7.69523 14.119Z" fill="#CAFF00" style="fill:#CAFF00;fill:color(display-p3 0.7922 1.0000 0.0000);fill-opacity:1;"/>
<path d="M7.66262 14.0451L2.07916 17.2687L2.63622 18.2335L8.21968 15.0099L7.66262 14.0451Z" fill="#C5FF00" style="fill:#C5FF00;fill:color(display-p3 0.7725 1.0000 0.0000);fill-opacity:1;"/>
<path d="M7.63136 13.9706L1.99249 17.0963L2.53263 18.0707L8.1715 14.9451L7.63136 13.9706Z" fill="#C1FF00" style="fill:#C1FF00;fill:color(display-p3 0.7569 1.0000 0.0000);fill-opacity:1;"/>
<path d="M7.60137 13.8956L1.90881 16.9224L2.43186 17.9061L8.12442 14.8793L7.60137 13.8956Z" fill="#BDFF00" style="fill:#BDFF00;fill:color(display-p3 0.7412 1.0000 0.0000);fill-opacity:1;"/>
<path d="M7.57264 13.8201L1.82812 16.7471L2.33393 17.7398L8.07844 14.8128L7.57264 13.8201Z" fill="#B9FF00" style="fill:#B9FF00;fill:color(display-p3 0.7255 1.0000 0.0000);fill-opacity:1;"/>
<path d="M7.54534 13.744L1.75061 16.5703L2.23901 17.5717L8.03374 14.7454L7.54534 13.744Z" fill="#B4FF00" style="fill:#B4FF00;fill:color(display-p3 0.7059 1.0000 0.0000);fill-opacity:1;"/>
<path d="M7.51932 13.6676L1.67615 16.3923L2.147 17.402L7.99016 14.6773L7.51932 13.6676Z" fill="#B0FF00" style="fill:#B0FF00;fill:color(display-p3 0.6902 1.0000 0.0000);fill-opacity:1;"/>
<path d="M7.49463 13.5906L1.6048 16.213L2.05795 17.2308L7.94778 14.6084L7.49463 13.5906Z" fill="#ACFF00" style="fill:#ACFF00;fill:color(display-p3 0.6745 1.0000 0.0000);fill-opacity:1;"/>
<path d="M7.47126 13.5133L1.53656 16.0324L1.97188 17.058L7.90658 14.5388L7.47126 13.5133Z" fill="#A8FF00" style="fill:#A8FF00;fill:color(display-p3 0.6588 1.0000 0.0000);fill-opacity:1;"/>
<path d="M7.44932 13.4356L1.47156 15.8508L1.88891 16.8838L7.86668 14.4686L7.44932 13.4356Z" fill="#A3FF00" style="fill:#A3FF00;fill:color(display-p3 0.6392 1.0000 0.0000);fill-opacity:1;"/>
<path d="M7.42867 13.3575L1.40967 15.668L1.80893 16.7081L7.82794 14.3976L7.42867 13.3575Z" fill="#9FFF00" style="fill:#9FFF00;fill:color(display-p3 0.6235 1.0000 0.0000);fill-opacity:1;"/>
<path d="M7.40942 13.279L1.35101 15.4841L1.73206 16.531L7.79047 14.3259L7.40942 13.279Z" fill="#9BFF00" style="fill:#9BFF00;fill:color(display-p3 0.6078 1.0000 0.0000);fill-opacity:1;"/>
<path d="M7.39156 13.2002L1.29559 15.2993L1.65832 16.3527L7.75429 14.2537L7.39156 13.2002Z" fill="#97FF00" style="fill:#97FF00;fill:color(display-p3 0.5922 1.0000 0.0000);fill-opacity:1;"/>
<path d="M7.37502 13.1212L1.24335 15.1135L1.58763 16.1731L7.7193 14.1808L7.37502 13.1212Z" fill="#93FF00" style="fill:#93FF00;fill:color(display-p3 0.5765 1.0000 0.0000);fill-opacity:1;"/>
<path d="M7.35991 13.0418L1.1944 14.9268L1.52013 15.9922L7.68565 14.1072L7.35991 13.0418Z" fill="#8EFF00" style="fill:#8EFF00;fill:color(display-p3 0.5569 1.0000 0.0000);fill-opacity:1;"/>
<path d="M7.34615 12.9622L1.14868 14.7393L1.45577 15.8102L7.65324 14.0331L7.34615 12.9622Z" fill="#8AFF00" style="fill:#8AFF00;fill:color(display-p3 0.5412 1.0000 0.0000);fill-opacity:1;"/>
<path d="M7.3338 12.8824L1.10626 14.551L1.39462 15.6272L7.62216 13.9585L7.3338 12.8824Z" fill="#86FF00" style="fill:#86FF00;fill:color(display-p3 0.5255 1.0000 0.0000);fill-opacity:1;"/>
<path d="M7.32285 12.8023L1.06714 14.362L1.33667 15.443L7.59238 13.8833L7.32285 12.8023Z" fill="#82FF00" style="fill:#82FF00;fill:color(display-p3 0.5098 1.0000 0.0000);fill-opacity:1;"/>
<path d="M7.31335 12.7221L1.03137 14.1724L1.28199 15.2579L7.56398 13.8076L7.31335 12.7221Z" fill="#7DFF00" style="fill:#7DFF00;fill:color(display-p3 0.4902 1.0000 0.0000);fill-opacity:1;"/>
<path d="M7.30518 12.6417L0.99884 13.9822L1.23048 15.072L7.53682 13.7315L7.30518 12.6417Z" fill="#79FF00" style="fill:#79FF00;fill:color(display-p3 0.4745 1.0000 0.0000);fill-opacity:1;"/>
<path d="M7.29844 12.5612L0.969666 13.7914L1.18225 14.885L7.51102 13.6548L7.29844 12.5612Z" fill="#75FF00" style="fill:#75FF00;fill:color(display-p3 0.4588 1.0000 0.0000);fill-opacity:1;"/>
<path d="M7.29306 12.4806L0.943787 13.6002L1.13725 14.6974L7.48653 13.5778L7.29306 12.4806Z" fill="#71FF00" style="fill:#71FF00;fill:color(display-p3 0.4431 1.0000 0.0000);fill-opacity:1;"/>
<path d="M7.28917 12.3999L0.921326 13.4084L1.09561 14.5089L7.46346 13.5003L7.28917 12.3999Z" fill="#6CFF00" style="fill:#6CFF00;fill:color(display-p3 0.4235 1.0000 0.0000);fill-opacity:1;"/>
<path d="M7.28664 12.3192L0.902161 13.2164L1.05722 14.3197L7.4417 13.4224L7.28664 12.3192Z" fill="#68FF00" style="fill:#68FF00;fill:color(display-p3 0.4078 1.0000 0.0000);fill-opacity:1;"/>
<path d="M7.28552 12.2384L0.886353 13.0241L1.02213 14.1299L7.4213 13.3442L7.28552 12.2384Z" fill="#64FF00" style="fill:#64FF00;fill:color(display-p3 0.3922 1.0000 0.0000);fill-opacity:1;"/>
<path d="M7.28581 12.1576L0.873901 12.8315L0.990359 13.9396L7.40226 13.2656L7.28581 12.1576Z" fill="#60FF00" style="fill:#60FF00;fill:color(display-p3 0.3765 1.0000 0.0000);fill-opacity:1;"/>
<path d="M7.2875 12.0768L0.864807 12.6387L0.961909 13.7486L7.3846 13.1867L7.2875 12.0768Z" fill="#5BFF00" style="fill:#5BFF00;fill:color(display-p3 0.3569 1.0000 0.0000);fill-opacity:1;"/>
<path d="M7.29065 11.9961L0.859131 12.4459L0.936848 13.5573L7.36837 13.1075L7.29065 11.9961Z" fill="#57FF00" style="fill:#57FF00;fill:color(display-p3 0.3412 1.0000 0.0000);fill-opacity:1;"/>
<path d="M7.29514 11.9154L0.85675 12.2529L0.915059 13.3655L7.35345 13.028L7.29514 11.9154Z" fill="#53FF00" style="fill:#53FF00;fill:color(display-p3 0.3255 1.0000 0.0000);fill-opacity:1;"/>
<path d="M7.30108 11.8349L0.857788 12.0599L0.89667 13.1733L7.33997 12.9483L7.30108 11.8349Z" fill="#4FFF00" style="fill:#4FFF00;fill:color(display-p3 0.3098 1.0000 0.0000);fill-opacity:1;"/>
<path d="M7.30842 11.7544L0.862183 11.8669L0.881627 12.9809L7.32787 12.8684L7.30842 11.7544Z" fill="#4AFF00" style="fill:#4AFF00;fill:color(display-p3 0.2902 1.0000 0.0000);fill-opacity:1;"/>
<path d="M7.31716 11.6741H0.869934V12.7883H7.31716V11.6741Z" fill="#46FF00" style="fill:#46FF00;fill:color(display-p3 0.2745 1.0000 0.0000);fill-opacity:1;"/>
<path d="M7.32728 11.594L0.881042 11.4814L0.861598 12.5954L7.30784 12.7079L7.32728 11.594Z" fill="#42FF00" style="fill:#42FF00;fill:color(display-p3 0.2588 1.0000 0.0000);fill-opacity:1;"/>
<path d="M7.33887 11.514L0.895569 11.289L0.856687 12.4024L7.29998 12.6274L7.33887 11.514Z" fill="#3EFF00" style="fill:#3EFF00;fill:color(display-p3 0.2431 1.0000 0.0000);fill-opacity:1;"/>
<path d="M7.35178 11.4343L0.913391 11.0969L0.855083 12.2095L7.29347 12.5469L7.35178 11.4343Z" fill="#3AFF00" style="fill:#3AFF00;fill:color(display-p3 0.2275 1.0000 0.0000);fill-opacity:1;"/>
<path d="M7.36609 11.3548L0.93457 10.905L0.856853 12.0164L7.28837 12.4662L7.36609 11.3548Z" fill="#35FF00" style="fill:#35FF00;fill:color(display-p3 0.2078 1.0000 0.0000);fill-opacity:1;"/>
<path d="M7.3818 11.2755L0.959106 10.7136L0.862004 11.8235L7.28469 12.3854L7.3818 11.2755Z" fill="#31FF00" style="fill:#31FF00;fill:color(display-p3 0.1922 1.0000 0.0000);fill-opacity:1;"/>
<path d="M7.3989 11.1966L0.987 10.5226L0.870542 11.6307L7.28245 12.3046L7.3989 11.1966Z" fill="#2DFF00" style="fill:#2DFF00;fill:color(display-p3 0.1765 1.0000 0.0000);fill-opacity:1;"/>
<path d="M7.41736 11.1179L1.01819 10.3322L0.882411 11.438L7.28158 12.2237L7.41736 11.1179Z" fill="#29FF00" style="fill:#29FF00;fill:color(display-p3 0.1608 1.0000 0.0000);fill-opacity:1;"/>
<path d="M7.43715 11.0396L1.05267 10.1423L0.897618 11.2456L7.2821 12.1429L7.43715 11.0396Z" fill="#24FF00" style="fill:#24FF00;fill:color(display-p3 0.1412 1.0000 0.0000);fill-opacity:1;"/>
<path d="M7.45836 10.9616L1.09052 9.95306L0.916228 11.0535L7.28408 12.062L7.45836 10.9616Z" fill="#20FF00" style="fill:#20FF00;fill:color(display-p3 0.1255 1.0000 0.0000);fill-opacity:1;"/>
<path d="M7.48093 10.8841L1.13165 9.76453L0.938188 10.8617L7.28746 11.9813L7.48093 10.8841Z" fill="#1CFF00" style="fill:#1CFF00;fill:color(display-p3 0.1098 1.0000 0.0000);fill-opacity:1;"/>
<path d="M7.50486 10.8069L1.17609 9.57672L0.963502 10.6704L7.29227 11.9006L7.50486 10.8069Z" fill="#18FF00" style="fill:#18FF00;fill:color(display-p3 0.0941 1.0000 0.0000);fill-opacity:1;"/>
<path d="M7.53009 10.7302L1.22375 9.38971L0.992116 10.4795L7.29845 11.8199L7.53009 10.7302Z" fill="#13FF00" style="fill:#13FF00;fill:color(display-p3 0.0745 1.0000 0.0000);fill-opacity:1;"/>
<path d="M7.55664 10.6539L1.27466 9.20355L1.02404 10.2891L7.30602 11.7394L7.55664 10.6539Z" fill="#0FFF00" style="fill:#0FFF00;fill:color(display-p3 0.0588 1.0000 0.0000);fill-opacity:1;"/>
<path d="M7.58457 10.578L1.32886 9.01831L1.05933 10.0993L7.31504 11.6591L7.58457 10.578Z" fill="#0BFF00" style="fill:#0BFF00;fill:color(display-p3 0.0431 1.0000 0.0000);fill-opacity:1;"/>
<path d="M7.61377 10.5028L1.38623 8.83411L1.09787 9.91026L7.32541 11.5789L7.61377 10.5028Z" fill="#07FF00" style="fill:#07FF00;fill:color(display-p3 0.0275 1.0000 0.0000);fill-opacity:1;"/>
<path d="M7.64431 10.428L1.44684 8.65088L1.13975 9.72184L7.33721 11.4989L7.64431 10.428Z" fill="#02FF00" style="fill:#02FF00;fill:color(display-p3 0.0078 1.0000 0.0000);fill-opacity:1;"/>
<path d="M7.67619 10.3537L1.51068 8.46875L1.18494 9.53419L7.35045 11.4192L7.67619 10.3537Z" fill="#00FF02" style="fill:#00FF02;fill:color(display-p3 0.0000 1.0000 0.0078);fill-opacity:1;"/>
<path d="M7.70931 10.28L1.57764 8.28772L1.23335 9.34731L7.36503 11.3396L7.70931 10.28Z" fill="#00FF06" style="fill:#00FF06;fill:color(display-p3 0.0000 1.0000 0.0235);fill-opacity:1;"/>
<path d="M7.74374 10.2069L1.64777 8.10791L1.28504 9.16133L7.38101 11.2603L7.74374 10.2069Z" fill="#00FF0A" style="fill:#00FF0A;fill:color(display-p3 0.0000 1.0000 0.0392);fill-opacity:1;"/>
<path d="M7.77942 10.1345L1.72101 7.92938L1.33996 8.97631L7.39837 11.1814L7.77942 10.1345Z" fill="#00FF0F" style="fill:#00FF0F;fill:color(display-p3 0.0000 1.0000 0.0588);fill-opacity:1;"/>
<path d="M7.8163 10.0626L1.7973 7.75214L1.39804 8.79226L7.41704 11.1027L7.8163 10.0626Z" fill="#00FF13" style="fill:#00FF13;fill:color(display-p3 0.0000 1.0000 0.0745);fill-opacity:1;"/>
<path d="M7.85453 9.99141L1.87677 7.57623L1.45941 8.60923L7.43717 11.0244L7.85453 9.99141Z" fill="#00FF17" style="fill:#00FF17;fill:color(display-p3 0.0000 1.0000 0.0902);fill-opacity:1;"/>
<path d="M7.89393 9.92093L1.95923 7.40179L1.52391 8.42735L7.45861 10.9465L7.89393 9.92093Z" fill="#00FF1B" style="fill:#00FF1B;fill:color(display-p3 0.0000 1.0000 0.1059);fill-opacity:1;"/>
<path d="M7.93457 9.85108L2.04474 7.22876L1.59159 8.24656L7.48142 10.8689L7.93457 9.85108Z" fill="#00FF1F" style="fill:#00FF1F;fill:color(display-p3 0.0000 1.0000 0.1216);fill-opacity:1;"/>
<path d="M7.97647 9.78203L2.1333 7.05731L1.66245 8.06705L7.50562 10.7918L7.97647 9.78203Z" fill="#00FF24" style="fill:#00FF24;fill:color(display-p3 0.0000 1.0000 0.1412);fill-opacity:1;"/>
<path d="M8.01952 9.71367L2.22479 6.88739L1.73639 7.88876L7.53112 10.715L8.01952 9.71367Z" fill="#00FF28" style="fill:#00FF28;fill:color(display-p3 0.0000 1.0000 0.1569);fill-opacity:1;"/>
<path d="M8.06379 9.64603L2.31927 6.71906L1.81347 7.71174L7.55799 10.6387L8.06379 9.64603Z" fill="#00FF2C" style="fill:#00FF2C;fill:color(display-p3 0.0000 1.0000 0.1725);fill-opacity:1;"/>
<path d="M8.10919 9.57928L2.41663 6.55249L1.89358 7.5362L7.58614 10.563L8.10919 9.57928Z" fill="#00FF30" style="fill:#00FF30;fill:color(display-p3 0.0000 1.0000 0.1882);fill-opacity:1;"/>
<path d="M8.15578 9.51325L2.51691 6.38757L1.97677 7.36201L7.61564 10.4877L8.15578 9.51325Z" fill="#00FF35" style="fill:#00FF35;fill:color(display-p3 0.0000 1.0000 0.2078);fill-opacity:1;"/>
<path d="M8.20352 9.44804L2.62006 6.22443L2.063 7.18928L7.64646 10.4129L8.20352 9.44804Z" fill="#00FF39" style="fill:#00FF39;fill:color(display-p3 0.0000 1.0000 0.2235);fill-opacity:1;"/>
<path d="M8.25236 9.38374L2.72601 6.06317L2.1522 7.01816L7.67855 10.3387L8.25236 9.38374Z" fill="#00FF3D" style="fill:#00FF3D;fill:color(display-p3 0.0000 1.0000 0.2392);fill-opacity:1;"/>
<path d="M8.30233 9.32026L2.83478 5.90375L2.24438 6.84858L7.71194 10.2651L8.30233 9.32026Z" fill="#00FF41" style="fill:#00FF41;fill:color(display-p3 0.0000 1.0000 0.2549);fill-opacity:1;"/>
<path d="M8.35339 9.25763L2.94629 5.74622L2.3395 6.6806L7.74659 10.192L8.35339 9.25763Z" fill="#00FF46" style="fill:#00FF46;fill:color(display-p3 0.0000 1.0000 0.2745);fill-opacity:1;"/>
<path d="M8.40554 9.19594L3.06055 5.5907L2.43754 6.51435L7.78253 10.1196L8.40554 9.19594Z" fill="#00FF4A" style="fill:#00FF4A;fill:color(display-p3 0.0000 1.0000 0.2902);fill-opacity:1;"/>
<path d="M8.45875 9.13517L3.17749 5.43719L2.53846 6.34983L7.81971 10.0478L8.45875 9.13517Z" fill="#00FF4E" style="fill:#00FF4E;fill:color(display-p3 0.0000 1.0000 0.3059);fill-opacity:1;"/>
<path d="M8.51303 9.07535L3.29712 5.28577L2.64226 6.18711L7.85817 9.97669L8.51303 9.07535Z" fill="#00FF52" style="fill:#00FF52;fill:color(display-p3 0.0000 1.0000 0.3216);fill-opacity:1;"/>
<path d="M8.56835 9.01645L3.41937 5.13641L2.74888 6.02619L7.89786 9.90623L8.56835 9.01645Z" fill="#00FF57" style="fill:#00FF57;fill:color(display-p3 0.0000 1.0000 0.3412);fill-opacity:1;"/>
<path d="M8.62467 8.95857L3.54419 4.98926L2.85827 5.8672L7.93875 9.8365L8.62467 8.95857Z" fill="#00FF5B" style="fill:#00FF5B;fill:color(display-p3 0.0000 1.0000 0.3569);fill-opacity:1;"/>
<path d="M8.682 8.90167L3.67157 4.8443L2.97043 5.71013L7.98086 9.7675L8.682 8.90167Z" fill="#00FF5F" style="fill:#00FF5F;fill:color(display-p3 0.0000 1.0000 0.3725);fill-opacity:1;"/>
<path d="M8.74031 8.84573L3.80145 4.70154L3.08531 5.555L8.02417 9.6992L8.74031 8.84573Z" fill="#00FF63" style="fill:#00FF63;fill:color(display-p3 0.0000 1.0000 0.3882);fill-opacity:1;"/>
<path d="M8.79962 8.79086L3.93384 4.5611L3.20291 5.40193L8.06869 9.63169L8.79962 8.79086Z" fill="#00FF68" style="fill:#00FF68;fill:color(display-p3 0.0000 1.0000 0.4078);fill-opacity:1;"/>
<path d="M8.85982 8.73701L4.0686 4.42297L3.32311 5.25093L8.11433 9.56496L8.85982 8.73701Z" fill="#00FF6C" style="fill:#00FF6C;fill:color(display-p3 0.0000 1.0000 0.4235);fill-opacity:1;"/>
<path d="M8.92101 8.68423L4.20581 4.28723L3.44598 5.10205L8.16118 9.49904L8.92101 8.68423Z" fill="#00FF70" style="fill:#00FF70;fill:color(display-p3 0.0000 1.0000 0.4392);fill-opacity:1;"/>
<path d="M8.98308 8.63255L4.34534 4.15393L3.5714 4.95536L8.20915 9.43398L8.98308 8.63255Z" fill="#00FF74" style="fill:#00FF74;fill:color(display-p3 0.0000 1.0000 0.4549);fill-opacity:1;"/>
<path d="M9.04606 8.58195L4.48718 4.02307L3.69938 4.81087L8.25826 9.36975L9.04606 8.58195Z" fill="#00FF78" style="fill:#00FF78;fill:color(display-p3 0.0000 1.0000 0.4706);fill-opacity:1;"/>
<path d="M9.1099 8.53246L4.63129 3.89471L3.82986 4.66865L8.30847 9.30639L9.1099 8.53246Z" fill="#00FF7D" style="fill:#00FF7D;fill:color(display-p3 0.0000 1.0000 0.4902);fill-opacity:1;"/>
<path d="M9.17458 8.48406L4.77759 3.76886L3.96277 4.52869L8.35977 9.24389L9.17458 8.48406Z" fill="#00FF81" style="fill:#00FF81;fill:color(display-p3 0.0000 1.0000 0.5059);fill-opacity:1;"/>
<path d="M9.24012 8.43679L4.92609 3.64557L4.09813 4.39106L8.41217 9.18228L9.24012 8.43679Z" fill="#00FF85" style="fill:#00FF85;fill:color(display-p3 0.0000 1.0000 0.5216);fill-opacity:1;"/>
<path d="M9.30648 8.39074L5.07672 3.52496L4.23588 4.25589L8.46564 9.12167L9.30648 8.39074Z" fill="#00FF89" style="fill:#00FF89;fill:color(display-p3 0.0000 1.0000 0.5373);fill-opacity:1;"/>
<path d="M9.37363 8.34578L5.22943 3.40692L4.37597 4.12306L8.52016 9.06192L9.37363 8.34578Z" fill="#00FF8E" style="fill:#00FF8E;fill:color(display-p3 0.0000 1.0000 0.5569);fill-opacity:1;"/>
<path d="M9.44152 8.30206L5.38416 3.29163L4.51832 3.99276L8.57569 9.0032L9.44152 8.30206Z" fill="#00FF92" style="fill:#00FF92;fill:color(display-p3 0.0000 1.0000 0.5725);fill-opacity:1;"/>
<path d="M9.5102 8.2595L5.54089 3.17902L4.66295 3.86494L8.63226 8.94542L9.5102 8.2595Z" fill="#00FF96" style="fill:#00FF96;fill:color(display-p3 0.0000 1.0000 0.5882);fill-opacity:1;"/>
<path d="M9.57962 8.21813L5.69958 3.06915L4.80981 3.73965L8.68984 8.88863L9.57962 8.21813Z" fill="#00FF9A" style="fill:#00FF9A;fill:color(display-p3 0.0000 1.0000 0.6039);fill-opacity:1;"/>
<path d="M9.64969 8.17801L5.86011 2.9621L4.95876 3.61696L8.74835 8.83287L9.64969 8.17801Z" fill="#00FF9F" style="fill:#00FF9F;fill:color(display-p3 0.0000 1.0000 0.6235);fill-opacity:1;"/>
<path d="M9.7205 8.13911L6.02252 2.85785L5.10989 3.49688L8.80786 8.77814L9.7205 8.13911Z" fill="#00FFA3" style="fill:#00FFA3;fill:color(display-p3 0.0000 1.0000 0.6392);fill-opacity:1;"/>
<path d="M9.79195 8.1014L6.18671 2.75641L5.26306 3.37942L8.8683 8.72441L9.79195 8.1014Z" fill="#00FFA7" style="fill:#00FFA7;fill:color(display-p3 0.0000 1.0000 0.6549);fill-opacity:1;"/>
<path d="M9.86407 8.06499L6.35266 2.6579L5.41828 3.26469L8.92969 8.67179L9.86407 8.06499Z" fill="#00FFAB" style="fill:#00FFAB;fill:color(display-p3 0.0000 1.0000 0.6706);fill-opacity:1;"/>
<path d="M9.93683 8.02987L6.52032 2.56232L5.5755 3.15271L8.992 8.62027L9.93683 8.02987Z" fill="#00FFB0" style="fill:#00FFB0;fill:color(display-p3 0.0000 1.0000 0.6902);fill-opacity:1;"/>
<path d="M10.0101 7.99601L6.68958 2.46967L5.73459 3.04348L9.05515 8.56983L10.0101 7.99601Z" fill="#00FFB4" style="fill:#00FFB4;fill:color(display-p3 0.0000 1.0000 0.7059);fill-opacity:1;"/>
<path d="M10.0841 7.9634L6.86047 2.37994L5.89562 2.937L9.11923 8.52046L10.0841 7.9634Z" fill="#00FFB8" style="fill:#00FFB8;fill:color(display-p3 0.0000 1.0000 0.7216);fill-opacity:1;"/>
<path d="M10.1586 7.93214L7.0329 2.29327L6.05847 2.83341L9.18414 8.47228L10.1586 7.93214Z" fill="#00FFBC" style="fill:#00FFBC;fill:color(display-p3 0.0000 1.0000 0.7373);fill-opacity:1;"/>
<path d="M10.2336 7.90216L7.20679 2.20959L6.22308 2.73264L9.24987 8.4252L10.2336 7.90216Z" fill="#00FFC1" style="fill:#00FFC1;fill:color(display-p3 0.0000 1.0000 0.7569);fill-opacity:1;"/>
<path d="M10.3091 7.87342L7.38214 2.12891L6.38945 2.63471L9.31643 8.37922L10.3091 7.87342Z" fill="#00FFC5" style="fill:#00FFC5;fill:color(display-p3 0.0000 1.0000 0.7725);fill-opacity:1;"/>
<path d="M10.3851 7.84612L7.55884 2.05139L6.55747 2.53979L9.38375 8.33452L10.3851 7.84612Z" fill="#00FFC9" style="fill:#00FFC9;fill:color(display-p3 0.0000 1.0000 0.7882);fill-opacity:1;"/>
<path d="M10.4616 7.8201L7.73688 1.97693L6.72714 2.44778L9.45186 8.29095L10.4616 7.8201Z" fill="#00FFCD" style="fill:#00FFCD;fill:color(display-p3 0.0000 1.0000 0.8039);fill-opacity:1;"/>
<path d="M10.5385 7.79541L7.9162 1.90558L6.8984 2.35873L9.52072 8.24856L10.5385 7.79541Z" fill="#00FFD1" style="fill:#00FFD1;fill:color(display-p3 0.0000 1.0000 0.8196);fill-opacity:1;"/>
<path d="M10.6159 7.77204L8.09674 1.83734L7.07119 2.27266L9.59032 8.20736L10.6159 7.77204Z" fill="#00FFD6" style="fill:#00FFD6;fill:color(display-p3 0.0000 1.0000 0.8392);fill-opacity:1;"/>
<path d="M10.6936 7.7501L8.27844 1.77234L7.24545 2.1897L9.66062 8.16746L10.6936 7.7501Z" fill="#00FFDA" style="fill:#00FFDA;fill:color(display-p3 0.0000 1.0000 0.8549);fill-opacity:1;"/>
<path d="M10.7717 7.72945L8.46124 1.71045L7.42112 2.10971L9.7316 8.12872L10.7717 7.72945Z" fill="#00FFDE" style="fill:#00FFDE;fill:color(display-p3 0.0000 1.0000 0.8706);fill-opacity:1;"/>
<path d="M10.8502 7.7102L8.64508 1.65179L7.59815 2.03285L9.80323 8.09125L10.8502 7.7102Z" fill="#00FFE2" style="fill:#00FFE2;fill:color(display-p3 0.0000 1.0000 0.8863);fill-opacity:1;"/>
<path d="M10.929 7.69234L8.82996 1.59637L7.77653 1.9591L9.87554 8.05507L10.929 7.69234Z" fill="#00FFE7" style="fill:#00FFE7;fill:color(display-p3 0.0000 1.0000 0.9059);fill-opacity:1;"/>
<path d="M11.008 7.6758L9.01575 1.54413L7.95616 1.88841L9.94846 8.02008L11.008 7.6758Z" fill="#00FFEB" style="fill:#00FFEB;fill:color(display-p3 0.0000 1.0000 0.9216);fill-opacity:1;"/>
<path d="M11.0874 7.66069L9.20239 1.49518L8.13695 1.82092L10.0219 7.98643L11.0874 7.66069Z" fill="#00FFEF" style="fill:#00FFEF;fill:color(display-p3 0.0000 1.0000 0.9373);fill-opacity:1;"/>
<path d="M11.167 7.64693L9.38989 1.44946L8.31893 1.75656L10.096 7.95403L11.167 7.64693Z" fill="#00FFF3" style="fill:#00FFF3;fill:color(display-p3 0.0000 1.0000 0.9529);fill-opacity:1;"/>
<path d="M11.2469 7.63458L9.57819 1.40704L8.50203 1.6954L10.1707 7.92294L11.2469 7.63458Z" fill="#00FFF8" style="fill:#00FFF8;fill:color(display-p3 0.0000 1.0000 0.9725);fill-opacity:1;"/>
<path d="M11.3269 7.62363L9.76715 1.36792L8.68612 1.63745L10.2458 7.89316L11.3269 7.62363Z" fill="#00FFFC" style="fill:#00FFFC;fill:color(display-p3 0.0000 1.0000 0.9882);fill-opacity:1;"/>
<path d="M11.4071 7.61414L9.95679 1.33215L8.87122 1.58278L10.3215 7.86476L11.4071 7.61414Z" fill="#00FEFF" style="fill:#00FEFF;fill:color(display-p3 0.0000 0.9961 1.0000);fill-opacity:1;"/>
<path d="M11.4875 7.60596L10.147 1.29962L9.05726 1.53126L10.3977 7.8376L11.4875 7.60596Z" fill="#00FAFF" style="fill:#00FAFF;fill:color(display-p3 0.0000 0.9804 1.0000);fill-opacity:1;"/>
<path d="M11.568 7.59922L10.3378 1.27045L9.24412 1.48303L10.4743 7.8118L11.568 7.59922Z" fill="#00F5FF" style="fill:#00F5FF;fill:color(display-p3 0.0000 0.9608 1.0000);fill-opacity:1;"/>
<path d="M11.6486 7.5939L10.5291 1.24463L9.43186 1.43809L10.5514 7.78737L11.6486 7.5939Z" fill="#00F1FF" style="fill:#00F1FF;fill:color(display-p3 0.0000 0.9451 1.0000);fill-opacity:1;"/>
<path d="M11.7293 7.58995L10.7207 1.22211L9.6203 1.39639L10.6289 7.76424L11.7293 7.58995Z" fill="#00EDFF" style="fill:#00EDFF;fill:color(display-p3 0.0000 0.9294 1.0000);fill-opacity:1;"/>
<path d="M11.81 7.58742L10.9127 1.20294L9.80944 1.358L10.7067 7.74248L11.81 7.58742Z" fill="#00E9FF" style="fill:#00E9FF;fill:color(display-p3 0.0000 0.9137 1.0000);fill-opacity:1;"/>
<path d="M11.8908 7.5863L11.1051 1.18713L9.99929 1.32291L10.785 7.72208L11.8908 7.5863Z" fill="#00E4FF" style="fill:#00E4FF;fill:color(display-p3 0.0000 0.8941 1.0000);fill-opacity:1;"/>
<path d="M11.9716 7.58659L11.2977 1.17468L10.1897 1.29114L10.8636 7.70305L11.9716 7.58659Z" fill="#00E0FF" style="fill:#00E0FF;fill:color(display-p3 0.0000 0.8784 1.0000);fill-opacity:1;"/>
<path d="M12.0523 7.58828L11.4904 1.16559L10.3805 1.26269L10.9424 7.68538L12.0523 7.58828Z" fill="#00DCFF" style="fill:#00DCFF;fill:color(display-p3 0.0000 0.8627 1.0000);fill-opacity:1;"/>
<path d="M12.1331 7.59143L11.6833 1.15991L10.5719 1.23763L11.0217 7.66915L12.1331 7.59143Z" fill="#00D8FF" style="fill:#00D8FF;fill:color(display-p3 0.0000 0.8471 1.0000);fill-opacity:1;"/>
<path d="M12.2137 7.59592L11.8763 1.15753L10.7637 1.21584L11.1011 7.65423L12.2137 7.59592Z" fill="#00D4FF" style="fill:#00D4FF;fill:color(display-p3 0.0000 0.8314 1.0000);fill-opacity:1;"/>
<path d="M12.2943 7.60187L12.0693 1.15857L10.9558 1.19745L11.1808 7.64075L12.2943 7.60187Z" fill="#00CFFF" style="fill:#00CFFF;fill:color(display-p3 0.0000 0.8118 1.0000);fill-opacity:1;"/>
<path d="M12.3747 7.60921L12.2622 1.16296L11.1483 1.18241L11.2608 7.62865L12.3747 7.60921Z" fill="#00CBFF" style="fill:#00CBFF;fill:color(display-p3 0.0000 0.7961 1.0000);fill-opacity:1;"/>
<path d="M12.4551 7.61794V1.17072H11.341V7.61794H12.4551Z" fill="#00C7FF" style="fill:#00C7FF;fill:color(display-p3 0.0000 0.7804 1.0000);fill-opacity:1;"/>
<path d="M12.5352 7.62807L12.6477 1.18182L11.5338 1.16238L11.4212 7.60862L12.5352 7.62807Z" fill="#00C3FF" style="fill:#00C3FF;fill:color(display-p3 0.0000 0.7647 1.0000);fill-opacity:1;"/>
<path d="M12.6151 7.63965L12.8401 1.19635L11.7267 1.15747L11.5017 7.60076L12.6151 7.63965Z" fill="#00BEFF" style="fill:#00BEFF;fill:color(display-p3 0.0000 0.7451 1.0000);fill-opacity:1;"/>
<path d="M12.6949 7.65256L13.0323 1.21417L11.9198 1.15586L11.5823 7.59425L12.6949 7.65256Z" fill="#00BAFF" style="fill:#00BAFF;fill:color(display-p3 0.0000 0.7294 1.0000);fill-opacity:1;"/>
<path d="M12.7744 7.66687L13.2242 1.23535L12.1128 1.15763L11.663 7.58915L12.7744 7.66687Z" fill="#00B6FF" style="fill:#00B6FF;fill:color(display-p3 0.0000 0.7137 1.0000);fill-opacity:1;"/>
<path d="M12.8537 7.68258L13.4156 1.25989L12.3057 1.16279L11.7438 7.58548L12.8537 7.68258Z" fill="#00B2FF" style="fill:#00B2FF;fill:color(display-p3 0.0000 0.6980 1.0000);fill-opacity:1;"/>
<path d="M12.9326 7.69969L13.6066 1.28778L12.4985 1.17132L11.8246 7.58323L12.9326 7.69969Z" fill="#00ADFF" style="fill:#00ADFF;fill:color(display-p3 0.0000 0.6784 1.0000);fill-opacity:1;"/>
<path d="M13.0113 7.71814L13.797 1.31897L12.6912 1.18319L11.9055 7.58236L13.0113 7.71814Z" fill="#00A9FF" style="fill:#00A9FF;fill:color(display-p3 0.0000 0.6627 1.0000);fill-opacity:1;"/>
<path d="M13.0896 7.738L13.9869 1.35352L12.8836 1.19846L11.9863 7.58294L13.0896 7.738Z" fill="#00A5FF" style="fill:#00A5FF;fill:color(display-p3 0.0000 0.6471 1.0000);fill-opacity:1;"/>
<path d="M13.1675 7.75914L14.1761 1.3913L13.0757 1.21701L12.0671 7.58486L13.1675 7.75914Z" fill="#00A1FF" style="fill:#00A1FF;fill:color(display-p3 0.0000 0.6314 1.0000);fill-opacity:1;"/>
<path d="M13.2451 7.78171L14.3647 1.43243L13.2675 1.23897L12.1479 7.58824L13.2451 7.78171Z" fill="#009CFF" style="fill:#009CFF;fill:color(display-p3 0.0000 0.6118 1.0000);fill-opacity:1;"/>
<path d="M13.3223 7.80564L14.5525 1.47687L13.4588 1.26428L12.2287 7.59305L13.3223 7.80564Z" fill="#0098FF" style="fill:#0098FF;fill:color(display-p3 0.0000 0.5961 1.0000);fill-opacity:1;"/>
<path d="M13.399 7.83087L14.7394 1.52454L13.6497 1.2929L12.3092 7.59923L13.399 7.83087Z" fill="#0094FF" style="fill:#0094FF;fill:color(display-p3 0.0000 0.5804 1.0000);fill-opacity:1;"/>
<path d="M13.4753 7.85742L14.9256 1.57544L13.84 1.32482L12.3897 7.6068L13.4753 7.85742Z" fill="#0090FF" style="fill:#0090FF;fill:color(display-p3 0.0000 0.5647 1.0000);fill-opacity:1;"/>
<path d="M13.5511 7.88535L15.1108 1.62964L14.0298 1.36011L12.4701 7.61582L13.5511 7.88535Z" fill="#008BFF" style="fill:#008BFF;fill:color(display-p3 0.0000 0.5451 1.0000);fill-opacity:1;"/>
<path d="M13.6264 7.91455L15.2951 1.68701L14.2189 1.39866L12.5503 7.6262L13.6264 7.91455Z" fill="#0087FF" style="fill:#0087FF;fill:color(display-p3 0.0000 0.5294 1.0000);fill-opacity:1;"/>
<path d="M13.7012 7.94509L15.4783 1.74762L14.4074 1.44053L12.6303 7.638L13.7012 7.94509Z" fill="#0083FF" style="fill:#0083FF;fill:color(display-p3 0.0000 0.5137 1.0000);fill-opacity:1;"/>
<path d="M13.7755 7.97697L15.6605 1.81146L14.595 1.48572L12.71 7.65124L13.7755 7.97697Z" fill="#007FFF" style="fill:#007FFF;fill:color(display-p3 0.0000 0.4980 1.0000);fill-opacity:1;"/>
<path d="M13.8491 8.01009L15.8414 1.87842L14.7818 1.53414L12.7895 7.66581L13.8491 8.01009Z" fill="#007BFF" style="fill:#007BFF;fill:color(display-p3 0.0000 0.4824 1.0000);fill-opacity:1;"/>
<path d="M13.9222 8.04452L16.0212 1.94855L14.9678 1.58583L12.8688 7.68179L13.9222 8.04452Z" fill="#0076FF" style="fill:#0076FF;fill:color(display-p3 0.0000 0.4627 1.0000);fill-opacity:1;"/>
<path d="M13.9947 8.0802L16.1998 2.02179L15.1528 1.64074L12.9478 7.69915L13.9947 8.0802Z" fill="#0072FF" style="fill:#0072FF;fill:color(display-p3 0.0000 0.4471 1.0000);fill-opacity:1;"/>
<path d="M14.0665 8.11715L16.377 2.09814L15.3369 1.69888L13.0264 7.71788L14.0665 8.11715Z" fill="#006EFF" style="fill:#006EFF;fill:color(display-p3 0.0000 0.4314 1.0000);fill-opacity:1;"/>
<path d="M14.1377 8.15531L16.5529 2.17755L15.5199 1.76019L13.1047 7.73796L14.1377 8.15531Z" fill="#006AFF" style="fill:#006AFF;fill:color(display-p3 0.0000 0.4157 1.0000);fill-opacity:1;"/>
<path d="M14.2083 8.19471L16.7274 2.26001L15.7019 1.82469L13.1827 7.75939L14.2083 8.19471Z" fill="#0065FF" style="fill:#0065FF;fill:color(display-p3 0.0000 0.3961 1.0000);fill-opacity:1;"/>
<path d="M14.2781 8.23535L16.9004 2.34552L15.8826 1.89237L13.2603 7.7822L14.2781 8.23535Z" fill="#0061FF" style="fill:#0061FF;fill:color(display-p3 0.0000 0.3804 1.0000);fill-opacity:1;"/>
<path d="M14.3472 8.27725L17.0719 2.43408L16.0622 1.96323L13.3374 7.8064L14.3472 8.27725Z" fill="#005DFF" style="fill:#005DFF;fill:color(display-p3 0.0000 0.3647 1.0000);fill-opacity:1;"/>
<path d="M14.4155 8.3203L17.2418 2.52557L16.2405 2.03718L13.4142 7.8319L14.4155 8.3203Z" fill="#0059FF" style="fill:#0059FF;fill:color(display-p3 0.0000 0.3490 1.0000);fill-opacity:1;"/>
<path d="M14.4831 8.36457L17.4101 2.62006L16.4174 2.11426L13.4904 7.85877L14.4831 8.36457Z" fill="#0054FF" style="fill:#0054FF;fill:color(display-p3 0.0000 0.3294 1.0000);fill-opacity:1;"/>
<path d="M14.5499 8.40997L17.5767 2.71741L16.593 2.19436L13.5662 7.88692L14.5499 8.40997Z" fill="#0050FF" style="fill:#0050FF;fill:color(display-p3 0.0000 0.3137 1.0000);fill-opacity:1;"/>
<path d="M14.6159 8.45656L17.7416 2.81769L16.7671 2.27755L13.6415 7.91642L14.6159 8.45656Z" fill="#004CFF" style="fill:#004CFF;fill:color(display-p3 0.0000 0.2980 1.0000);fill-opacity:1;"/>
<path d="M14.6811 8.5043L17.9047 2.92084L16.9399 2.36378L13.7163 7.94724L14.6811 8.5043Z" fill="#0048FF" style="fill:#0048FF;fill:color(display-p3 0.0000 0.2824 1.0000);fill-opacity:1;"/>
<path d="M14.7455 8.55314L18.066 3.02679L17.1111 2.45298L13.7905 7.97933L14.7455 8.55314Z" fill="#0043FF" style="fill:#0043FF;fill:color(display-p3 0.0000 0.2627 1.0000);fill-opacity:1;"/>
<path d="M14.809 8.60311L18.2255 3.13556L17.2806 2.54517L13.8641 8.01272L14.809 8.60311Z" fill="#003FFF" style="fill:#003FFF;fill:color(display-p3 0.0000 0.2471 1.0000);fill-opacity:1;"/>
<path d="M14.8715 8.65417L18.3829 3.24707L17.4486 2.64028L13.9371 8.04737L14.8715 8.65417Z" fill="#003BFF" style="fill:#003BFF;fill:color(display-p3 0.0000 0.2314 1.0000);fill-opacity:1;"/>
<path d="M14.9332 8.70632L18.5385 3.36133L17.6148 2.73832L14.0096 8.08331L14.9332 8.70632Z" fill="#0037FF" style="fill:#0037FF;fill:color(display-p3 0.0000 0.2157 1.0000);fill-opacity:1;"/>
<path d="M14.994 8.75953L18.692 3.47827L17.7793 2.83924L14.0813 8.12049L14.994 8.75953Z" fill="#0032FF" style="fill:#0032FF;fill:color(display-p3 0.0000 0.1961 1.0000);fill-opacity:1;"/>
<path d="M15.0538 8.81381L18.8434 3.5979L17.942 2.94304L14.1525 8.15895L15.0538 8.81381Z" fill="#002EFF" style="fill:#002EFF;fill:color(display-p3 0.0000 0.1804 1.0000);fill-opacity:1;"/>
<path d="M15.1127 8.86914L18.9927 3.72015L18.103 3.04966L14.2229 8.19864L15.1127 8.86914Z" fill="#002AFF" style="fill:#002AFF;fill:color(display-p3 0.0000 0.1647 1.0000);fill-opacity:1;"/>
<path d="M15.1706 8.92545L19.1399 3.84497L18.262 3.15905L14.2926 8.23953L15.1706 8.92545Z" fill="#0026FF" style="fill:#0026FF;fill:color(display-p3 0.0000 0.1490 1.0000);fill-opacity:1;"/>
<path d="M15.2275 8.98279L19.2849 3.97235L18.4191 3.27121L14.3617 8.28165L15.2275 8.98279Z" fill="#0022FF" style="fill:#0022FF;fill:color(display-p3 0.0000 0.1333 1.0000);fill-opacity:1;"/>
<path d="M12.2406 22.8893H11.6077C11.5784 22.8787 11.5489 22.876 11.5193 22.876C11.1814 22.86 10.8459 22.8328 10.5134 22.7876C9.89143 22.7071 9.27984 22.5703 8.68453 22.3801C7.66282 22.0532 6.71082 21.584 5.82853 20.9725C5.01038 20.404 4.2866 19.7338 3.65628 18.9618C2.91318 18.0556 2.33414 17.0554 1.92366 15.9565C1.55614 14.9805 1.3363 13.97 1.2691 12.9269C1.2691 12.8706 1.25843 12.8143 1.23975 12.758V11.6561C1.25843 11.6075 1.26643 11.5568 1.2691 11.506C1.28244 11.2566 1.30913 11.0071 1.34169 10.7607C1.50271 9.57036 1.85646 8.44138 2.40096 7.37159C2.77638 6.6342 3.23234 5.94816 3.76847 5.31505C4.29952 4.68782 4.89489 4.12726 5.55441 3.63677C6.62986 2.83768 7.81258 2.26131 9.10505 1.90761C9.73249 1.73624 10.3736 1.62362 11.0224 1.56982C11.1376 1.55915 11.2585 1.56982 11.3737 1.54047H12.4571C12.5401 1.56448 12.6261 1.55114 12.7091 1.55915C13.1384 1.59651 13.5647 1.65047 13.9882 1.73346C15.3211 1.99621 16.5572 2.49503 17.6998 3.23194C18.5876 3.80297 19.3707 4.49195 20.0544 5.29355C20.6043 5.93705 21.0707 6.63687 21.4516 7.39262C21.9021 8.28559 22.2238 9.22104 22.4065 10.2049C22.5029 10.725 22.5755 11.2505 22.5779 11.7814C22.5779 11.8166 22.586 11.8539 22.5886 11.8885V12.5213C22.5779 12.5613 22.5779 12.6043 22.5753 12.6472C22.5753 12.749 22.5753 12.8512 22.5673 12.9529C22.5187 13.6019 22.4171 14.2425 22.2561 14.8752C21.9477 16.063 21.4513 17.1649 20.7621 18.1808C20.2498 18.937 19.652 19.6181 18.9653 20.2211C18.2815 20.8217 17.5331 21.3285 16.7205 21.7384C15.7843 22.2101 14.8002 22.5375 13.7676 22.7168C13.3709 22.7865 12.9712 22.832 12.5691 22.8561C12.4631 22.8684 12.3507 22.8659 12.2406 22.8893Z" fill="#383838" style="fill:#383838;fill:color(display-p3 0.2196 0.2196 0.2196);fill-opacity:1;"/>
<path style="mix-blend-mode:lighten" d="M9.13778 7.78583C9.13031 7.98197 9.16516 8.19638 9.22294 8.41085C9.33303 8.8189 9.51549 9.19279 9.73064 9.54596C10.2208 10.3491 10.8386 11.0367 11.5089 11.6751C11.5638 11.7276 11.6291 11.7719 11.6991 11.8057C11.7692 11.8421 11.8392 11.8421 11.9116 11.8109C11.9815 11.7796 12.0442 11.7352 12.0967 11.6774C12.3293 11.4369 12.5593 11.1961 12.7795 10.9475C13.0895 10.5943 13.3848 10.231 13.6524 9.84121C13.8952 9.48809 14.1127 9.1166 14.2726 8.7138C14.4325 8.31346 14.5102 7.90052 14.4577 7.46633C14.3702 6.74987 14.0777 6.14282 13.5548 5.66683C12.9366 5.10492 12.2166 4.87994 11.4062 5.00526C10.0882 5.20952 9.13271 6.42324 9.13778 7.78583Z" fill="url(#paint0_radial_2034_919)" />
<path d="M15.9588 17.5514C15.7929 17.5564 15.6066 17.5359 15.4204 17.4963C14.8695 17.3757 14.4015 17.1252 14.0419 16.6811C13.8232 16.4103 13.6393 16.1168 13.4809 15.8081C13.2945 15.4444 13.1389 15.0655 13.0031 14.6819C12.8372 14.2179 12.6963 13.7438 12.5879 13.2646C12.5277 12.9961 12.5954 12.8279 12.8923 12.7354C13.2695 12.6175 13.6495 12.5122 14.0368 12.4267C14.6781 12.2862 15.3246 12.196 15.9839 12.2183C16.1701 12.2257 16.356 12.2457 16.5399 12.2783C17.0732 12.3713 17.5259 12.6171 17.8956 13.0058C18.5271 13.6681 18.7783 14.4583 18.6226 15.359C18.3988 16.646 17.2567 17.5615 15.9588 17.5514Z" fill="url(#paint1_radial_2034_919)" style=""/>
<path d="M7.65194 17.5514C7.81783 17.5564 8.0041 17.5359 8.19031 17.4963C8.74126 17.3757 9.2092 17.1252 9.56882 16.6811C9.78753 16.4103 9.97139 16.1168 10.1299 15.8081C10.3162 15.4444 10.4719 15.0655 10.6076 14.6819C10.7735 14.2179 10.9144 13.7438 11.0228 13.2646C11.083 12.9961 11.0153 12.8279 10.7184 12.7354C10.3412 12.6175 9.96123 12.5122 9.57388 12.4267C8.93258 12.2862 8.28618 12.196 7.62686 12.2183C7.44059 12.2257 7.25472 12.2457 7.07086 12.2783C6.53753 12.3713 6.08486 12.6171 5.71512 13.0058C5.08359 13.6681 4.83239 14.4583 4.98812 15.359C5.21194 16.646 6.35407 17.5615 7.65194 17.5514Z" fill="url(#paint2_radial_2034_919)" style=""/>
</g>
<defs>
<radialGradient id="paint0_radial_2034_919" cx="0" cy="0" r="1" gradientUnits="userSpaceOnUse" gradientTransform="translate(11.857 11.478) rotate(4.82254) scale(2.83468 5.23991)">
<stop stop-color="white" style="stop-color:white;stop-opacity:1;"/>
<stop offset="1" stop-color="#009BD8" style="stop-color:#009BD8;stop-color:color(display-p3 0.0000 0.6078 0.8471);stop-opacity:1;"/>
</radialGradient>
<radialGradient id="paint1_radial_2034_919" cx="0" cy="0" r="1" gradientUnits="userSpaceOnUse" gradientTransform="translate(12.5975 13.1005) rotate(21.7759) scale(6.25104 3.34041)">
<stop stop-color="white" style="stop-color:white;stop-opacity:1;"/>
<stop offset="1" stop-color="#FF3044" style="stop-color:#FF3044;stop-color:color(display-p3 1.0000 0.1882 0.2667);stop-opacity:1;"/>
</radialGradient>
<radialGradient id="paint2_radial_2034_919" cx="0" cy="0" r="1" gradientUnits="userSpaceOnUse" gradientTransform="translate(10.9801 12.874) rotate(146.321) scale(6.31712 2.87146)">
<stop stop-color="white" style="stop-color:white;stop-opacity:1;"/>
<stop offset="1" stop-color="#FCFF7C" style="stop-color:#FCFF7C;stop-color:color(display-p3 0.9882 1.0000 0.4863);stop-opacity:1;"/>
</radialGradient>
<clipPath id="clip0_2034_919">
<rect width="24" height="24" fill="white" style="fill:white;fill-opacity:1;"/>
</clipPath>
</defs>
</svg>
