<svg width="31" height="24" viewBox="0 0 31 24" fill="none" xmlns="http://www.w3.org/2000/svg">
<g clip-path="url(#clip0_2033_535)">
<path d="M29.6643 9.97804C28.9249 9.48036 26.9825 9.26816 25.5703 9.64834C25.4944 8.24154 24.7688 7.05588 23.4416 6.02211L22.9506 5.69242L22.6231 6.18696C21.9798 7.16355 21.7086 8.46536 21.8042 9.64878C21.8802 10.3779 22.1335 11.1972 22.6231 11.7918C20.7848 12.8582 19.0907 12.6161 11.5872 12.6161H0.0026691C-0.0312835 14.3106 0.241231 17.5696 2.31368 20.2228C2.54241 20.5158 2.79348 20.7995 3.066 21.0725C4.75112 22.7598 7.29711 23.9973 11.1043 24.0004C16.9119 24.0058 21.8882 20.8661 24.9154 13.2755C25.9116 13.292 28.5407 13.4537 29.8273 10.9676C29.8586 10.9256 30.1548 10.3082 30.1548 10.3082L29.6643 9.97848V9.97804ZM7.56292 8.22948H4.30526V11.4871H7.56292V8.22948ZM11.7717 8.22948H8.51404V11.4871H11.7717V8.22948ZM15.9805 8.22948H12.7228V11.4871H15.9805V8.22948ZM20.1893 8.22948H16.9316V11.4871H20.1893V8.22948ZM3.35504 8.22948H0.0964854V11.4871H3.35415V8.22948H3.35504ZM7.56382 4.11452H4.30616V7.37218H7.56382V4.11452ZM11.7726 4.11452H8.51494V7.37218H11.7726V4.11452ZM15.9814 4.11452H12.7237V7.37218H15.9814V4.11452ZM15.98 0H12.7224V3.25766H15.98V0Z" fill="#1D63ED" style="fill:#1D63ED;fill:color(display-p3 0.1137 0.3882 0.9294);fill-opacity:1;"/>
</g>
<defs>
<clipPath id="clip0_2033_535">
<rect width="30.1547" height="24.0005" fill="white" style="fill:white;fill-opacity:1;"/>
</clipPath>
</defs>
</svg>
