<svg width="16" height="24" viewBox="0 0 16 24" fill="none" xmlns="http://www.w3.org/2000/svg">
<g clip-path="url(#clip0_2033_483)">
<path d="M4.00159 24C6.20959 24 8.00159 22.208 8.00159 20V16H4.00159C1.79359 16 0.00158691 17.792 0.00158691 20C0.00158691 22.208 1.79359 24 4.00159 24Z" fill="#0ACF83" style="fill:#0ACF83;fill:color(display-p3 0.0392 0.8118 0.5137);fill-opacity:1;"/>
<path d="M0.00158691 12C0.00158691 9.792 1.79359 8 4.00159 8H8.00159V16H4.00159C1.79359 16 0.00158691 14.208 0.00158691 12Z" fill="#A259FF" style="fill:#A259FF;fill:color(display-p3 0.6353 0.3490 1.0000);fill-opacity:1;"/>
<path d="M0.00158691 4C0.00158691 1.792 1.79359 0 4.00159 0H8.00159V8H4.00159C1.79359 8 0.00158691 6.208 0.00158691 4Z" fill="#F24E1E" style="fill:#F24E1E;fill:color(display-p3 0.9490 0.3059 0.1176);fill-opacity:1;"/>
<path d="M8.00159 0H12.0016C14.2096 0 16.0016 1.792 16.0016 4C16.0016 6.208 14.2096 8 12.0016 8H8.00159V0Z" fill="#FF7262" style="fill:#FF7262;fill:color(display-p3 1.0000 0.4471 0.3843);fill-opacity:1;"/>
<path d="M16.0016 12C16.0016 14.208 14.2096 16 12.0016 16C9.79359 16 8.00159 14.208 8.00159 12C8.00159 9.792 9.79359 8 12.0016 8C14.2096 8 16.0016 9.792 16.0016 12Z" fill="#1ABCFE" style="fill:#1ABCFE;fill:color(display-p3 0.1020 0.7373 0.9961);fill-opacity:1;"/>
</g>
<defs>
<clipPath id="clip0_2033_483">
<rect width="16.0032" height="24" fill="white" style="fill:white;fill-opacity:1;"/>
</clipPath>
</defs>
</svg>
