<svg width="24" height="24" viewBox="0 0 24 24" fill="none" xmlns="http://www.w3.org/2000/svg">
<g clip-path="url(#clip0_2033_528)">
<path d="M23.5963 9.58402L23.5627 9.49807L20.3 0.98481C20.2337 0.817845 20.1163 0.676088 19.9648 0.579771C19.812 0.483357 19.6331 0.436731 19.4528 0.44633C19.2724 0.45593 19.0994 0.521279 18.9578 0.633361C18.8174 0.745885 18.7163 0.89985 18.6686 1.07329L16.4627 7.8243H7.53818L5.33232 1.07329C5.28469 0.89985 5.1835 0.745885 5.04319 0.633361C4.90213 0.520526 4.72929 0.454685 4.54892 0.445073C4.36855 0.435462 4.18969 0.482565 4.03744 0.579771C3.88517 0.675693 3.76734 0.817537 3.70095 0.98481L0.434486 9.50925L0.400836 9.594C-0.068065 10.8217 -0.125703 12.1685 0.236589 13.4318C0.598881 14.6951 1.36152 15.8067 2.40982 16.5993L2.42228 16.608L2.45095 16.6304L7.42729 20.3555L9.8874 22.2187L11.383 23.3515C11.5586 23.4843 11.7728 23.5561 11.993 23.5561C12.2131 23.5561 12.4274 23.4843 12.6031 23.3515L14.0986 22.2187L16.5599 20.3555L21.565 16.608L21.5786 16.598C22.6305 15.8062 23.3962 14.6937 23.7602 13.4284C24.1242 12.1631 24.0667 10.8138 23.5963 9.58402Z" fill="#E24329" style="fill:#E24329;fill:color(display-p3 0.8863 0.2627 0.1608);fill-opacity:1;"/>
<path d="M23.5965 9.584L23.5629 9.49805C21.9716 9.82595 20.4722 10.5003 19.1711 11.4733L12.0062 16.9033C14.4489 18.7503 16.5751 20.3555 16.5751 20.3555L21.5801 16.608L21.5938 16.598C22.643 15.8042 23.4057 14.6907 23.767 13.4256C24.1283 12.1605 24.0684 10.8122 23.5965 9.584Z" fill="#FC6D26" style="fill:#FC6D26;fill:color(display-p3 0.9882 0.4275 0.1490);fill-opacity:1;"/>
<path d="M7.43115 20.3555L9.88755 22.2187L11.3831 23.3515C11.5588 23.4843 11.7729 23.5561 11.9931 23.5561C12.2133 23.5561 12.4275 23.4843 12.6032 23.3515L14.0987 22.2187L16.5601 20.3555C16.5601 20.3555 14.4339 18.7503 11.9912 16.9033L7.43115 20.3555Z" fill="#FCA326" style="fill:#FCA326;fill:color(display-p3 0.9882 0.6392 0.1490);fill-opacity:1;"/>
<path d="M4.82635 11.4783C3.52557 10.505 2.02592 9.83097 0.4345 9.50427L0.40085 9.58902C-0.0692554 10.8174 -0.127527 12.1652 0.234809 13.4295C0.597145 14.6939 1.36047 15.8063 2.40983 16.5993L2.4223 16.608L2.45096 16.6304L7.4273 20.3555L12.0061 16.9033L4.82635 11.4783Z" fill="#FC6D26" style="fill:#FC6D26;fill:color(display-p3 0.9882 0.4275 0.1490);fill-opacity:1;"/>
</g>
<defs>
<clipPath id="clip0_2033_528">
<rect width="24" height="24" fill="white" style="fill:white;fill-opacity:1;"/>
</clipPath>
</defs>
</svg>
