<svg width="35" height="24" viewBox="0 0 35 24" fill="none" xmlns="http://www.w3.org/2000/svg">
<g clip-path="url(#clip0_2033_494)">
<path d="M14.3738 2.6175C15.48 1.46625 17.0175 0.75 18.72 0.75C20.985 0.75 22.9575 2.01375 24.0075 3.885C24.9225 3.47625 25.9313 3.2475 26.9963 3.2475C31.08 3.2475 34.3875 6.585 34.3875 10.7025C34.3875 14.82 31.08 18.1575 26.9963 18.1575C26.4975 18.1575 26.01 18.1087 25.5413 18.0112C24.615 19.6612 22.8488 20.7787 20.8238 20.7787C19.9763 20.7787 19.1738 20.5837 18.4613 20.235C17.5238 22.4437 15.3338 23.9925 12.7875 23.9925C10.2413 23.9925 7.87126 22.3125 7.00126 19.9575C6.62251 20.0363 6.22876 20.0812 5.82376 20.0812C2.66251 20.0812 0.101257 17.4938 0.101257 14.2988C0.101257 12.1575 1.25251 10.29 2.96251 9.28875C2.61001 8.47875 2.41501 7.5825 2.41501 6.645C2.41876 2.9775 5.40376 0 9.07876 0C11.2388 0 13.1588 1.0275 14.3738 2.6175Z" fill="#0D9DDA" style="fill:#0D9DDA;fill:color(display-p3 0.0510 0.6157 0.8549);fill-opacity:1;"/>
</g>
<defs>
<clipPath id="clip0_2033_494">
<rect width="34.5" height="24" fill="white" style="fill:white;fill-opacity:1;"/>
</clipPath>
</defs>
</svg>
