<svg width="25" height="24" viewBox="0 0 25 24" fill="none" xmlns="http://www.w3.org/2000/svg">
<g clip-path="url(#clip0_2033_70)">
<path d="M4.35897 0H20.2564C22.6667 0 24.6154 1.94872 24.6154 4.35897V19.641C24.6154 22.0513 22.6667 24 20.2564 24H4.35897C1.94872 24 0 22.0513 0 19.641V4.35897C0 1.94872 1.94872 0 4.35897 0Z" fill="#00005B" style="fill:#00005B;fill:color(display-p3 0.0000 0.0000 0.3569);fill-opacity:1;"/>
<path d="M9.88717 14.359H6.07179L5.2923 16.7795C5.27179 16.8718 5.18974 16.9334 5.09743 16.9231H3.16922C3.0564 16.9231 3.02563 16.8616 3.0564 16.7385L6.35897 7.27181C6.38974 7.16925 6.42051 7.07694 6.46153 6.95386C6.50256 6.73848 6.52307 6.51284 6.52307 6.2872C6.51281 6.23592 6.55384 6.18463 6.60512 6.17438C6.61538 6.17438 6.62563 6.17438 6.63589 6.17438H9.26153C9.33333 6.17438 9.38461 6.20515 9.39486 6.25643L13.1385 16.7692C13.1692 16.8821 13.1385 16.9334 13.0359 16.9334H10.8923C10.8205 16.9436 10.7487 16.8923 10.7282 16.8205L9.88717 14.359ZM6.66666 12.318H9.27179C9.21025 12.1026 9.1282 11.8462 9.03589 11.5795C8.94358 11.3026 8.85127 11.0051 8.75897 10.6975C8.6564 10.3795 8.56409 10.0718 8.46153 9.75386C8.35897 9.43592 8.26666 9.13848 8.18461 8.84104C8.10256 8.55386 8.03076 8.2872 7.95897 8.04104H7.93845C7.84615 8.48207 7.73333 8.9231 7.58974 9.36412C7.43589 9.85643 7.28204 10.3692 7.11794 10.8821C6.98461 11.4051 6.82051 11.8872 6.66666 12.318Z" fill="#9999FF" style="fill:#9999FF;fill:color(display-p3 0.6000 0.6000 1.0000);fill-opacity:1;"/>
<path d="M19.2205 13.4154H15.9692C16.0102 13.7333 16.1128 14.0513 16.2871 14.3282C16.4718 14.6051 16.7282 14.8205 17.0359 14.9436C17.4461 15.1179 17.8974 15.2103 18.3487 15.2C18.7077 15.1897 19.0666 15.159 19.4153 15.0872C19.7333 15.0462 20.041 14.9641 20.3282 14.8513C20.3794 14.8103 20.4102 14.8308 20.4102 14.9333V16.5026C20.4102 16.5436 20.4 16.5846 20.3897 16.6256C20.3692 16.6564 20.3487 16.6769 20.3179 16.6974C19.9897 16.841 19.6512 16.9436 19.2923 17.0051C18.8102 17.0974 18.3282 17.1385 17.8359 17.1282C17.0564 17.1282 16.4 17.0051 15.8666 16.7692C15.3641 16.5538 14.923 16.2154 14.5743 15.7949C14.2461 15.3949 14.0102 14.9436 13.8666 14.4513C13.723 13.9692 13.6512 13.4667 13.6512 12.9538C13.6512 12.4 13.7333 11.8564 13.9077 11.3231C14.0718 10.8103 14.3282 10.3385 14.6769 9.91794C15.0153 9.50769 15.4359 9.17948 15.9179 8.94359C16.4 8.70769 16.9743 8.62564 17.6307 8.62564C18.1743 8.61538 18.7179 8.71794 19.2205 8.94359C19.641 9.1282 20.0102 9.40512 20.2974 9.7641C20.5641 10.1128 20.7794 10.5026 20.9128 10.9333C21.0461 11.3436 21.1077 11.7641 21.1077 12.1846C21.1077 12.4308 21.0974 12.6462 21.0871 12.841C21.0666 13.0359 21.0564 13.1795 21.0461 13.2718C21.0359 13.3436 20.9743 13.4051 20.9025 13.4051C20.841 13.4051 20.7282 13.4154 20.5641 13.4256C20.4 13.4461 20.2051 13.4564 19.9692 13.4564C19.7333 13.4564 19.4871 13.4154 19.2205 13.4154ZM15.9692 11.9179H18.1333C18.4 11.9179 18.5948 11.9179 18.7179 11.9077C18.8 11.8974 18.882 11.8769 18.9538 11.8256V11.7231C18.9538 11.5897 18.9333 11.4667 18.8923 11.3436C18.7077 10.7692 18.1641 10.3795 17.5589 10.4C16.9948 10.3692 16.4615 10.6667 16.1948 11.1795C16.0718 11.4154 16 11.6615 15.9692 11.9179Z" fill="#9999FF" style="fill:#9999FF;fill:color(display-p3 0.6000 0.6000 1.0000);fill-opacity:1;"/>
</g>
<defs>
<clipPath id="clip0_2033_70">
<rect width="24.6154" height="24" fill="white" style="fill:white;fill-opacity:1;"/>
</clipPath>
</defs>
</svg>
