<svg width="24" height="24" viewBox="0 0 24 24" fill="none" xmlns="http://www.w3.org/2000/svg">
<path d="M12.0016 23.9993V19.3464C16.9279 19.3464 20.7509 14.4615 18.8597 9.27729C18.1664 7.37212 16.6279 5.83492 14.7094 5.14098C9.52517 3.26315 4.64026 7.07415 4.64026 11.9991H0C0 4.14574 7.59934 -1.97639 15.8253 0.595381C19.4183 1.72462 22.2887 4.5817 23.4046 8.17472C25.9764 16.4073 19.8529 23.9993 12.0016 23.9993Z" fill="#0080FF" style="fill:#0080FF;fill:color(display-p3 0.0000 0.5020 1.0000);fill-opacity:1;"/>
<path fill-rule="evenodd" clip-rule="evenodd" d="M12.015 14.7328V19.3724H7.37536V14.7328H12.015ZM7.37536 19.3724V22.9174H3.82367V19.3657L7.37536 19.3724ZM3.82367 19.3724H0.843933V16.3926H3.82367V19.3724Z" fill="#0080FF" style="fill:#0080FF;fill:color(display-p3 0.0000 0.5020 1.0000);fill-opacity:1;"/>
</svg>
