<svg width="24" height="24" viewBox="0 0 24 24" fill="none" xmlns="http://www.w3.org/2000/svg">
<g clip-path="url(#clip0_2033_475)">
<mask id="mask0_2033_475" style="mask-type:luminance" maskUnits="userSpaceOnUse" x="0" y="0" width="24" height="24">
<path d="M23.7359 0.166626H0.167053V23.7355H23.7359V0.166626Z" fill="white" style="fill:white;fill-opacity:1;"/>
</mask>
<g mask="url(#mask0_2033_475)">
<path d="M22.6802 0.166626H11.3659C11.3659 2.99926 13.6526 5.29558 16.4734 5.29558H18.5543V7.31625C18.5526 8.6774 19.09 9.98331 20.0481 10.9461C21.0063 11.9089 22.3064 12.4494 23.6618 12.4485V1.15233C23.6618 0.60794 23.2223 0.166626 22.6802 0.166626Z" fill="#2684FF" style="fill:#2684FF;fill:color(display-p3 0.1490 0.5176 1.0000);fill-opacity:1;"/>
<path d="M17.0726 5.82788H5.76477C5.76477 8.66049 8.05149 10.9568 10.8723 10.9568H12.9565V12.9742C12.9565 15.803 15.2372 18.0977 18.0542 18.1032V6.81358C18.0542 6.26918 17.6147 5.82788 17.0726 5.82788Z" fill="url(#paint0_linear_2033_475)" style=""/>
<path d="M11.4814 11.489H0.167054C0.166186 12.849 0.703566 14.1536 1.66089 15.1155C2.61821 16.0775 3.91698 16.618 5.27128 16.618H7.35548V18.6354C7.35548 21.468 9.6422 23.7643 12.463 23.7643V12.4747C12.463 11.9304 12.0235 11.489 11.4814 11.489Z" fill="url(#paint1_linear_2033_475)" style=""/>
</g>
</g>
<defs>
<linearGradient id="paint0_linear_2033_475" x1="15.3268" y1="3.44383" x2="10.5195" y2="8.43371" gradientUnits="userSpaceOnUse">
<stop offset="0.18" stop-color="#0052CC" style="stop-color:#0052CC;stop-color:color(display-p3 0.0000 0.3216 0.8000);stop-opacity:1;"/>
<stop offset="1" stop-color="#2684FF" style="stop-color:#2684FF;stop-color:color(display-p3 0.1490 0.5176 1.0000);stop-opacity:1;"/>
</linearGradient>
<linearGradient id="paint1_linear_2033_475" x1="9.81801" y1="8.76349" x2="4.26162" y2="14.2106" gradientUnits="userSpaceOnUse">
<stop offset="0.18" stop-color="#0052CC" style="stop-color:#0052CC;stop-color:color(display-p3 0.0000 0.3216 0.8000);stop-opacity:1;"/>
<stop offset="1" stop-color="#2684FF" style="stop-color:#2684FF;stop-color:color(display-p3 0.1490 0.5176 1.0000);stop-opacity:1;"/>
</linearGradient>
<clipPath id="clip0_2033_475">
<rect width="24" height="24" fill="white" style="fill:white;fill-opacity:1;"/>
</clipPath>
</defs>
</svg>
