<svg width="81" height="24" viewBox="0 0 81 24" fill="none" xmlns="http://www.w3.org/2000/svg">
<g clip-path="url(#clip0_2031_10)">
<mask id="mask0_2031_10" style="mask-type:luminance" maskUnits="userSpaceOnUse" x="0" y="0" width="81" height="24">
<path d="M80.1 0H0V23.8135H80.1V0Z" fill="white" style="fill:white;fill-opacity:1;"/>
</mask>
<g mask="url(#mask0_2031_10)">
<path d="M70.4949 23.6264C70.2876 23.6264 70.0944 23.5709 69.915 23.4736L68.0787 22.3761C67.8024 22.2233 67.9407 22.1677 68.0235 22.1399C68.3961 22.0149 68.4651 21.9871 68.8518 21.7649C68.8932 21.7371 68.9484 21.751 68.9898 21.7788L70.398 22.6262C70.4532 22.654 70.5222 22.654 70.5636 22.6262L76.0725 19.4171C76.1274 19.3893 76.1556 19.3337 76.1556 19.2643V12.86C76.1556 12.7905 76.1274 12.735 76.0725 12.7072L70.5636 9.51202C70.5084 9.48421 70.4394 9.48421 70.398 9.51202L64.8894 12.7072C64.8342 12.735 64.8066 12.8044 64.8066 12.86V19.2643C64.8066 19.3199 64.8342 19.3893 64.8894 19.4171L66.3942 20.2923C67.2087 20.709 67.7196 20.2228 67.7196 19.7366V13.4157C67.7196 13.3323 67.7886 13.249 67.8855 13.249H68.5896C68.6724 13.249 68.7552 13.3184 68.7552 13.4157V19.7366C68.7552 20.8341 68.1615 21.4731 67.1259 21.4731C66.8085 21.4731 66.5601 21.4731 65.8557 21.1259L64.4061 20.2923C64.0473 20.0839 63.8262 19.6949 63.8262 19.2781V12.8739C63.8262 12.4571 64.0473 12.0681 64.4061 11.8597L69.915 8.65069C70.26 8.4562 70.7295 8.4562 71.0745 8.65069L76.5834 11.8597C76.9422 12.0681 77.163 12.4571 77.163 12.8739V19.2781C77.163 19.6949 76.9422 20.0839 76.5834 20.2923L71.0745 23.5013C70.9089 23.5709 70.7019 23.6264 70.4949 23.6264Z" fill="#5FA04E" style="fill:#5FA04E;fill:color(display-p3 0.3725 0.6275 0.3059);fill-opacity:1;"/>
<path d="M72.207 19.2225C69.7905 19.2225 69.2934 18.1111 69.2934 17.1664C69.2934 17.0831 69.3624 16.9997 69.459 16.9997H70.1769C70.26 16.9997 70.329 17.0553 70.329 17.1386C70.4394 17.8749 70.7568 18.2362 72.2205 18.2362C73.3803 18.2362 73.8774 17.9722 73.8774 17.3471C73.8774 16.9859 73.7388 16.7219 71.9304 16.5413C70.4256 16.3884 69.4866 16.055 69.4866 14.8464C69.4866 13.7212 70.4256 13.0543 71.9994 13.0543C73.767 13.0543 74.6367 13.6656 74.7471 14.9993C74.7471 15.041 74.7333 15.0826 74.706 15.1243C74.6778 15.1521 74.6367 15.1799 74.5947 15.1799H73.863C73.7946 15.1799 73.7253 15.1243 73.7115 15.0548C73.5456 14.2907 73.1175 14.0407 71.9856 14.0407C70.7154 14.0407 70.5636 14.4852 70.5636 14.8186C70.5636 15.2215 70.743 15.3466 72.4551 15.5688C74.1531 15.7911 74.9541 16.1106 74.9541 17.3053C74.9541 18.5278 73.9461 19.2225 72.207 19.2225Z" fill="#5FA04E" style="fill:#5FA04E;fill:color(display-p3 0.3725 0.6275 0.3059);fill-opacity:1;"/>
<path d="M80.16 12.4986C80.16 13.0821 79.6764 13.5683 79.0962 13.5683C78.5166 13.5683 78.0333 13.096 78.0333 12.4986C78.0333 11.8874 78.5304 11.429 79.0962 11.429C79.6626 11.429 80.16 11.9012 80.16 12.4986ZM78.1992 12.4986C78.1992 12.9988 78.5997 13.4016 79.0824 13.4016C79.5798 13.4016 79.9803 12.9848 79.9803 12.4986C79.9803 11.9985 79.5798 11.6096 79.0824 11.6096C78.6135 11.6096 78.1992 11.9985 78.1992 12.4986ZM78.6963 11.9012H79.1106C79.2486 11.9012 79.5249 11.9012 79.5249 12.2208C79.5249 12.443 79.3863 12.4847 79.3032 12.5125C79.4694 12.5264 79.4829 12.6376 79.4967 12.7904C79.5105 12.8876 79.5249 13.0543 79.5522 13.1099H79.3032C79.3032 13.0543 79.2621 12.7487 79.2621 12.7348C79.2486 12.6654 79.221 12.6376 79.1382 12.6376H78.9309V13.1237H78.6963V11.9012ZM78.9171 12.4292H79.0962C79.2486 12.4292 79.2759 12.3181 79.2759 12.2625C79.2759 12.0958 79.1655 12.0958 79.0962 12.0958H78.9036V12.4292H78.9171Z" fill="#5FA04E" style="fill:#5FA04E;fill:color(display-p3 0.3725 0.6275 0.3059);fill-opacity:1;"/>
<path fill-rule="evenodd" clip-rule="evenodd" d="M13.1021 12.5862C13.1021 12.3361 12.9641 12.1 12.7432 11.975L6.90312 8.57138C6.80649 8.51582 6.69603 8.48804 6.58557 8.47418C6.57177 8.47418 6.53037 8.47418 6.53037 8.47418C6.41991 8.47418 6.30945 8.51582 6.21282 8.57138L0.358962 11.9611C0.138063 12.0861 0 12.3223 0 12.5862L0.0138063 21.6995C0.0138063 21.8245 0.0828378 21.9495 0.193288 22.0051C0.303738 22.0746 0.441801 22.0746 0.538446 22.0051L4.01763 20.0046C4.23852 19.8796 4.37658 19.6435 4.37658 19.3934V15.1285C4.37658 14.8784 4.51464 14.6422 4.73556 14.5173L6.21282 13.6559C6.32328 13.5864 6.44751 13.5586 6.57177 13.5586C6.69603 13.5586 6.82029 13.5864 6.91695 13.6559L8.39418 14.5173C8.61507 14.6422 8.75319 14.8784 8.75319 15.1285V19.3934C8.75319 19.6435 8.89125 19.8796 9.11214 20.0046L12.5637 22.0051C12.6741 22.0746 12.8122 22.0746 12.9226 22.0051C13.0331 21.9495 13.1021 21.8245 13.1021 21.6995V12.5862Z" fill="#333333" style="fill:#333333;fill:color(display-p3 0.2000 0.2000 0.2000);fill-opacity:1;"/>
<path fill-rule="evenodd" clip-rule="evenodd" d="M41.2395 0.0416766C41.1288 -0.0138922 40.9908 -0.0138922 40.8942 0.0416766C40.7838 0.111137 40.7148 0.222274 40.7148 0.347304V9.37719C40.7148 9.46053 40.6734 9.54387 40.5903 9.59952C40.5075 9.64116 40.4247 9.64116 40.3419 9.59952L38.8785 8.75205C38.6577 8.62707 38.3952 8.62707 38.1744 8.75205L32.3205 12.1556C32.0997 12.2807 31.9617 12.5168 31.9617 12.7669V19.5601C31.9617 19.8103 32.0997 20.0464 32.3205 20.1714L38.1744 23.575C38.3952 23.7 38.6577 23.7 38.8785 23.575L44.7324 20.1714C44.9532 20.0464 45.0912 19.8103 45.0912 19.5601V2.62562C45.0912 2.36167 44.9532 2.1255 44.7324 2.00047L41.2395 0.0416766ZM40.701 17.3235C40.701 17.3929 40.6734 17.4485 40.6182 17.4763L38.616 18.6433C38.5608 18.6711 38.4918 18.6711 38.4366 18.6433L36.4347 17.4763C36.3795 17.4485 36.3519 17.3791 36.3519 17.3235V14.9897C36.3519 14.9202 36.3795 14.8646 36.4347 14.8368L38.4366 13.6699C38.4918 13.6421 38.5608 13.6421 38.616 13.6699L40.6182 14.8368C40.6734 14.8646 40.701 14.9341 40.701 14.9897V17.3235Z" fill="#333333" style="fill:#333333;fill:color(display-p3 0.2000 0.2000 0.2000);fill-opacity:1;"/>
<path fill-rule="evenodd" clip-rule="evenodd" d="M60.7194 14.934C60.9405 14.8089 61.0647 14.5728 61.0647 14.3227V12.6696C61.0647 12.4195 60.9267 12.1833 60.7194 12.0584L54.9069 8.66869C54.6861 8.54362 54.4239 8.54362 54.2028 8.66869L48.3492 12.0722C48.1281 12.1973 47.9901 12.4335 47.9901 12.6835V19.4768C47.9901 19.7268 48.1281 19.963 48.3492 20.088L54.1614 23.4221C54.3825 23.5471 54.6447 23.5471 54.8517 23.4221L58.3725 21.4495C58.4829 21.3939 58.5519 21.2688 58.5519 21.1438C58.5519 21.0188 58.4829 20.8938 58.3725 20.8382L52.491 17.4346C52.3806 17.3652 52.3116 17.254 52.3116 17.129V15.0035C52.3116 14.8785 52.3806 14.7534 52.491 14.6978L54.3273 13.642C54.4377 13.5726 54.5757 13.5726 54.6861 13.642L56.5224 14.6978C56.6328 14.7673 56.7018 14.8785 56.7018 15.0035V16.6705C56.7018 16.7956 56.7708 16.9206 56.8815 16.9761C56.9919 17.0456 57.1299 17.0456 57.2403 16.9761L60.7194 14.934Z" fill="#333333" style="fill:#333333;fill:color(display-p3 0.2000 0.2000 0.2000);fill-opacity:1;"/>
<path fill-rule="evenodd" clip-rule="evenodd" d="M54.4653 14.6147C54.5067 14.5869 54.5622 14.5869 54.6036 14.6147L55.7217 15.2676C55.7631 15.2954 55.7907 15.3371 55.7907 15.3926V16.6985C55.7907 16.7541 55.7631 16.7958 55.7217 16.8235L54.6036 17.4765C54.5622 17.5042 54.5067 17.5042 54.4653 17.4765L53.3472 16.8235C53.3058 16.7958 53.2782 16.7541 53.2782 16.6985V15.3926C53.2782 15.3371 53.3058 15.2954 53.3472 15.2676L54.4653 14.6147Z" fill="#5FA04E" style="fill:#5FA04E;fill:color(display-p3 0.3725 0.6275 0.3059);fill-opacity:1;"/>
<path d="M22.8904 8.69646C22.6694 8.57148 22.4071 8.57148 22.1862 8.69646L16.3738 12.0723C16.1529 12.1973 16.0286 12.4335 16.0286 12.6836V19.449C16.0286 19.6991 16.1667 19.9352 16.3738 20.0603L22.1862 23.4361C22.4071 23.5611 22.6694 23.5611 22.8904 23.4361L28.7028 20.0603C28.9237 19.9352 29.0479 19.6991 29.0479 19.449V12.6836C29.0479 12.4335 28.9099 12.1973 28.7028 12.0723L22.8904 8.69646Z" fill="url(#paint0_linear_2031_10)" style=""/>
<path d="M28.7167 12.0723L22.8766 8.69643C22.8214 8.66865 22.7524 8.64087 22.6972 8.62701L16.153 19.8935C16.2082 19.963 16.2773 20.0186 16.3462 20.0603L22.1863 23.4361C22.352 23.5333 22.5453 23.561 22.7247 23.5055L28.8685 12.1973C28.8271 12.1418 28.7719 12.1001 28.7167 12.0723Z" fill="url(#paint1_linear_2031_10)" style=""/>
<path d="M28.7167 20.0601C28.8824 19.9628 29.0067 19.7961 29.0619 19.6155L22.6696 8.61293C22.5039 8.58515 22.3244 8.59898 22.1726 8.69627L16.3739 12.0582L22.6281 23.5331C22.711 23.5192 22.8077 23.4914 22.8905 23.4498L28.7167 20.0601Z" fill="url(#paint2_linear_2031_10)" style=""/>
</g>
</g>
<defs>
<linearGradient id="paint0_linear_2031_10" x1="24.9055" y1="11.2107" x2="19.5974" y2="21.9722" gradientUnits="userSpaceOnUse">
<stop stop-color="#3F873F" style="stop-color:#3F873F;stop-color:color(display-p3 0.2471 0.5294 0.2471);stop-opacity:1;"/>
<stop offset="0.3296" stop-color="#3F8B3D" style="stop-color:#3F8B3D;stop-color:color(display-p3 0.2471 0.5451 0.2392);stop-opacity:1;"/>
<stop offset="0.6367" stop-color="#3E9638" style="stop-color:#3E9638;stop-color:color(display-p3 0.2431 0.5882 0.2196);stop-opacity:1;"/>
<stop offset="0.9341" stop-color="#3DA92E" style="stop-color:#3DA92E;stop-color:color(display-p3 0.2392 0.6627 0.1804);stop-opacity:1;"/>
<stop offset="1" stop-color="#3DAE2B" style="stop-color:#3DAE2B;stop-color:color(display-p3 0.2392 0.6824 0.1686);stop-opacity:1;"/>
</linearGradient>
<linearGradient id="paint1_linear_2031_10" x1="21.655" y1="16.8563" x2="36.4656" y2="5.98107" gradientUnits="userSpaceOnUse">
<stop offset="0.1376" stop-color="#3F873F" style="stop-color:#3F873F;stop-color:color(display-p3 0.2471 0.5294 0.2471);stop-opacity:1;"/>
<stop offset="0.4016" stop-color="#52A044" style="stop-color:#52A044;stop-color:color(display-p3 0.3216 0.6275 0.2667);stop-opacity:1;"/>
<stop offset="0.7129" stop-color="#64B749" style="stop-color:#64B749;stop-color:color(display-p3 0.3922 0.7176 0.2863);stop-opacity:1;"/>
<stop offset="0.9081" stop-color="#6ABF4B" style="stop-color:#6ABF4B;stop-color:color(display-p3 0.4157 0.7490 0.2941);stop-opacity:1;"/>
</linearGradient>
<linearGradient id="paint2_linear_2031_10" x1="15.8157" y1="16.0639" x2="29.2653" y2="16.0639" gradientUnits="userSpaceOnUse">
<stop offset="0.0919165" stop-color="#6ABF4B" style="stop-color:#6ABF4B;stop-color:color(display-p3 0.4157 0.7490 0.2941);stop-opacity:1;"/>
<stop offset="0.2871" stop-color="#64B749" style="stop-color:#64B749;stop-color:color(display-p3 0.3922 0.7176 0.2863);stop-opacity:1;"/>
<stop offset="0.5984" stop-color="#52A044" style="stop-color:#52A044;stop-color:color(display-p3 0.3216 0.6275 0.2667);stop-opacity:1;"/>
<stop offset="0.8624" stop-color="#3F873F" style="stop-color:#3F873F;stop-color:color(display-p3 0.2471 0.5294 0.2471);stop-opacity:1;"/>
</linearGradient>
<clipPath id="clip0_2031_10">
<rect width="80.1" height="24" fill="white" style="fill:white;fill-opacity:1;"/>
</clipPath>
</defs>
</svg>
