<svg width="36" height="24" viewBox="0 0 36 24" fill="none" xmlns="http://www.w3.org/2000/svg">
<g clip-path="url(#clip0_2033_496)">
<path d="M20.16 24H33.48C33.905 24 34.3118 23.8507 34.68 23.64C35.0482 23.4293 35.4276 23.1649 35.64 22.8C35.8524 22.4351 36.0002 22.0212 36 21.5999C35.9998 21.1786 35.8528 20.7648 35.64 20.4001L26.64 4.92C26.4276 4.5552 26.168 4.29062 25.8 4.08C25.432 3.86938 24.905 3.72 24.48 3.72C24.055 3.72 23.648 3.86938 23.28 4.08C22.912 4.29062 22.6524 4.5552 22.44 4.92L20.16 8.88L15.6 1.19972C15.3874 0.834941 15.1282 0.450589 14.76 0.24C14.3918 0.0294104 13.985 0 13.56 0C13.135 0 12.7282 0.0294104 12.36 0.24C11.9919 0.450589 11.6126 0.834941 11.4 1.19972L0.240001 20.4001C0.0272382 20.7648 0.000185858 21.1786 9.12965e-07 21.5999C-0.000184032 22.0212 0.0275584 22.4351 0.240001 22.8C0.452443 23.1648 0.831895 23.4293 1.2 23.64C1.5681 23.8507 1.97494 24 2.4 24H10.8C14.1284 24 16.551 22.507 18.24 19.68L22.32 12.6L24.48 8.88L31.08 20.16H22.32L20.16 24ZM10.68 20.16H4.8L13.56 5.04L18 12.6L15.0589 17.727C13.9373 19.5612 12.6586 20.16 10.68 20.16Z" fill="#00DC82" style="fill:#00DC82;fill:color(display-p3 0.0000 0.8627 0.5098);fill-opacity:1;"/>
</g>
<defs>
<clipPath id="clip0_2033_496">
<rect width="36" height="24" fill="white" style="fill:white;fill-opacity:1;"/>
</clipPath>
</defs>
</svg>
