<svg width="24" height="24" viewBox="0 0 24 24" fill="none" xmlns="http://www.w3.org/2000/svg">
<path d="M11.7276 0.000196305C10.7488 0.00474443 9.81402 0.0882229 8.99155 0.23376C6.56863 0.66181 6.12872 1.55775 6.12872 3.21003V5.39218H11.8544V6.11957H6.12872H3.97993C2.3159 6.11957 0.858826 7.11975 0.403072 9.02243C-0.122635 11.2033 -0.145953 12.5643 0.403072 14.8415C0.810072 16.5366 1.78204 17.7444 3.44607 17.7444H5.41468V15.1285C5.41468 13.2386 7.04982 11.5716 8.99155 11.5716H14.7105C16.3025 11.5716 17.5733 10.2608 17.5733 8.66208V3.21003C17.5733 1.65835 16.2643 0.49273 14.7105 0.23376C13.7269 0.0700305 12.7064 -0.00435182 11.7276 0.000196305ZM8.63119 1.75526C9.22261 1.75526 9.70558 2.24612 9.70558 2.84967C9.70558 3.45109 9.22261 3.93741 8.63119 3.93741C8.03765 3.93741 7.5568 3.45109 7.5568 2.84967C7.5568 2.24612 8.03765 1.75526 8.63119 1.75526Z" fill="url(#paint0_linear_2033_538)" style=""/>
<path d="M18.2874 6.11957V8.66208C18.2874 10.6332 16.6162 12.2923 14.7105 12.2923H8.99155C7.42502 12.2923 6.12872 13.6331 6.12872 15.2019V20.6539C6.12872 22.2056 7.47802 23.1183 8.99155 23.5634C10.804 24.0964 12.542 24.1927 14.7105 23.5634C16.152 23.1461 17.5733 22.3062 17.5733 20.6539V18.4718H11.8544V17.7444H17.5733H20.4362C22.1002 17.7444 22.7203 16.5837 23.299 14.8415C23.8968 13.048 23.8713 11.3232 23.299 9.02243C22.8878 7.36588 22.1023 6.11957 20.4362 6.11957H18.2874ZM15.0709 19.9265C15.6644 19.9265 16.1453 20.4129 16.1453 21.0143C16.1453 21.6178 15.6644 22.1087 15.0709 22.1087C14.4795 22.1087 13.9965 21.6178 13.9965 21.0143C13.9965 20.4129 14.4795 19.9265 15.0709 19.9265Z" fill="url(#paint1_linear_2033_538)" style=""/>
<defs>
<linearGradient id="paint0_linear_2033_538" x1="1.86877e-08" y1="1.62335e-08" x2="13.2027" y2="11.2505" gradientUnits="userSpaceOnUse">
<stop stop-color="#5A9FD4" style="stop-color:#5A9FD4;stop-color:color(display-p3 0.3529 0.6235 0.8314);stop-opacity:1;"/>
<stop offset="1" stop-color="#306998" style="stop-color:#306998;stop-color:color(display-p3 0.1882 0.4118 0.5961);stop-opacity:1;"/>
</linearGradient>
<linearGradient id="paint1_linear_2033_538" x1="14.9333" y1="20.8308" x2="10.1967" y2="14.1934" gradientUnits="userSpaceOnUse">
<stop stop-color="#FFD43B" style="stop-color:#FFD43B;stop-color:color(display-p3 1.0000 0.8314 0.2314);stop-opacity:1;"/>
<stop offset="1" stop-color="#FFE873" style="stop-color:#FFE873;stop-color:color(display-p3 1.0000 0.9098 0.4510);stop-opacity:1;"/>
</linearGradient>
</defs>
</svg>
