<svg width="40" height="24" viewBox="0 0 40 24" fill="none" xmlns="http://www.w3.org/2000/svg">
<g clip-path="url(#clip0_2031_55)">
<path fill-rule="evenodd" clip-rule="evenodd" d="M19.7551 0C14.4867 0 11.1948 2.61832 9.87716 7.85497C11.8529 5.23665 14.1577 4.25497 16.7915 4.90916C18.2942 5.28232 19.3688 6.36619 20.5572 7.56619C22.4942 9.52026 24.7363 11.7817 29.6323 11.7817C34.8999 11.7817 38.1925 9.16336 39.5094 3.92748C37.5345 6.54581 35.2297 7.52748 32.5959 6.87252C31.0924 6.49936 30.0178 5.41548 28.8294 4.21626C26.8924 2.26065 24.6511 0 19.7551 0ZM9.87716 11.7817C4.60955 11.7817 1.3169 14.4 0 19.6366C1.97574 17.0183 4.28052 16.0366 6.91355 16.6908C8.41703 17.064 9.49161 18.1479 10.68 19.3479C12.617 21.3019 14.8583 23.5634 19.7551 23.5634C25.0227 23.5634 28.3154 20.9458 29.6323 15.7092C27.6565 18.3275 25.3517 19.3092 22.7179 18.655C21.2152 18.281 20.1406 17.1972 18.9523 15.9979C17.0152 14.0439 14.7732 11.7817 9.87716 11.7817Z" fill="#38BDF8" style="fill:#38BDF8;fill:color(display-p3 0.2196 0.7412 0.9725);fill-opacity:1;"/>
</g>
<defs>
<clipPath id="clip0_2031_55">
<rect width="39.5094" height="23.5634" fill="white" style="fill:white;fill-opacity:1;"/>
</clipPath>
</defs>
</svg>
