<svg width="25" height="24" viewBox="0 0 25 24" fill="none" xmlns="http://www.w3.org/2000/svg">
<g clip-path="url(#clip0_2033_544)">
<path fill-rule="evenodd" clip-rule="evenodd" d="M0.910228 0H23.3625C23.8652 0 24.2728 0.402943 24.2728 0.9V23.1C24.2728 23.5971 23.8652 24 23.3625 24H0.910228C0.407523 24 0 23.5971 0 23.1V0.9C0 0.402943 0.407523 0 0.910228 0ZM13.4931 12.7684V10.8H4.85454V12.7684H7.93865V21.5326H10.3938V12.7684H13.4931ZM14.4719 21.3012C14.8678 21.5008 15.3361 21.6505 15.8766 21.7503C16.4173 21.8501 16.987 21.9 17.586 21.9C18.1698 21.9 18.7242 21.8451 19.2497 21.7353C19.775 21.6256 20.2356 21.4446 20.6315 21.1926C21.0274 20.9406 21.3409 20.6114 21.5718 20.2047C21.8028 19.798 21.9183 19.2953 21.9183 18.6965C21.9183 18.2623 21.8523 17.8819 21.7203 17.5551C21.5884 17.2282 21.398 16.9375 21.1493 16.683C20.9006 16.4286 20.6023 16.2003 20.2546 15.9982C19.9069 15.7962 19.5149 15.6053 19.0783 15.4256C18.7585 15.2958 18.4717 15.1698 18.2179 15.0476C17.9641 14.9254 17.7484 14.8006 17.5708 14.6734C17.3931 14.5461 17.2561 14.4114 17.1596 14.2692C17.0632 14.127 17.015 13.9661 17.015 13.7864C17.015 13.6218 17.0581 13.4733 17.1444 13.3411C17.2307 13.2089 17.3525 13.0953 17.5098 13.0005C17.6672 12.9057 17.8601 12.8322 18.0885 12.7797C18.3169 12.7274 18.5707 12.7012 18.8499 12.7012C19.053 12.7012 19.2674 12.7161 19.4933 12.746C19.7191 12.776 19.9463 12.8222 20.1747 12.8845C20.4031 12.9469 20.6252 13.0254 20.841 13.1203C21.0567 13.2151 21.2559 13.3249 21.4386 13.4496V11.2117C21.068 11.0719 20.6633 10.9684 20.2242 10.9011C19.7851 10.8337 19.2813 10.8 18.7128 10.8C18.1342 10.8 17.586 10.8611 17.0682 10.9834C16.5505 11.1056 16.095 11.2965 15.7015 11.556C15.3081 11.8155 14.9972 12.146 14.7689 12.5477C14.5404 12.9494 14.4262 13.4297 14.4262 13.9885C14.4262 14.7021 14.6356 15.3109 15.0544 15.8148C15.4732 16.3188 16.1089 16.7454 16.9616 17.0947C17.2967 17.2295 17.6088 17.3617 17.8982 17.4915C18.1875 17.6212 18.4374 17.7559 18.6481 17.8956C18.8587 18.0354 19.025 18.1875 19.1468 18.3522C19.2687 18.5168 19.3296 18.7039 19.3296 18.9136C19.3296 19.0683 19.2915 19.2117 19.2153 19.3439C19.1392 19.4762 19.0237 19.5909 18.8689 19.6882C18.7141 19.7855 18.5213 19.8617 18.2903 19.9165C18.0594 19.9714 17.789 19.9988 17.4794 19.9988C16.9515 19.9988 16.4286 19.9078 15.9109 19.7257C15.3932 19.5436 14.9135 19.2703 14.4719 18.9061V21.3012Z" fill="#3178C6" style="fill:#3178C6;fill:color(display-p3 0.1922 0.4706 0.7765);fill-opacity:1;"/>
</g>
<defs>
<clipPath id="clip0_2033_544">
<rect width="24.2728" height="24" fill="white" style="fill:white;fill-opacity:1;"/>
</clipPath>
</defs>
</svg>
