<?xml version="1.0" standalone="no"?>
<!DOCTYPE svg PUBLIC "-//W3C//DTD SVG 20010904//EN"
 "http://www.w3.org/TR/2001/REC-SVG-20010904/DTD/svg10.dtd">
<svg version="1.0" xmlns="http://www.w3.org/2000/svg"
 width="700.000000pt" height="700.000000pt" viewBox="0 0 700.000000 700.000000"
 preserveAspectRatio="xMidYMid meet">
<metadata>
Created by potrace 1.14, written by Peter Selinger 2001-2017
</metadata>
<g transform="translate(0.000000,700.000000) scale(0.100000,-0.100000)"
fill="#000000" stroke="none">
<path d="M1203 4759 c-44 -13 -100 -70 -112 -116 -15 -52 -15 -2063 -1 -2115
14 -48 55 -97 97 -114 39 -17 131 -18 170 -3 35 13 70 45 91 84 15 27 18 104
22 744 l5 713 305 -553 c168 -304 318 -568 334 -587 40 -45 76 -62 136 -62 63
0 111 21 143 63 13 18 161 282 328 587 l304 554 5 -709 c5 -671 6 -712 24
-748 31 -63 77 -91 157 -95 84 -5 141 19 179 75 l25 37 3 1045 c2 575 0 1061
-3 1079 -9 49 -66 107 -120 122 -63 18 -148 7 -194 -23 -21 -14 -51 -47 -68
-74 -17 -26 -196 -354 -398 -728 -202 -374 -370 -683 -374 -688 -4 -4 -180
313 -392 705 -407 754 -426 785 -505 807 -46 13 -117 13 -161 0z"/>
<path d="M4029 4717 c-54 -29 -84 -72 -99 -141 -7 -36 -10 -353 -8 -1026 l3
-975 22 -40 c25 -48 57 -79 98 -97 41 -17 689 -24 881 -8 354 28 579 122 779
324 118 120 171 206 227 370 49 145 68 273 68 466 0 381 -98 643 -318 851
-126 119 -254 191 -434 243 -171 49 -259 56 -735 56 l-440 0 -44 -23z m881
-337 c328 -40 532 -201 609 -479 29 -106 45 -268 37 -391 -26 -398 -182 -612
-511 -701 -72 -20 -111 -23 -387 -27 l-308 -4 0 806 0 806 238 0 c131 0 276
-5 322 -10z"/>
</g>
</svg>
