<svg width="75" height="24" viewBox="0 0 75 24" fill="none" xmlns="http://www.w3.org/2000/svg">
<path d="M38.6289 11.0722V17.2577H34.7938C32.567 17.2577 32.567 16.6392 32.567 14.1649C32.567 12.0618 32.567 11.0722 34.7938 11.0722H38.6289ZM43.0206 20.9072V3.09277H38.6289V7.48453H34.7938C29.3505 7.48453 28.1134 9.3402 28.1134 14.1649C28.1134 18.7423 28.9794 20.9072 34.8557 20.9072H43.0206ZM50.3196 14.1649C50.3196 11.8144 50.3196 11.0722 52.5464 11.0722H53.9072V7.48453H52.5464C47.1031 7.48453 45.866 8.3505 45.866 14.1649V20.9072H50.3196V14.1649ZM66.8969 11.0722V17.2577H63.0619C60.8351 17.2577 60.8351 16.6392 60.8351 14.1649C60.8351 12.0618 60.8351 11.0722 63.0619 11.0722H66.8969ZM71.2887 20.9072V7.48453H63.0619C57.6186 7.48453 56.3814 9.3402 56.3814 14.1649C56.3814 18.7423 57.2474 20.9072 63.1237 20.9072H71.2887ZM10.8247 7.48453L10.8557 20.9072H15.2474V11.0722H18.5876C20.8144 11.0722 20.8144 11.8144 20.8144 14.1649V20.9072H25.268V14.1649C25.268 8.3505 24.0309 7.48453 18.5876 7.48453H10.8247ZM7.51547 7.48453H3.09279V20.9072H7.51547V7.48453Z" fill="#00475D" style="fill:#00475D;fill:color(display-p3 0.0000 0.2784 0.3647);fill-opacity:1;"/>
</svg>
