<svg width="120" height="24" viewBox="0 0 120 24" fill="none" xmlns="http://www.w3.org/2000/svg">
<g clip-path="url(#clip0_2036_1324)">
<path d="M110.88 10.28C111 21.12 111.2 22.12 113.4 23.12C114.68 23.72 117.16 23.76 118.6 23.2C119.52 22.84 119.64 22.64 119.4 21.68C119.04 20.28 119.12 20.28 117.68 21.04C116 21.84 114.24 21.48 113.64 20.16C113.4 19.56 113.2 16.84 113.2 13.4V7.60003H116C118.72 7.60003 118.8 7.56003 118.8 6.60003C118.8 5.64003 118.72 5.60003 116 5.60003H113.2V3.00003V0.400028H111.96H110.76L110.88 10.28Z" fill="#1A3D48" style="fill:#1A3D48;fill:color(display-p3 0.1020 0.2392 0.2824);fill-opacity:1;"/>
<path d="M83.92 5.60003C82.12 5.92004 80.64 6.88004 79.72 8.28004C79.12 9.16004 79 10.28 79 14.64C79 20.6 79.36 21.52 82.04 22.88C83.72 23.76 87.24 23.8 88.84 23C89.88 22.44 90.04 22.44 90.24 23C90.36 23.32 90.84 23.6 91.28 23.6C92.04 23.6 92.04 23.32 91.92 16.44C91.8 9.88004 91.72 9.16004 90.96 8.12004C89.4 6.00004 86.76 5.08004 83.92 5.60003ZM88.68 9.00004C89.52 9.96004 89.6 10.44 89.6 14.52C89.6 19.68 89.24 20.52 86.92 21.16C84.76 21.76 82.56 21.08 81.8 19.6C81.12 18.28 80.96 11.48 81.6 9.84004C82.48 7.44003 86.88 6.92004 88.68 9.00004Z" fill="#1A3D48" style="fill:#1A3D48;fill:color(display-p3 0.1020 0.2392 0.2824);fill-opacity:1;"/>
<path d="M3.79999 5.96004C2.67999 6.44004 1.31999 8.00004 0.839994 9.32004C0.599994 9.96004 0.399994 13.36 0.399994 17.04V23.6H1.59999H2.79999V16.84C2.79999 10.24 2.83999 10 3.75999 8.92004C4.59999 7.92004 4.99999 7.80004 6.99999 7.80004C8.99999 7.80004 9.39999 7.92004 10.24 8.92004C11.16 10 11.2 10.24 11.2 16.84V23.6H12.4H13.6V17.4C13.6 9.84004 13.92 8.68004 16.36 7.96004C17.64 7.56004 18.36 7.56004 19.64 7.96004C22.08 8.68004 22.4 9.84004 22.4 17.4V23.6H23.64H24.88L24.72 16.72C24.56 9.00004 24.2 7.80004 21.88 6.40004C19.96 5.20004 15.76 5.28004 13.92 6.56004L12.52 7.48004L11.36 6.64004C10.52 6.00004 9.51999 5.80004 7.39999 5.72004C5.87999 5.64004 4.23999 5.76004 3.79999 5.96004Z" fill="#1A3D48" style="fill:#1A3D48;fill:color(display-p3 0.1020 0.2392 0.2824);fill-opacity:1;"/>
<path d="M29.2 6.60004C29.2 7.56004 29.32 7.60004 31.6 7.60004H34V14.4V21.2H31.6H29.2V22.4V23.6H34.64H40.04L39.92 22.48C39.8 21.52 39.64 21.4 38.12 21.28L36.4 21.16V13.36V5.60004H32.8C29.24 5.60004 29.2 5.60004 29.2 6.60004Z" fill="#1A3D48" style="fill:#1A3D48;fill:color(display-p3 0.1020 0.2392 0.2824);fill-opacity:1;"/>
<path d="M44.4 14.6V23.6H45.6H46.8V17.2C46.8 13.28 46.96 10.44 47.24 9.84004C48.32 7.48004 52.52 6.96004 54.32 9.00004C55.16 10 55.2 10.36 55.2 16.84V23.6H56.4H57.6V16.92C57.6 11.04 57.52 10.04 56.8 8.56004C56.24 7.48004 55.48 6.64004 54.64 6.24004C52.88 5.40004 49.52 5.44004 47.92 6.24004C46.76 6.84004 46.64 6.84004 46.2 6.24004C45.92 5.88004 45.4 5.60004 45.04 5.60004C44.48 5.60004 44.4 6.52004 44.4 14.6Z" fill="#1A3D48" style="fill:#1A3D48;fill:color(display-p3 0.1020 0.2392 0.2824);fill-opacity:1;"/>
<path d="M64.32 6.24002C62 7.48002 61.24 11.08 62.92 13C63.56 13.76 64.8 14.32 67.4 15.04C71.56 16.24 72.4 16.8 72.4 18.64C72.4 20.4 71.2 21.2 68.52 21.2C65.8 21.2 64.4 20.56 64.12 19.12C63.96 18.2 63.68 18 62.76 18C61.84 18 61.6 18.16 61.6 18.88C61.6 20.32 63.12 22.4 64.6 23.04C66.36 23.76 70.04 23.76 71.76 23.04C74.64 21.84 75.68 18.48 74.04 15.76C73.24 14.48 72.48 14.12 67.16 12.64C64.84 12 64.4 11.52 64.4 9.76002C64.4 9.00002 64.72 8.60002 65.8 8.16002C68.44 7.08002 71.76 7.88002 72.24 9.76002C72.44 10.56 72.72 10.8 73.64 10.8C74.96 10.8 75.04 10.52 74.24 8.60002C73.36 6.48002 71.56 5.60002 68.2 5.60002C66.52 5.64002 64.96 5.88002 64.32 6.24002Z" fill="#1A3D48" style="fill:#1A3D48;fill:color(display-p3 0.1020 0.2392 0.2824);fill-opacity:1;"/>
<path d="M96.8 6.60002C96.8 7.48001 96.96 7.56001 99.12 7.68001L101.4 7.80002L101.52 14.48L101.6 21.2H99.2H96.8V22.4V23.64L102.12 23.52L107.4 23.4V22.4C107.4 21.48 107.24 21.4 105.52 21.28L103.6 21.16V13.36V5.60002H100.2C96.84 5.60002 96.8 5.60002 96.8 6.60002Z" fill="#1A3D48" style="fill:#1A3D48;fill:color(display-p3 0.1020 0.2392 0.2824);fill-opacity:1;"/>
</g>
<defs>
<clipPath id="clip0_2036_1324">
<rect width="120" height="24" fill="white" style="fill:white;fill-opacity:1;"/>
</clipPath>
</defs>
</svg>
