<svg width="20" height="24" viewBox="0 0 20 24" fill="none" xmlns="http://www.w3.org/2000/svg">
<g clip-path="url(#clip0_2033_503)">
<path d="M18.7005 3.17547C16.4719 -0.0141709 12.0703 -0.959599 8.88793 1.06797L3.3 4.63026C2.54472 5.10513 1.89686 5.7324 1.39785 6.47196C0.898835 7.21151 0.559656 8.04706 0.402003 8.92519C0.135461 10.4041 0.369828 11.9297 1.068 13.2604C0.589521 13.9861 0.26316 14.8013 0.108646 15.6568C-0.050524 16.5525 -0.0292514 17.471 0.171217 18.3583C0.371685 19.2457 0.747313 20.0842 1.27607 20.8245C3.50465 24.0145 7.9065 24.9602 11.0884 22.932L16.6776 19.3697C17.4327 18.8947 18.0804 18.2674 18.5792 17.5279C19.078 16.7883 19.4169 15.9528 19.5744 15.0748C19.8413 13.596 19.6076 12.0703 18.9101 10.7393C19.3882 10.0136 19.7144 9.19846 19.8688 8.34319C20.0282 7.44749 20.007 6.52898 19.8066 5.64156C19.6061 4.75415 19.2304 3.91572 18.7016 3.17547" fill="#FF3E00" style="fill:#FF3E00;fill:color(display-p3 1.0000 0.2431 0.0000);fill-opacity:1;"/>
<path d="M8.34195 21.1247C7.46239 21.3533 6.53385 21.3066 5.68171 20.9907C4.82958 20.6748 4.0949 20.1051 3.57688 19.3584C3.25895 18.9132 3.03309 18.4091 2.91255 17.8756C2.792 17.342 2.7792 16.7898 2.87488 16.2512C2.90727 16.0744 2.95187 15.9001 3.00838 15.7294L3.1136 15.408L3.4001 15.6182C4.06115 16.1043 4.80034 16.4739 5.58581 16.7111L5.79345 16.7741L5.77438 16.9815C5.74916 17.2762 5.82909 17.5704 6.00002 17.8119C6.156 18.037 6.37734 18.2087 6.63411 18.304C6.89088 18.3992 7.1707 18.4133 7.43574 18.3444C7.557 18.3121 7.67262 18.2615 7.7786 18.1944L13.3676 14.6316C13.5044 14.5455 13.6217 14.4319 13.7122 14.2979C13.8026 14.164 13.8641 14.0126 13.8928 13.8536C13.9215 13.6912 13.9175 13.5248 13.8812 13.364C13.8448 13.2031 13.7768 13.0512 13.6811 12.9169C13.5251 12.6918 13.3038 12.52 13.047 12.4247C12.7903 12.3294 12.5105 12.3152 12.2454 12.384C12.1241 12.4163 12.0085 12.4668 11.9025 12.534L9.76974 13.8936C9.41875 14.1166 9.03576 14.2847 8.63402 14.3921C7.75446 14.6207 6.82591 14.574 5.97377 14.2581C5.12163 13.9422 4.38695 13.3724 3.86895 12.6257C3.55093 12.1806 3.325 11.6765 3.20442 11.143C3.08383 10.6094 3.07102 10.0571 3.16674 9.51857C3.26172 8.99054 3.46586 8.48814 3.7661 8.04352C4.06634 7.59889 4.45608 7.22182 4.91038 6.93643L10.5 3.37436C10.8509 3.15105 11.2339 2.98275 11.6357 2.87529C12.5153 2.64665 13.4438 2.69343 14.296 3.00931C15.1481 3.32519 15.8828 3.89494 16.4008 4.64164C16.7188 5.08674 16.9447 5.59085 17.0653 6.1244C17.1858 6.65795 17.1987 7.21021 17.103 7.74878C17.0704 7.92555 17.0257 8.09988 16.9693 8.27057L16.8641 8.592L16.5778 8.38221C15.9168 7.8961 15.1776 7.5265 14.3921 7.28936L14.1842 7.22636L14.2035 7.01893C14.2287 6.72402 14.1488 6.4297 13.9781 6.18793C13.8221 5.96285 13.6008 5.79109 13.344 5.69585C13.0872 5.60062 12.8074 5.58651 12.5424 5.65543C12.4211 5.68767 12.3055 5.73826 12.1995 5.80543L6.60902 9.36836C6.47227 9.45439 6.35496 9.568 6.2646 9.70194C6.17424 9.83588 6.11281 9.98719 6.08424 10.1462C6.05543 10.3086 6.05928 10.4751 6.09556 10.6359C6.13184 10.7968 6.19982 10.9488 6.29552 11.0831C6.45155 11.3081 6.67287 11.4799 6.92961 11.5752C7.18635 11.6705 7.46615 11.6847 7.73124 11.616C7.85247 11.5837 7.96808 11.5331 8.0741 11.466L10.2067 10.107C10.5575 9.88362 10.9405 9.71537 11.3424 9.60814C12.2219 9.3795 13.1504 9.42627 14.0025 9.74215C14.8546 10.058 15.5893 10.6278 16.1072 11.3745C16.4253 11.8196 16.6512 12.3237 16.7718 12.8572C16.8924 13.3908 16.9052 13.9431 16.8095 14.4816C16.7147 15.0097 16.5108 15.5121 16.2108 15.9569C15.9108 16.4016 15.5214 16.7789 15.0673 17.0646L9.47767 20.6256C9.12678 20.849 8.74378 21.0173 8.34195 21.1247Z" fill="white" style="fill:white;fill-opacity:1;"/>
</g>
<defs>
<clipPath id="clip0_2033_503">
<rect width="19.9766" height="24" fill="white" style="fill:white;fill-opacity:1;"/>
</clipPath>
</defs>
</svg>
