<svg width="111" height="24" viewBox="0 0 111 24" fill="none" xmlns="http://www.w3.org/2000/svg">
<g clip-path="url(#clip0_2035_1309)">
<path fill-rule="evenodd" clip-rule="evenodd" d="M0.00480652 19.0796H2.79361L4.49441 14.1996H8.88121L10.3944 19.0796H13.1144L8.45481 5.10758H5.42801L0.00480652 19.0796ZM5.17401 11.9768L6.85761 7.30518L8.32001 11.9768H5.17401ZM12.9816 4.89838V14.6356C12.9816 17.9956 15.1244 19.5256 18.27 19.5256C21.4156 19.5256 23.5584 17.996 23.5584 14.6356V4.89838H20.9904V13.666C20.9904 15.906 20.2084 17.2424 18.2704 17.2424C16.3324 17.2424 15.5504 15.9068 15.5504 13.666V4.89838H12.9824M23.766 7.32798H27.286V19.0796H29.8536V7.32798H33.3736V5.10758H23.766V7.32798ZM46.0112 7.32798H49.5312V19.0796H52.0984V7.32798H55.6184V5.10758H46.0104V7.32798M69.5748 19.0796H72.0064V7.15958H74.2864C75.6808 7.15958 76.0548 8.10238 76.0548 9.10798C76.0548 10.7628 74.9156 11.4752 73.6404 11.4752C73.4004 11.4752 72.9604 11.3916 72.6372 11.3496L75.8172 19.0792H78.5204L75.5112 12.69C77.3304 12.1456 78.4864 11.2028 78.4864 8.64718C78.4864 6.34278 76.9732 5.10718 74.7624 5.10718H69.5764V19.0792M79.6296 19.0796H82.1972V5.10758H79.6296V19.0796ZM83.8376 19.0796H86.0996V8.73158H86.1336L91.7448 19.08H94.8248V5.10798H92.5628V15.624H92.5292L86.9692 5.10798H83.8404V19.08M18.9204 0.292778C18.4775 0.0953298 17.9973 -0.00452913 17.5124 -2.21176e-05C16.2396 -2.21176e-05 15.3608 0.748778 15.3608 1.83758C15.3608 2.90558 16.2452 3.66478 17.4912 3.66478C18.0324 3.6819 18.563 3.51243 18.994 3.18478V1.72398H17.5856V2.37838H18.1056V2.79718C17.9209 2.88473 17.7183 2.92775 17.514 2.92278C16.7756 2.92278 16.278 2.50398 16.278 1.87038C16.278 1.34158 16.6184 0.744778 17.5868 0.744778C18.0511 0.751392 18.5077 0.86428 18.9216 1.07478V0.292778M19.4932 0.0471779V3.61798H20.3828V2.16798H20.6396C21.1196 2.16798 21.2628 2.85358 21.6448 3.61798H22.624C22.1212 2.57078 22.0116 2.13118 21.6448 1.94798C21.8248 1.88349 21.9803 1.76483 22.09 1.60831C22.1998 1.4518 22.2583 1.26513 22.2576 1.07398C22.2522 0.928582 22.2173 0.785808 22.1549 0.654376C22.0925 0.522944 22.0039 0.405614 21.8946 0.309554C21.7854 0.213493 21.6577 0.140719 21.5193 0.0956755C21.381 0.0506325 21.2349 0.0342668 21.09 0.0475779H19.4936M20.3832 0.701978H20.834C21.1688 0.701978 21.3416 0.837978 21.3416 1.10518C21.3416 1.40878 21.1016 1.51358 20.8548 1.51358H20.3832V0.701978ZM25.3952 0.0471779V2.03678C25.4045 2.15714 25.3872 2.27806 25.3447 2.39103C25.3021 2.504 25.2353 2.60627 25.149 2.69063C25.0627 2.77499 24.9589 2.83939 24.8449 2.8793C24.731 2.9192 24.6097 2.93363 24.4896 2.92158C24.376 2.93271 24.2613 2.91959 24.1531 2.88308C24.0449 2.84658 23.9458 2.78752 23.8621 2.70981C23.7785 2.63211 23.7123 2.53753 23.6679 2.43233C23.6236 2.32713 23.6021 2.21371 23.6048 2.09958V0.0471779H22.7148V2.07878C22.7148 3.18318 23.4636 3.66518 24.5 3.66518C25.4792 3.66518 26.2856 3.25638 26.2856 2.07358V0.0471779H25.3952ZM26.9516 0.0471779V3.61798H27.8416V2.18358H28.5484C28.6975 2.19794 28.848 2.18092 28.9902 2.1336C29.1324 2.08629 29.263 2.00973 29.3738 1.90885C29.4846 1.80798 29.5731 1.68502 29.6334 1.5479C29.6938 1.41078 29.7249 1.26254 29.7245 1.11271C29.7241 0.962879 29.6924 0.814785 29.6313 0.677961C29.5703 0.541137 29.4812 0.418615 29.37 0.318281C29.2587 0.217947 29.1276 0.142025 28.9852 0.0954017C28.8429 0.0487787 28.6923 0.0324878 28.5432 0.0475779H26.9516M27.8416 0.701978H28.156C28.636 0.701978 28.81 0.811578 28.81 1.11558C28.81 1.38278 28.6636 1.52958 28.2556 1.52958H27.8416V0.701978ZM30.2512 0.0471779V3.61798H31.1412V2.18358H31.848C31.9972 2.19791 32.1476 2.18086 32.2898 2.13352C32.4319 2.08618 32.5626 2.00959 32.6734 1.9087C32.7841 1.8078 32.8726 1.68483 32.9329 1.5477C32.9933 1.41057 33.0243 1.26232 33.0239 1.11249C33.0235 0.962658 32.9917 0.814571 32.9306 0.677759C32.8696 0.540947 32.7805 0.418441 32.6692 0.318128C32.5579 0.217815 32.4269 0.141917 32.2845 0.0953207C32.1421 0.0487239 31.9915 0.0324607 31.8424 0.0475779H30.2508M31.1408 0.701978H31.4552C31.9352 0.701978 32.1096 0.811578 32.1096 1.11558C32.1096 1.38278 31.9632 1.52958 31.5548 1.52958H31.1408V0.701978ZM37.4504 1.83238C37.3953 1.32862 37.1561 0.862936 36.7788 0.524645C36.4015 0.186353 35.9126 -0.000732422 35.4058 -0.000732422C34.899 -0.000732422 34.4101 0.186353 34.0328 0.524645C33.6555 0.862936 33.4163 1.32862 33.3612 1.83238C33.3612 2.74318 34.0996 3.66478 35.4084 3.66478C35.6636 3.68248 35.9197 3.64874 36.1615 3.56555C36.4034 3.48236 36.6261 3.35142 36.8164 3.1805C37.0067 3.00958 37.1607 2.80218 37.2692 2.57059C37.3778 2.33901 37.4387 2.08797 37.4484 1.83238M36.532 1.83238C36.5399 2.05729 36.4804 2.27943 36.3611 2.47026C36.2418 2.6611 36.0682 2.81193 35.8626 2.90338C35.657 2.99483 35.4287 3.02272 35.2071 2.98348C34.9855 2.94425 34.7807 2.83966 34.6189 2.68317C34.4572 2.52667 34.346 2.3254 34.2995 2.10521C34.253 1.88502 34.2733 1.65595 34.358 1.44742C34.4426 1.2389 34.5877 1.06044 34.7745 0.934948C34.9613 0.80946 35.1814 0.742678 35.4064 0.743178C35.5542 0.731467 35.7028 0.751301 35.8423 0.801367C35.9818 0.851432 36.1091 0.930584 36.2158 1.03358C36.3224 1.13657 36.4059 1.26105 36.4608 1.39876C36.5156 1.53648 36.5406 1.68428 36.534 1.83238H36.532ZM90.2408 20.6128C89.8623 20.4348 89.4499 20.3401 89.0316 20.3352C88.2044 20.3352 87.6716 20.744 87.6716 21.3616C87.6716 22.6444 89.4876 22.4296 89.4876 23.016C89.4876 23.2252 89.3048 23.346 88.964 23.346C88.5184 23.3276 88.0906 23.166 87.744 22.8852V23.6548C88.1327 23.8882 88.5791 24.008 89.0324 24.0004C89.8284 24.0004 90.404 23.6024 90.404 22.9168C90.404 21.6708 88.5872 21.8228 88.5872 21.2832C88.5872 21.1056 88.7916 20.9904 89.1112 20.9904C89.5067 21.015 89.8923 21.1241 90.242 21.3104V20.6144M90.7576 20.3824V23.9528H91.6476V22.5184H92.3548C92.504 22.5327 92.6544 22.5157 92.7966 22.4683C92.9388 22.421 93.0694 22.3444 93.1802 22.2435C93.291 22.1426 93.3794 22.0196 93.4397 21.8825C93.5001 21.7454 93.5311 21.5971 93.5307 21.4473C93.5303 21.2975 93.4985 21.1494 93.4374 21.0126C93.3764 20.8757 93.2873 20.7532 93.176 20.6529C93.0647 20.5526 92.9337 20.4767 92.7913 20.4301C92.6489 20.3835 92.4983 20.3673 92.3492 20.3824H90.7576ZM91.6476 21.0368H91.962C92.442 21.0368 92.616 21.1468 92.616 21.4504C92.616 21.7176 92.47 21.864 92.0616 21.864H91.6476V21.0368ZM95.5632 20.3824H94.532L93.092 23.9528H94.0344L94.3012 23.2464H95.8984L96.1908 23.9528H97.1508L95.564 20.3824M95.638 22.6224H94.538L95.0616 21.2352L95.638 22.6224Z" fill="#023E84" style="fill:#023E84;fill:color(display-p3 0.0078 0.2431 0.5176);fill-opacity:1;"/>
<path d="M39.7628 4.89841C38.3354 4.91852 36.9458 5.36018 35.7686 6.16784C34.5915 6.97551 33.6794 8.11315 33.1471 9.43773C32.6147 10.7623 32.4858 12.2147 32.7766 13.6124C33.0673 15.01 33.7648 16.2905 34.7813 17.2928C35.7978 18.2952 37.0879 18.9747 38.4894 19.2459C39.891 19.517 41.3415 19.3678 42.6585 18.817C43.9755 18.2661 45.1002 17.3382 45.8914 16.1499C46.6825 14.9616 47.1047 13.566 47.1048 12.1384C47.0912 10.2048 46.31 8.3557 44.9331 6.99796C43.5563 5.64022 41.6965 4.885 39.7628 4.89841ZM39.7548 17.342C38.5259 17.3514 37.3337 16.9237 36.3911 16.1352C35.4486 15.3467 34.817 14.2488 34.6092 13.0376H37.3836C37.5331 13.4523 37.7883 13.8208 38.1239 14.1068C38.4594 14.3927 38.8638 14.5861 39.2969 14.668C39.7301 14.7498 40.1772 14.7172 40.5939 14.5734C41.0107 14.4296 41.3827 14.1796 41.6732 13.848L43.9856 15.2156C43.497 15.8775 42.8594 16.415 42.1243 16.7844C41.3893 17.1539 40.5775 17.3449 39.7548 17.342ZM38.9316 12.23C38.9292 12.0648 38.976 11.9026 39.0661 11.7641C39.1562 11.6255 39.2854 11.5169 39.4374 11.4521C39.5894 11.3872 39.7572 11.369 39.9195 11.3998C40.0819 11.4306 40.2314 11.509 40.349 11.625C40.4667 11.741 40.5472 11.8894 40.5803 12.0513C40.6133 12.2132 40.5975 12.3813 40.5348 12.5342C40.472 12.687 40.3653 12.8178 40.228 12.9098C40.0908 13.0018 39.9292 13.0509 39.764 13.0508C39.5449 13.0522 39.3341 12.9665 39.1781 12.8126C39.0221 12.6587 38.9332 12.4492 38.9316 12.23ZM44.6564 13.9684L42.2604 12.5516C42.2744 12.4455 42.2815 12.3386 42.2816 12.2316C42.2751 11.6206 42.0467 11.0327 41.6391 10.5775C41.2314 10.1222 40.6722 9.83063 40.0656 9.75696C39.4589 9.68328 38.8462 9.83254 38.3414 10.177C37.8366 10.5214 37.4742 11.0375 37.3216 11.6292H34.5812C34.7611 10.3295 35.4242 9.14525 36.4383 8.3126C37.4524 7.47996 38.743 7.06003 40.0529 7.13653C41.3628 7.21303 42.5958 7.78034 43.506 8.72538C44.4163 9.67041 44.937 10.9238 44.9644 12.2356C44.9648 12.8269 44.8605 13.4135 44.6564 13.9684ZM62.0132 4.89841C60.5858 4.91852 59.1962 5.36018 58.019 6.16784C56.8419 6.97551 55.9299 8.11315 55.3975 9.43773C54.8651 10.7623 54.7362 12.2147 55.027 13.6124C55.3177 15.01 56.0152 16.2905 57.0317 17.2928C58.0482 18.2952 59.3383 18.9747 60.7398 19.2459C62.1414 19.517 63.5919 19.3678 64.9089 18.817C66.2259 18.2661 67.3506 17.3382 68.1418 16.1499C68.9329 14.9616 69.3551 13.566 69.3552 12.1384C69.3417 10.2047 68.5605 8.3556 67.1836 6.99784C65.8068 5.64008 63.9469 4.88489 62.0132 4.89841ZM62.0052 17.342C60.7762 17.3517 59.5837 16.924 58.6409 16.1355C57.6981 15.347 57.0663 14.249 56.8584 13.0376H59.6324C59.7819 13.4524 60.0371 13.821 60.3727 14.107C60.7082 14.393 61.1126 14.5865 61.5459 14.6683C61.9792 14.7501 62.4263 14.7175 62.8431 14.5737C63.2598 14.4298 63.6319 14.1797 63.9224 13.848L66.2348 15.2156C65.7463 15.8773 65.1089 16.4147 64.374 16.7841C63.6392 17.1535 62.8277 17.3447 62.0052 17.342ZM61.1824 12.23C61.18 12.0648 61.2268 11.9026 61.3169 11.7641C61.407 11.6255 61.5362 11.5169 61.6882 11.4521C61.8402 11.3872 62.008 11.369 62.1703 11.3998C62.3327 11.4306 62.4822 11.509 62.5998 11.625C62.7175 11.741 62.798 11.8894 62.8311 12.0513C62.8641 12.2132 62.8483 12.3813 62.7856 12.5342C62.7228 12.687 62.6161 12.8178 62.4788 12.9098C62.3416 13.0018 62.18 13.0509 62.0148 13.0508C61.9062 13.0516 61.7986 13.031 61.6979 12.9902C61.5973 12.9494 61.5057 12.8891 61.4284 12.8129C61.3511 12.7367 61.2895 12.646 61.2472 12.546C61.205 12.4459 61.1832 12.3386 61.1824 12.23ZM66.9072 13.9684L64.5112 12.5516C64.5251 12.4455 64.532 12.3386 64.532 12.2316C64.5255 11.6206 64.2971 11.0327 63.8894 10.5775C63.4818 10.1222 62.9226 9.83063 62.316 9.75696C61.7093 9.68328 61.0966 9.83254 60.5918 10.177C60.087 10.5214 59.7246 11.0375 59.572 11.6292H56.8316C57.0109 10.3291 57.6738 9.14427 58.6879 8.31116C59.7021 7.47806 60.993 7.05787 62.3032 7.13439C63.6135 7.21091 64.8467 7.77853 65.757 8.72403C66.6672 9.66953 67.1877 10.9234 67.2144 12.2356C67.2148 12.8268 67.1107 13.4135 66.9068 13.9684H66.9072ZM103.392 4.89841C101.965 4.91852 100.575 5.36018 99.3978 6.16784C98.2207 6.97551 97.3086 8.11315 96.7763 9.43773C96.2439 10.7623 96.115 12.2147 96.4058 13.6124C96.6965 15.01 97.394 16.2905 98.4105 17.2928C99.427 18.2952 100.717 18.9747 102.119 19.2459C103.52 19.517 104.971 19.3678 106.288 18.817C107.605 18.2661 108.729 17.3382 109.521 16.1499C110.312 14.9616 110.734 13.566 110.734 12.1384C110.727 11.1809 110.532 10.2341 110.16 9.35209C109.787 8.47004 109.244 7.67003 108.563 6.99772C107.881 6.32542 107.073 5.79399 106.186 5.43379C105.299 5.07359 104.349 4.89166 103.392 4.89841ZM103.384 17.342C102.155 17.3514 100.963 16.9236 100.02 16.1351C99.0779 15.3466 98.4462 14.2488 98.2384 13.0376H101.013C101.163 13.4523 101.418 13.8209 101.753 14.1068C102.089 14.3927 102.493 14.5862 102.926 14.668C103.359 14.7499 103.807 14.7173 104.223 14.5735C104.64 14.4296 105.012 14.1796 105.302 13.848L107.615 15.2156C107.127 15.8775 106.489 16.415 105.754 16.7844C105.019 17.1539 104.207 17.3449 103.384 17.342H103.384ZM102.561 12.23C102.559 12.0649 102.605 11.9028 102.695 11.7644C102.785 11.626 102.915 11.5175 103.067 11.4528C103.218 11.388 103.386 11.3698 103.548 11.4006C103.711 11.4314 103.86 11.5098 103.978 11.6257C104.095 11.7416 104.176 11.8899 104.209 12.0517C104.242 12.2135 104.226 12.3814 104.163 12.5342C104.101 12.687 103.994 12.8177 103.857 12.9097C103.72 13.0017 103.558 13.0508 103.393 13.0508C103.174 13.0522 102.963 12.9665 102.807 12.8126C102.651 12.6587 102.563 12.4492 102.561 12.23H102.561ZM108.286 13.9684L105.89 12.5516C105.957 11.9211 105.784 11.2884 105.406 10.7798C105.027 10.2712 104.471 9.92394 103.847 9.80738C103.224 9.69082 102.58 9.81351 102.043 10.151C101.506 10.4884 101.116 11.0158 100.951 11.628H98.2108C98.3913 10.3288 99.0545 9.14523 100.069 8.3131C101.082 7.48098 102.373 7.06136 103.682 7.13784C104.992 7.21431 106.224 7.78128 107.134 8.72578C108.045 9.67029 108.566 10.923 108.594 12.2344C108.594 12.8261 108.49 13.4132 108.286 13.9684H108.286ZM0 1.57121H13.5112V1.79321H0V1.57121ZM38.644 1.56201H110.734V1.79321H38.644V1.56201ZM0.0048 22.302H86.6292V22.5388H0.0048V22.302ZM98.3828 22.2996H110.751V22.5292H98.3828V22.2996Z" fill="#023E84" style="fill:#023E84;fill:color(display-p3 0.0078 0.2431 0.5176);fill-opacity:1;"/>
</g>
<defs>
<clipPath id="clip0_2035_1309">
<rect width="110.751" height="24" fill="white" style="fill:white;fill-opacity:1;"/>
</clipPath>
</defs>
</svg>
