<svg width="83" height="24" viewBox="0 0 83 24" fill="none" xmlns="http://www.w3.org/2000/svg">
<g clip-path="url(#clip0_2038_31)">
<path d="M0.509995 0.900024L3.14999 0.960024C4.84999 1.20002 5.74999 2.08002 5.84999 3.60002V8.40002C6.04999 9.88002 7.04999 10.8 8.84999 11.16V12H5.69999C4.39999 11.4 3.69999 10.4 3.59999 9.00002V4.05002C3.54999 3.55002 3.19999 3.25002 2.54999 3.15002H0.509995V0.900024Z" fill="#003365" style="fill:#003365;fill:color(display-p3 0.0000 0.2000 0.3961);fill-opacity:1;"/>
<path d="M0.509995 23.1L3.14999 23.04C4.84999 22.8 5.74999 21.92 5.84999 20.4V15.6C6.04999 14.12 7.04999 13.2 8.84999 12.84V12H5.69999C4.39999 12.6 3.69999 13.6 3.59999 15V19.95C3.54999 20.45 3.19999 20.75 2.54999 20.85H0.509995V23.1Z" fill="#003365" style="fill:#003365;fill:color(display-p3 0.0000 0.2000 0.3961);fill-opacity:1;"/>
<path d="M23.19 23.1L20.55 23.04C18.85 22.8 17.95 21.92 17.85 20.4V15.6C17.65 14.12 16.65 13.2 14.85 12.84V12H18C19.3 12.6 20 13.6 20.1 15V19.95C20.15 20.45 20.5 20.75 21.15 20.85H23.19V23.1Z" fill="#FB6703" style="fill:#FB6703;fill:color(display-p3 0.9843 0.4039 0.0118);fill-opacity:1;"/>
<path d="M23.19 0.900024L20.55 0.960024C18.85 1.20002 17.95 2.08002 17.85 3.60002V8.40002C17.65 9.88002 16.65 10.8 14.85 11.16V12H18C19.3 11.4 20 10.4 20.1 9.00002V4.05002C20.15 3.55002 20.5 3.25002 21.15 3.15002H23.19V0.900024Z" fill="#FB6703" style="fill:#FB6703;fill:color(display-p3 0.9843 0.4039 0.0118);fill-opacity:1;"/>
<path d="M0 6.15004C0 5.57014 0.470101 5.10004 1.05 5.10004C1.6299 5.10004 2.1 5.57014 2.1 6.15004C2.1 6.72994 1.6299 7.20004 1.05 7.20004C0.470101 7.20004 0 6.72994 0 6.15004Z" fill="#003365" style="fill:#003365;fill:color(display-p3 0.0000 0.2000 0.3961);fill-opacity:1;"/>
<path d="M23.7 6.15004C23.7 5.57014 23.2299 5.10004 22.65 5.10004C22.0701 5.10004 21.6 5.57014 21.6 6.15004C21.6 6.72994 22.0701 7.20004 22.65 7.20004C23.2299 7.20004 23.7 6.72994 23.7 6.15004Z" fill="#FB6703" style="fill:#FB6703;fill:color(display-p3 0.9843 0.4039 0.0118);fill-opacity:1;"/>
<path d="M9.45 12C9.45 11.4201 9.9201 10.95 10.5 10.95C11.0799 10.95 11.55 11.4201 11.55 12C11.55 12.5799 11.0799 13.05 10.5 13.05C9.9201 13.05 9.45 12.5799 9.45 12Z" fill="#FB6703" style="fill:#FB6703;fill:color(display-p3 0.9843 0.4039 0.0118);fill-opacity:1;"/>
<path d="M14.25 12C14.25 11.4201 13.7799 10.95 13.2 10.95C12.6201 10.95 12.15 11.4201 12.15 12C12.15 12.5799 12.6201 13.05 13.2 13.05C13.7799 13.05 14.25 12.5799 14.25 12Z" fill="#003365" style="fill:#003365;fill:color(display-p3 0.0000 0.2000 0.3961);fill-opacity:1;"/>
<g clip-path="url(#clip1_2038_31)">
<path d="M35.054 11.14C34.2887 11.14 33.556 11.0327 32.856 10.818C32.156 10.594 31.6007 10.3093 31.19 9.964L31.82 8.55C32.212 8.858 32.6973 9.11467 33.276 9.32C33.8547 9.52533 34.4473 9.628 35.054 9.628C35.5673 9.628 35.9827 9.572 36.3 9.46C36.6173 9.348 36.8507 9.19867 37 9.012C37.1493 8.816 37.224 8.59667 37.224 8.354C37.224 8.05533 37.1167 7.81733 36.902 7.64C36.6873 7.45333 36.4073 7.30867 36.062 7.206C35.726 7.094 35.348 6.99133 34.928 6.898C34.5173 6.80467 34.102 6.69733 33.682 6.576C33.2713 6.44533 32.8933 6.282 32.548 6.086C32.212 5.88067 31.9367 5.61 31.722 5.274C31.5073 4.938 31.4 4.50867 31.4 3.986C31.4 3.454 31.54 2.96867 31.82 2.53C32.1093 2.082 32.5433 1.72733 33.122 1.466C33.71 1.19533 34.452 1.06 35.348 1.06C35.936 1.06 36.5193 1.13467 37.098 1.284C37.6767 1.43333 38.1807 1.648 38.61 1.928L38.036 3.342C37.5973 3.08067 37.1447 2.88933 36.678 2.768C36.2113 2.63733 35.7633 2.572 35.334 2.572C34.83 2.572 34.4193 2.63267 34.102 2.754C33.794 2.87533 33.5653 3.034 33.416 3.23C33.276 3.426 33.206 3.65 33.206 3.902C33.206 4.20067 33.3087 4.44333 33.514 4.63C33.7287 4.80733 34.004 4.94733 34.34 5.05C34.6853 5.15267 35.068 5.25533 35.488 5.358C35.908 5.45133 36.3233 5.55867 36.734 5.68C37.154 5.80133 37.532 5.96 37.868 6.156C38.2133 6.352 38.4887 6.618 38.694 6.954C38.9087 7.29 39.016 7.71467 39.016 8.228C39.016 8.75067 38.8713 9.236 38.582 9.684C38.302 10.1227 37.868 10.4773 37.28 10.748C36.692 11.0093 35.95 11.14 35.054 11.14ZM42.0807 9.334L42.1227 7.136L46.0287 3.524H48.1287L44.8107 6.856L43.8867 7.626L42.0807 9.334ZM40.6527 11V0.611999H42.4027V11H40.6527ZM46.2947 11L43.5647 7.626L44.6707 6.226L48.4227 11H46.2947ZM49.5531 11V3.524H51.3031V11H49.5531ZM50.4351 2.292C50.1084 2.292 49.8377 2.18933 49.6231 1.984C49.4177 1.77867 49.3151 1.53133 49.3151 1.242C49.3151 0.943333 49.4177 0.695999 49.6231 0.499999C49.8377 0.294666 50.1084 0.192 50.4351 0.192C50.7617 0.192 51.0277 0.29 51.2331 0.485999C51.4477 0.672666 51.5551 0.910666 51.5551 1.2C51.5551 1.508 51.4524 1.76933 51.2471 1.984C51.0417 2.18933 50.7711 2.292 50.4351 2.292ZM53.6 11V0.611999H55.35V11H53.6ZM57.6468 11V0.611999H59.3968V11H57.6468ZM65.8377 11.098C65.203 11.098 64.6384 10.958 64.1437 10.678C63.649 10.398 63.257 9.978 62.9677 9.418C62.6877 8.84867 62.5477 8.13 62.5477 7.262C62.5477 6.38467 62.6924 5.666 62.9817 5.106C63.2804 4.546 63.677 4.13067 64.1717 3.86C64.6757 3.58 65.231 3.44 65.8377 3.44C66.575 3.44 67.2237 3.59867 67.7837 3.916C68.353 4.23333 68.801 4.67667 69.1277 5.246C69.4637 5.81533 69.6317 6.48733 69.6317 7.262C69.6317 8.03667 69.4637 8.70867 69.1277 9.278C68.801 9.84733 68.353 10.2953 67.7837 10.622C67.2237 10.9393 66.575 11.098 65.8377 11.098ZM61.6937 11V0.611999H63.4437V5.26L63.3037 7.248L63.3597 9.236V11H61.6937ZM65.6417 9.6C66.0617 9.6 66.435 9.50667 66.7617 9.32C67.0977 9.13333 67.3637 8.86267 67.5597 8.508C67.7557 8.15333 67.8537 7.738 67.8537 7.262C67.8537 6.77667 67.7557 6.36133 67.5597 6.016C67.3637 5.66133 67.0977 5.39067 66.7617 5.204C66.435 5.01733 66.0617 4.924 65.6417 4.924C65.2217 4.924 64.8437 5.01733 64.5077 5.204C64.1717 5.39067 63.9057 5.66133 63.7097 6.016C63.5137 6.36133 63.4157 6.77667 63.4157 7.262C63.4157 7.738 63.5137 8.15333 63.7097 8.508C63.9057 8.86267 64.1717 9.13333 64.5077 9.32C64.8437 9.50667 65.2217 9.6 65.6417 9.6ZM71.2914 11V3.524H73.0414V11H71.2914ZM72.1734 2.292C71.8467 2.292 71.576 2.18933 71.3614 1.984C71.156 1.77867 71.0534 1.53133 71.0534 1.242C71.0534 0.943333 71.156 0.695999 71.3614 0.499999C71.576 0.294666 71.8467 0.192 72.1734 0.192C72.5 0.192 72.766 0.29 72.9714 0.485999C73.186 0.672666 73.2934 0.910666 73.2934 1.2C73.2934 1.508 73.1907 1.76933 72.9854 1.984C72.78 2.18933 72.5094 2.292 72.1734 2.292ZM75.3382 11V0.611999H77.0882V11H75.3382ZM79.3851 11V0.611999H81.1351V11H79.3851Z" fill="#003363" style="fill:#003363;fill:color(display-p3 0.0000 0.2000 0.3882);fill-opacity:1;"/>
<path d="M32.644 22.048C32.292 22.048 31.956 22 31.636 21.904C31.3213 21.808 31.0733 21.6907 30.892 21.552L31.212 20.944C31.3933 21.0667 31.6173 21.1707 31.884 21.256C32.1507 21.3413 32.4227 21.384 32.7 21.384C33.0573 21.384 33.3133 21.3333 33.468 21.232C33.628 21.1307 33.708 20.9893 33.708 20.808C33.708 20.6747 33.66 20.5707 33.564 20.496C33.468 20.4213 33.34 20.3653 33.18 20.328C33.0253 20.2907 32.852 20.2587 32.66 20.232C32.468 20.2 32.276 20.1627 32.084 20.12C31.892 20.072 31.716 20.008 31.556 19.928C31.396 19.8427 31.268 19.728 31.172 19.584C31.076 19.4347 31.028 19.2373 31.028 18.992C31.028 18.736 31.1 18.512 31.244 18.32C31.388 18.128 31.5907 17.9813 31.852 17.88C32.1187 17.7733 32.4333 17.72 32.796 17.72C33.0733 17.72 33.3533 17.7547 33.636 17.824C33.924 17.888 34.1587 17.9813 34.34 18.104L34.012 18.712C33.82 18.584 33.62 18.496 33.412 18.448C33.204 18.4 32.996 18.376 32.788 18.376C32.452 18.376 32.2013 18.432 32.036 18.544C31.8707 18.6507 31.788 18.7893 31.788 18.96C31.788 19.104 31.836 19.216 31.932 19.296C32.0333 19.3707 32.1613 19.4293 32.316 19.472C32.476 19.5147 32.652 19.552 32.844 19.584C33.036 19.6107 33.228 19.648 33.42 19.696C33.612 19.7387 33.7853 19.8 33.94 19.88C34.1 19.96 34.228 20.072 34.324 20.216C34.4253 20.36 34.476 20.552 34.476 20.792C34.476 21.048 34.4013 21.2693 34.252 21.456C34.1027 21.6427 33.892 21.7893 33.62 21.896C33.348 21.9973 33.0227 22.048 32.644 22.048ZM36.0598 20.976L36.0758 19.992L38.5158 17.76H39.4438L37.5718 19.6L37.1558 19.952L36.0598 20.976ZM35.4358 22V16.064H36.2038V22H35.4358ZM38.6758 22L37.0118 19.936L37.5078 19.32L39.6198 22H38.6758ZM40.3655 22V17.76H41.1335V22H40.3655ZM40.7495 16.944C40.6002 16.944 40.4748 16.896 40.3735 16.8C40.2775 16.704 40.2295 16.5867 40.2295 16.448C40.2295 16.304 40.2775 16.184 40.3735 16.088C40.4748 15.992 40.6002 15.944 40.7495 15.944C40.8988 15.944 41.0215 15.992 41.1175 16.088C41.2188 16.1787 41.2695 16.2933 41.2695 16.432C41.2695 16.576 41.2215 16.6987 41.1255 16.8C41.0295 16.896 40.9042 16.944 40.7495 16.944ZM42.5999 22V16.064H43.3679V22H42.5999ZM44.8342 22V16.064H45.6022V22H44.8342ZM54.5211 17.72C54.8624 17.72 55.1637 17.7867 55.4251 17.92C55.6864 18.0533 55.8891 18.256 56.0331 18.528C56.1824 18.8 56.2571 19.144 56.2571 19.56V22H55.4891V19.648C55.4891 19.2373 55.3931 18.928 55.2011 18.72C55.0091 18.512 54.7397 18.408 54.3931 18.408C54.1371 18.408 53.9131 18.4613 53.7211 18.568C53.5291 18.6747 53.3797 18.832 53.2731 19.04C53.1717 19.248 53.1211 19.5067 53.1211 19.816V22H52.3531V19.648C52.3531 19.2373 52.2571 18.928 52.0651 18.72C51.8784 18.512 51.6091 18.408 51.2571 18.408C51.0064 18.408 50.7851 18.4613 50.5931 18.568C50.4011 18.6747 50.2517 18.832 50.1451 19.04C50.0384 19.248 49.9851 19.5067 49.9851 19.816V22H49.2171V17.76H49.9531V18.888L49.8331 18.6C49.9664 18.3227 50.1717 18.1067 50.4491 17.952C50.7264 17.7973 51.0491 17.72 51.4171 17.72C51.8224 17.72 52.1717 17.8213 52.4651 18.024C52.7584 18.2213 52.9504 18.5227 53.0411 18.928L52.7291 18.8C52.8571 18.4747 53.0811 18.2133 53.4011 18.016C53.7211 17.8187 54.0944 17.72 54.5211 17.72ZM60.3022 22V21.104L60.2622 20.936V19.408C60.2622 19.0827 60.1662 18.832 59.9742 18.656C59.7875 18.4747 59.5049 18.384 59.1262 18.384C58.8755 18.384 58.6302 18.4267 58.3902 18.512C58.1502 18.592 57.9475 18.7013 57.7822 18.84L57.4622 18.264C57.6809 18.088 57.9422 17.9547 58.2462 17.864C58.5555 17.768 58.8782 17.72 59.2142 17.72C59.7955 17.72 60.2435 17.8613 60.5582 18.144C60.8729 18.4267 61.0302 18.8587 61.0302 19.44V22H60.3022ZM58.9102 22.048C58.5955 22.048 58.3182 21.9947 58.0782 21.888C57.8435 21.7813 57.6622 21.6347 57.5342 21.448C57.4062 21.256 57.3422 21.04 57.3422 20.8C57.3422 20.5707 57.3955 20.3627 57.5022 20.176C57.6142 19.9893 57.7929 19.84 58.0382 19.728C58.2889 19.616 58.6249 19.56 59.0462 19.56H60.3902V20.112H59.0782C58.6942 20.112 58.4355 20.176 58.3022 20.304C58.1689 20.432 58.1022 20.5867 58.1022 20.768C58.1022 20.976 58.1849 21.144 58.3502 21.272C58.5155 21.3947 58.7449 21.456 59.0382 21.456C59.3262 21.456 59.5769 21.392 59.7902 21.264C60.0089 21.136 60.1662 20.9493 60.2622 20.704L60.4142 21.232C60.3129 21.4827 60.1342 21.6827 59.8782 21.832C59.6222 21.976 59.2995 22.048 58.9102 22.048ZM63.9074 22.048C63.4808 22.048 63.1501 21.9333 62.9154 21.704C62.6808 21.4747 62.5634 21.1467 62.5634 20.72V16.832H63.3314V20.688C63.3314 20.9173 63.3874 21.0933 63.4994 21.216C63.6168 21.3387 63.7821 21.4 63.9954 21.4C64.2354 21.4 64.4354 21.3333 64.5954 21.2L64.8354 21.752C64.7181 21.8533 64.5768 21.928 64.4114 21.976C64.2514 22.024 64.0834 22.048 63.9074 22.048ZM61.8434 18.392V17.76H64.5474V18.392H61.8434ZM67.1184 22.048C66.6917 22.048 66.361 21.9333 66.1264 21.704C65.8917 21.4747 65.7744 21.1467 65.7744 20.72V16.832H66.5424V20.688C66.5424 20.9173 66.5984 21.0933 66.7104 21.216C66.8277 21.3387 66.993 21.4 67.2064 21.4C67.4464 21.4 67.6464 21.3333 67.8064 21.2L68.0464 21.752C67.929 21.8533 67.7877 21.928 67.6224 21.976C67.4624 22.024 67.2944 22.048 67.1184 22.048ZM65.0544 18.392V17.76H67.7584V18.392H65.0544ZM70.7222 22.048C70.2689 22.048 69.8689 21.9547 69.5222 21.768C69.1809 21.5813 68.9142 21.3253 68.7222 21C68.5356 20.6747 68.4422 20.3013 68.4422 19.88C68.4422 19.4587 68.5329 19.0853 68.7142 18.76C68.9009 18.4347 69.1542 18.1813 69.4742 18C69.7996 17.8133 70.1649 17.72 70.5702 17.72C70.9809 17.72 71.3436 17.8107 71.6582 17.992C71.9729 18.1733 72.2182 18.4293 72.3942 18.76C72.5756 19.0853 72.6662 19.4667 72.6662 19.904C72.6662 19.936 72.6636 19.9733 72.6582 20.016C72.6582 20.0587 72.6556 20.0987 72.6502 20.136H69.0422V19.584H72.2502L71.9382 19.776C71.9436 19.504 71.8876 19.2613 71.7702 19.048C71.6529 18.8347 71.4902 18.6693 71.2822 18.552C71.0796 18.4293 70.8422 18.368 70.5702 18.368C70.3036 18.368 70.0662 18.4293 69.8582 18.552C69.6502 18.6693 69.4876 18.8373 69.3702 19.056C69.2529 19.2693 69.1942 19.5147 69.1942 19.792V19.92C69.1942 20.2027 69.2582 20.456 69.3862 20.68C69.5196 20.8987 69.7036 21.0693 69.9382 21.192C70.1729 21.3147 70.4422 21.376 70.7462 21.376C70.9969 21.376 71.2236 21.3333 71.4262 21.248C71.6342 21.1627 71.8156 21.0347 71.9702 20.864L72.3942 21.36C72.2022 21.584 71.9622 21.7547 71.6742 21.872C71.3916 21.9893 71.0742 22.048 70.7222 22.048ZM73.7327 22V17.76H74.4687V18.912L74.3967 18.624C74.514 18.3307 74.7114 18.1067 74.9887 17.952C75.266 17.7973 75.6074 17.72 76.0127 17.72V18.464C75.9807 18.4587 75.9487 18.456 75.9167 18.456C75.89 18.456 75.8634 18.456 75.8367 18.456C75.426 18.456 75.1007 18.5787 74.8607 18.824C74.6207 19.0693 74.5007 19.424 74.5007 19.888V22H73.7327ZM78.2221 22.048C77.8701 22.048 77.5341 22 77.2141 21.904C76.8995 21.808 76.6515 21.6907 76.4701 21.552L76.7901 20.944C76.9715 21.0667 77.1955 21.1707 77.4621 21.256C77.7288 21.3413 78.0008 21.384 78.2781 21.384C78.6355 21.384 78.8915 21.3333 79.0461 21.232C79.2061 21.1307 79.2861 20.9893 79.2861 20.808C79.2861 20.6747 79.2381 20.5707 79.1421 20.496C79.0461 20.4213 78.9181 20.3653 78.7581 20.328C78.6035 20.2907 78.4301 20.2587 78.2381 20.232C78.0461 20.2 77.8541 20.1627 77.6621 20.12C77.4701 20.072 77.2941 20.008 77.1341 19.928C76.9741 19.8427 76.8461 19.728 76.7501 19.584C76.6541 19.4347 76.6061 19.2373 76.6061 18.992C76.6061 18.736 76.6781 18.512 76.8221 18.32C76.9661 18.128 77.1688 17.9813 77.4301 17.88C77.6968 17.7733 78.0115 17.72 78.3741 17.72C78.6515 17.72 78.9315 17.7547 79.2141 17.824C79.5021 17.888 79.7368 17.9813 79.9181 18.104L79.5901 18.712C79.3981 18.584 79.1981 18.496 78.9901 18.448C78.7821 18.4 78.5741 18.376 78.3661 18.376C78.0301 18.376 77.7795 18.432 77.6141 18.544C77.4488 18.6507 77.3661 18.7893 77.3661 18.96C77.3661 19.104 77.4141 19.216 77.5101 19.296C77.6115 19.3707 77.7395 19.4293 77.8941 19.472C78.0541 19.5147 78.2301 19.552 78.4221 19.584C78.6141 19.6107 78.8061 19.648 78.9981 19.696C79.1901 19.7387 79.3635 19.8 79.5181 19.88C79.6781 19.96 79.8061 20.072 79.9021 20.216C80.0035 20.36 80.0541 20.552 80.0541 20.792C80.0541 21.048 79.9795 21.2693 79.8301 21.456C79.6808 21.6427 79.4701 21.7893 79.1981 21.896C78.9261 21.9973 78.6008 22.048 78.2221 22.048Z" fill="#FA6603" style="fill:#FA6603;fill:color(display-p3 0.9804 0.4000 0.0118);fill-opacity:1;"/>
</g>
</g>
<defs>
<clipPath id="clip0_2038_31">
<rect width="82.7" height="24" fill="white" style="fill:white;fill-opacity:1;"/>
</clipPath>
<clipPath id="clip1_2038_31">
<rect width="52" height="24" fill="white" style="fill:white;fill-opacity:1;" transform="translate(30.7)"/>
</clipPath>
</defs>
</svg>
