<svg width="111" height="24" viewBox="0 0 111 24" fill="none" xmlns="http://www.w3.org/2000/svg">
<path d="M102.716 19.1206C102.716 17.5652 103.979 16.3032 105.533 16.3032C107.089 16.3032 108.35 17.5652 108.35 19.1206C108.35 20.6761 107.089 21.9372 105.533 21.9372C103.979 21.9372 102.716 20.6761 102.716 19.1206Z" fill="#86BC24" style="fill:#86BC24;fill:color(display-p3 0.5255 0.7373 0.1412);fill-opacity:1;"/>
<path d="M12.8639 11.6593C12.8639 9.87478 12.5191 8.55086 11.8294 7.68836C11.1389 6.82667 10.0929 6.39622 8.68665 6.39622H7.19075V17.3088H8.33525C9.89721 17.3088 11.0418 16.8457 11.7706 15.9164C12.4986 14.9887 12.8639 13.5694 12.8639 11.6593ZM18.1986 11.4734C18.1986 14.7245 17.3247 17.2297 15.5769 18.9881C13.829 20.7474 11.372 21.627 8.20484 21.627H2.05072V2.14569H8.63442C11.6882 2.14569 14.0458 2.94542 15.7073 4.54406C17.3679 6.14353 18.1986 8.45223 18.1986 11.4734Z" fill="#0F0B0B" style="fill:#0F0B0B;fill:color(display-p3 0.0588 0.0431 0.0431);fill-opacity:1;"/>
<path d="M35.2455 21.6268H40.1425V2.06396H35.2455V21.6268Z" fill="#0F0B0B" style="fill:#0F0B0B;fill:color(display-p3 0.0588 0.0431 0.0431);fill-opacity:1;"/>
<path d="M47.0219 14.3298C47.0219 15.5771 47.1849 16.5284 47.5102 17.1822C47.8363 17.8368 48.3824 18.1638 49.1504 18.1638C49.9102 18.1638 50.4474 17.8368 50.7604 17.1822C51.0735 16.5284 51.2292 15.5771 51.2292 14.3298C51.2292 13.089 51.071 12.1531 50.7539 11.5213C50.436 10.8879 49.8939 10.5708 49.1252 10.5708C48.3736 10.5708 47.8363 10.8863 47.5102 11.514C47.1849 12.1425 47.0219 13.0809 47.0219 14.3298ZM56.2135 14.3298C56.2135 16.7062 55.5906 18.56 54.3417 19.8888C53.0936 21.2184 51.3466 21.8836 49.1007 21.8836C46.9469 21.8836 45.2324 21.2037 43.9599 19.8439C42.6857 18.4841 42.049 16.6466 42.049 14.3298C42.049 11.9608 42.6727 10.12 43.9217 8.80746C45.1705 7.49496 46.9216 6.83871 49.1765 6.83871C50.5697 6.83871 51.8024 7.14281 52.8703 7.75015C53.939 8.35749 54.7641 9.22733 55.3437 10.3605C55.9241 11.492 56.2135 12.8159 56.2135 14.3298Z" fill="#0F0B0B" style="fill:#0F0B0B;fill:color(display-p3 0.0588 0.0431 0.0431);fill-opacity:1;"/>
<path d="M58.1582 21.6268H63.0561V14.1399V7.09552H58.1582V21.6268Z" fill="#0F0B0B" style="fill:#0F0B0B;fill:color(display-p3 0.0588 0.0431 0.0431);fill-opacity:1;"/>
<path d="M58.1581 5.33782H63.056V2.06308H58.1581V5.33782Z" fill="#0F0B0B" style="fill:#0F0B0B;fill:color(display-p3 0.0588 0.0431 0.0431);fill-opacity:1;"/>
<path d="M72.9788 17.9205C73.6399 17.9205 74.4274 17.7525 75.3461 17.4191V21.0753C74.6858 21.3656 74.0581 21.5735 73.4614 21.6966C72.8646 21.8213 72.1643 21.8832 71.363 21.8832C69.7186 21.8832 68.5333 21.4699 67.8053 20.6449C67.0806 19.8199 66.717 18.5531 66.717 16.8436V10.8533H65.0019V7.09677H66.717V3.38589L71.6524 2.52744V7.09677H74.7772V10.8533H71.6524V16.5093C71.6524 17.4501 72.0951 17.9205 72.9788 17.9205Z" fill="#0F0B0B" style="fill:#0F0B0B;fill:color(display-p3 0.0588 0.0431 0.0431);fill-opacity:1;"/>
<path d="M84.3143 17.9205C84.9755 17.9205 85.763 17.7525 86.6818 17.4191V21.0753C86.0223 21.3656 85.3936 21.5735 84.7969 21.6966C84.1994 21.8213 83.5015 21.8832 82.6985 21.8832C81.0542 21.8832 79.869 21.4699 79.1426 20.6449C78.4162 19.8199 78.0527 18.5531 78.0527 16.8436V10.8533H76.3366V7.09677H78.0527V3.32964L82.9872 2.52744V7.09677H86.1135V10.8533H82.9872V16.5093C82.9872 17.4501 83.4298 17.9205 84.3143 17.9205Z" fill="#0F0B0B" style="fill:#0F0B0B;fill:color(display-p3 0.0588 0.0431 0.0431);fill-opacity:1;"/>
<path d="M92.8615 12.5594C92.9284 11.7638 93.156 11.1809 93.544 10.8084C93.9337 10.4366 94.4146 10.2508 94.9902 10.2508C95.6179 10.2508 96.1168 10.4594 96.4869 10.8801C96.8594 11.2983 97.0535 11.8584 97.069 12.5594H92.8615ZM99.7681 8.55185C98.604 7.41054 96.9523 6.83905 94.8157 6.83905C92.5697 6.83905 90.8415 7.4953 89.6301 8.8078C88.4195 10.1203 87.8137 12.0035 87.8137 14.4573C87.8137 16.8337 88.4684 18.6663 89.7744 19.9527C91.0811 21.2391 92.9161 21.8831 95.2795 21.8831C96.4143 21.8831 97.391 21.8057 98.2095 21.6516C99.0231 21.4992 99.8105 21.2236 100.574 20.8258L99.822 17.551C99.2668 17.7777 98.7385 17.9521 98.2396 18.0671C97.5189 18.2342 96.7283 18.3182 95.8673 18.3182C94.9234 18.3182 94.1782 18.0875 93.632 17.626C93.0858 17.1638 92.7948 16.5263 92.7614 15.7144H101.515V13.4831C101.515 11.3366 100.933 9.69234 99.7681 8.55185Z" fill="#0F0B0B" style="fill:#0F0B0B;fill:color(display-p3 0.0588 0.0431 0.0431);fill-opacity:1;"/>
<path d="M24.6981 12.5594C24.765 11.7638 24.9924 11.1809 25.3804 10.8084C25.7693 10.4366 26.2512 10.2508 26.8276 10.2508C27.4537 10.2508 27.9525 10.4594 28.3235 10.8801C28.696 11.2983 28.8892 11.8584 28.9064 12.5594H24.6981ZM31.6055 8.55185C30.4406 7.41054 28.7897 6.83905 26.6523 6.83905C24.4055 6.83905 22.678 7.4953 21.4673 8.8078C20.2568 10.1203 19.6503 12.0035 19.6503 14.4573C19.6503 16.8337 20.3042 18.6663 21.6118 19.9527C22.9177 21.2391 24.7527 21.8831 27.1161 21.8831C28.2509 21.8831 29.2275 21.8057 30.046 21.6516C30.8595 21.4992 31.6472 21.2236 32.4118 20.8258L31.6586 17.551C31.1034 17.7777 30.5751 17.9521 30.077 18.0671C29.3547 18.2342 28.5647 18.3182 27.7038 18.3182C26.7606 18.3182 26.0148 18.0875 25.4686 17.626C24.9216 17.1638 24.6314 16.5263 24.598 15.7144H33.3517V13.4831C33.3517 11.3366 32.7697 9.69234 31.6055 8.55185Z" fill="#0F0B0B" style="fill:#0F0B0B;fill:color(display-p3 0.0588 0.0431 0.0431);fill-opacity:1;"/>
</svg>
