<svg width="94" height="24" viewBox="0 0 94 24" fill="none" xmlns="http://www.w3.org/2000/svg">
<g clip-path="url(#clip0_2038_2)">
<path d="M49.9368 11.0386C51.1333 11.0386 52.2041 10.3729 52.8093 9.3393C53.5496 8.0683 54.9276 7.21166 56.5106 7.21166C58.0935 7.21166 59.4902 8.07762 60.2305 9.36258C60.8171 10.3822 61.8786 11.0386 63.0565 11.0386H63.1216C62.8842 7.59342 60.0163 4.87451 56.5106 4.87451C53.0048 4.87451 50.1509 7.59342 49.9135 11.0386H49.9414H49.9368Z" fill="#037FF3" style="fill:#037FF3;fill:color(display-p3 0.0118 0.4980 0.9529);fill-opacity:1;"/>
<path d="M63.0471 11.9651C61.8739 11.9651 60.8124 12.6215 60.2258 13.6365C59.4856 14.9214 58.0982 15.7874 56.5059 15.7874C54.9137 15.7874 53.5309 14.9214 52.7907 13.6365C52.2041 12.6169 51.1472 11.9651 49.974 11.9651H49.9042C50.1416 15.401 53.0002 18.1245 56.5059 18.1245C60.0116 18.1245 62.8795 15.4056 63.117 11.9651H63.0518H63.0471Z" fill="#037FF3" style="fill:#037FF3;fill:color(display-p3 0.0118 0.4980 0.9529);fill-opacity:1;"/>
<path d="M10.722 8.88306C10.3356 9.614 9.71174 10.2053 8.85975 10.6615C8.00776 11.1178 6.91368 11.3459 5.58215 11.3459H2.65373V17.9058H0V1.74591H5.58215C6.82056 1.74591 7.87275 1.96007 8.73405 2.38374C9.59535 2.81206 10.2378 3.38936 10.6661 4.11565C11.0945 4.84659 11.304 5.65668 11.304 6.55522C11.304 7.37928 11.1084 8.15212 10.722 8.88306ZM7.84016 8.50129C8.33831 8.04504 8.58506 7.3979 8.58506 6.55988C8.58506 4.79072 7.58409 3.9108 5.58681 3.9108H2.65839V9.19033H5.58681C6.59243 9.19033 7.34665 8.96221 7.84481 8.50595L7.84016 8.50129Z" fill="#037FF3" style="fill:#037FF3;fill:color(display-p3 0.0118 0.4980 0.9529);fill-opacity:1;"/>
<path d="M13.9763 2.90516C13.6504 2.57926 13.4875 2.17887 13.4875 1.69468C13.4875 1.21049 13.6504 0.810104 13.9763 0.484207C14.3022 0.15831 14.7026 -0.00463867 15.1868 -0.00463867C15.671 -0.00463867 16.0481 0.15831 16.374 0.484207C16.6999 0.810104 16.8629 1.21515 16.8629 1.69468C16.8629 2.17422 16.6999 2.57926 16.374 2.90516C16.0481 3.23105 15.6524 3.394 15.1868 3.394C14.7212 3.394 14.3022 3.23105 13.9763 2.90516ZM16.4857 5.09332V17.9057H13.8367V5.09332H16.4857Z" fill="#037FF3" style="fill:#037FF3;fill:color(display-p3 0.0118 0.4980 0.9529);fill-opacity:1;"/>
<path d="M29.1492 5.51231C29.9499 5.93132 30.5692 6.55052 31.0208 7.37457C31.4724 8.19863 31.6958 9.19029 31.6958 10.3496V17.9057H29.07V10.7453C29.07 9.59999 28.7814 8.72006 28.2087 8.10552C27.6361 7.49562 26.8539 7.18835 25.8576 7.18835C24.8613 7.18835 24.0791 7.49562 23.4972 8.10552C22.9152 8.72006 22.6266 9.59999 22.6266 10.7453V17.9057H19.9775V5.09329H22.6266V6.55983C23.0595 6.03374 23.6136 5.62404 24.2886 5.32608C24.9637 5.03277 25.6807 4.88379 26.4396 4.88379C27.4452 4.88379 28.3484 5.09329 29.1492 5.51231Z" fill="#037FF3" style="fill:#037FF3;fill:color(display-p3 0.0118 0.4980 0.9529);fill-opacity:1;"/>
<path d="M39.5546 5.48903C40.3275 5.08398 41.2074 4.88379 42.1804 4.88379C43.2978 4.88379 44.3174 5.15847 45.2392 5.70784C46.161 6.25721 46.8873 7.03005 47.4134 8.02171C47.9395 9.01337 48.2049 10.154 48.2049 11.439C48.2049 12.7239 47.9395 13.8786 47.4134 14.8935C46.8873 15.9084 46.161 16.6999 45.2392 17.2632C44.3174 17.8312 43.2978 18.1106 42.1804 18.1106C41.2027 18.1106 40.3368 17.915 39.5732 17.5193C38.8144 17.1236 38.1952 16.6301 37.711 16.0434V23.9953H35.0619V5.09329H37.711V6.97884C38.1626 6.38757 38.7725 5.89407 39.55 5.48903H39.5546ZM44.9599 9.15304C44.5967 8.51056 44.1125 8.02171 43.5166 7.68651C42.9207 7.3513 42.2782 7.18835 41.5985 7.18835C40.9187 7.18835 40.2995 7.36061 39.7036 7.70047C39.1077 8.04034 38.6281 8.53849 38.2603 9.19029C37.8972 9.84208 37.7156 10.6103 37.7156 11.4948C37.7156 12.3794 37.8972 13.1523 38.2603 13.8087C38.6235 14.4698 39.103 14.968 39.7036 15.3078C40.2995 15.6477 40.9327 15.82 41.5985 15.82C42.2642 15.82 42.9207 15.6477 43.5166 15.2985C44.1125 14.9494 44.5921 14.4419 44.9599 13.7761C45.323 13.1104 45.5046 12.3329 45.5046 11.4483C45.5046 10.5637 45.323 9.80018 44.9599 9.1577V9.15304Z" fill="#037FF3" style="fill:#037FF3;fill:color(display-p3 0.0118 0.4980 0.9529);fill-opacity:1;"/>
<path d="M65.8126 2.90516C65.4867 2.57926 65.3238 2.17887 65.3238 1.69468C65.3238 1.21049 65.4867 0.810104 65.8126 0.484207C66.1385 0.15831 66.5389 -0.00463867 67.0231 -0.00463867C67.5073 -0.00463867 67.8844 0.15831 68.2103 0.484207C68.5362 0.810104 68.6991 1.21515 68.6991 1.69468C68.6991 2.17422 68.5362 2.57926 68.2103 2.90516C67.8844 3.23105 67.4887 3.394 67.0231 3.394C66.5575 3.394 66.1385 3.23105 65.8126 2.90516ZM68.322 5.09332V17.9057H65.6729V5.09332H68.322Z" fill="#037FF3" style="fill:#037FF3;fill:color(display-p3 0.0118 0.4980 0.9529);fill-opacity:1;"/>
<path d="M80.9855 5.51231C81.7862 5.93132 82.4054 6.55052 82.857 7.37457C83.3086 8.19863 83.5321 9.19029 83.5321 10.3496V17.9057H80.9063V10.7453C80.9063 9.59999 80.6177 8.72006 80.045 8.10552C79.4724 7.49562 78.6902 7.18835 77.6939 7.18835C76.6976 7.18835 75.9154 7.49562 75.3335 8.10552C74.7515 8.72006 74.4629 9.59999 74.4629 10.7453V17.9057H71.8138V5.09329H74.4629V6.55983C74.8958 6.03374 75.4499 5.62404 76.1249 5.32608C76.8 5.03277 77.517 4.88379 78.2759 4.88379C79.2815 4.88379 80.1847 5.09329 80.9855 5.51231Z" fill="#037FF3" style="fill:#037FF3;fill:color(display-p3 0.0118 0.4980 0.9529);fill-opacity:1;"/>
<path d="M89.9988 7.25354V14.3441C89.9988 14.8237 90.1106 15.1682 90.334 15.3777C90.5575 15.5872 90.9439 15.6896 91.484 15.6896H93.1135V17.9011H91.0184C89.8266 17.9011 88.9094 17.6217 88.2762 17.0631C87.6384 16.5044 87.3218 15.5965 87.3218 14.3441V7.25354H85.8087V5.08866H87.3218V1.90417H89.9942V5.08866H93.1088V7.25354H89.9942H89.9988Z" fill="#037FF3" style="fill:#037FF3;fill:color(display-p3 0.0118 0.4980 0.9529);fill-opacity:1;"/>
<path d="M56.5106 13.5993C57.6728 13.5993 58.6149 12.6592 58.6149 11.4996C58.6149 10.3399 57.6728 9.39984 56.5106 9.39984C55.3484 9.39984 54.4062 10.3399 54.4062 11.4996C54.4062 12.6592 55.3484 13.5993 56.5106 13.5993Z" fill="#037FF3" style="fill:#037FF3;fill:color(display-p3 0.0118 0.4980 0.9529);fill-opacity:1;"/>
</g>
<defs>
<clipPath id="clip0_2038_2">
<rect width="93.1135" height="24" fill="white" style="fill:white;fill-opacity:1;"/>
</clipPath>
</defs>
</svg>
